<svg width="333" height="748" viewBox="0 0 333 748" fill="none" xmlns="http://www.w3.org/2000/svg">
<path d="M94.0227 455.045C94.0227 460.432 92.8864 464.864 90.6136 468.341C88.3182 471.795 85.1364 474.216 81.0682 475.602C77 476.966 72.3182 477.205 67.0227 476.318C61.6591 475.455 56.9545 473.648 52.9091 470.898C48.8409 468.148 45.6705 464.659 43.3977 460.432C41.1023 456.182 39.9545 451.409 39.9545 446.114C39.9545 441.545 40.7841 437.682 42.4432 434.523C44.1023 431.364 46.4318 429.045 49.4318 427.568C52.4318 426.091 55.9545 425.591 60 426.068V439.739C57.4091 439.716 55.3068 440.386 53.6932 441.75C52.0795 443.114 51.2727 445.114 51.2727 447.75C51.2727 450.023 51.8864 452.114 53.1136 454.023C54.3182 455.909 56.0795 457.511 58.3977 458.83C60.7159 460.125 63.5227 461.034 66.8182 461.557C70.1591 462.102 73 462.114 75.3409 461.591C77.6818 461.068 79.4659 460.068 80.6932 458.591C81.9205 457.114 82.5341 455.25 82.5341 453C82.5341 451.318 82.1932 449.761 81.5114 448.33C80.8295 446.875 79.8409 445.602 78.5455 444.511C77.2273 443.42 75.6477 442.58 73.8068 441.989V428.284C77.8295 429.216 81.3523 430.909 84.375 433.364C87.3977 435.795 89.7614 438.852 91.4659 442.534C93.1705 446.216 94.0227 450.386 94.0227 455.045ZM93 422.224L40.6364 413.497V398.974L93 407.702V422.224ZM33.8182 404.736C33.8182 406.895 33.1023 408.679 31.6705 410.088C30.2159 411.474 28.4886 412.043 26.4886 411.793C24.4432 411.543 22.7159 410.565 21.3068 408.861C19.875 407.156 19.1591 405.224 19.1591 403.065C19.1591 400.906 19.875 399.145 21.3068 397.781C22.7159 396.418 24.4432 395.849 26.4886 396.077C28.4886 396.304 30.2159 397.27 31.6705 398.974C33.1023 400.656 33.8182 402.577 33.8182 404.736ZM93.9886 381.273C93.9886 384.591 93.4091 387.466 92.25 389.898C91.0682 392.307 89.3182 394.08 87 395.216C84.6818 396.352 81.8068 396.636 78.375 396.068C75.4659 395.568 73.0341 394.625 71.0795 393.239C69.1023 391.83 67.5114 390.114 66.3068 388.091C65.1023 386.068 64.1818 383.83 63.5455 381.375C62.9091 378.898 62.4773 376.341 62.25 373.705C61.9318 370.659 61.625 368.182 61.3295 366.273C61.0341 364.341 60.6136 362.898 60.0682 361.943C59.5 360.989 58.6591 360.409 57.5455 360.205H57.3409C55.2045 359.864 53.5455 360.261 52.3636 361.398C51.1591 362.511 50.5568 364.295 50.5568 366.75C50.5568 369.341 51.125 371.545 52.2614 373.364C53.3977 375.159 54.8409 376.443 56.5909 377.216L55.5 390.443C52.3182 389.261 49.5682 387.477 47.25 385.091C44.9091 382.682 43.1136 379.784 41.8636 376.398C40.5909 373.011 39.9545 369.216 39.9545 365.011C39.9545 362.102 40.2955 359.386 40.9773 356.864C41.6591 354.318 42.7159 352.125 44.1477 350.284C45.5795 348.42 47.4205 347.08 49.6705 346.261C51.8977 345.42 54.5682 345.25 57.6818 345.75L93 351.648L93 365.42L85.7386 364.193V364.602C87.375 365.716 88.8182 367.08 90.0682 368.693C91.2955 370.307 92.2614 372.159 92.9659 374.25C93.6477 376.341 93.9886 378.682 93.9886 381.273ZM83.9659 375.443C83.9659 373.33 83.5455 371.386 82.7045 369.614C81.8409 367.818 80.6818 366.341 79.2273 365.182C77.7727 364 76.125 363.25 74.2841 362.932L68.7273 362.045C69.0227 362.5 69.2841 363.159 69.5114 364.023C69.7386 364.864 69.9545 365.784 70.1591 366.784C70.3409 367.761 70.5114 368.75 70.6705 369.75C70.8068 370.75 70.9432 371.648 71.0795 372.443C71.3295 374.193 71.7273 375.761 72.2727 377.148C72.8182 378.534 73.5568 379.659 74.4886 380.523C75.3977 381.386 76.5341 381.92 77.8977 382.125C79.875 382.443 81.3864 381.977 82.4318 380.727C83.4545 379.455 83.9659 377.693 83.9659 375.443ZM94.0227 316.653C94.0227 321.994 92.8864 326.415 90.6136 329.915C88.3182 333.415 85.1364 335.881 81.0682 337.312C76.9773 338.722 72.2159 338.983 66.7841 338.097C61.4205 337.233 56.7273 335.437 52.7045 332.71C48.6818 329.983 45.5568 326.517 43.3295 322.312C41.0795 318.108 39.9545 313.369 39.9545 308.097C39.9545 302.778 41.1023 298.369 43.3977 294.869C45.6705 291.369 48.8523 288.903 52.9432 287.472C57.0341 286.04 61.7955 285.767 67.2273 286.653C72.5682 287.54 77.25 289.358 81.2727 292.108C85.2955 294.858 88.4318 298.324 90.6818 302.506C92.9091 306.687 94.0227 311.403 94.0227 316.653ZM82.7727 315.222C82.7727 312.767 82.0795 310.597 80.6932 308.71C79.2841 306.801 77.375 305.222 74.9659 303.972C72.5341 302.699 69.7841 301.812 66.7159 301.312C63.6932 300.812 61.0114 300.778 58.6705 301.21C56.3068 301.642 54.4432 302.551 53.0795 303.938C51.7159 305.301 51.0341 307.176 51.0341 309.562C51.0341 312.017 51.7386 314.199 53.1477 316.108C54.5341 318.017 56.4432 319.597 58.875 320.847C61.3068 322.097 64.0682 322.972 67.1591 323.472C70.1591 323.949 72.8409 323.983 75.2045 323.574C77.5455 323.165 79.3977 322.267 80.7614 320.881C82.1023 319.494 82.7727 317.608 82.7727 315.222ZM94.0227 257.983C94.0227 263.369 92.8864 267.801 90.6136 271.278C88.3182 274.733 85.1364 277.153 81.0682 278.54C77 279.903 72.3182 280.142 67.0227 279.256C61.6591 278.392 56.9545 276.585 52.9091 273.835C48.8409 271.085 45.6705 267.597 43.3977 263.369C41.1023 259.119 39.9545 254.347 39.9545 249.051C39.9545 244.483 40.7841 240.619 42.4432 237.46C44.1023 234.301 46.4318 231.983 49.4318 230.506C52.4318 229.028 55.9545 228.528 60 229.006V242.676C57.4091 242.653 55.3068 243.324 53.6932 244.688C52.0795 246.051 51.2727 248.051 51.2727 250.688C51.2727 252.96 51.8864 255.051 53.1136 256.96C54.3182 258.847 56.0795 260.449 58.3977 261.767C60.7159 263.062 63.5227 263.972 66.8182 264.494C70.1591 265.04 73 265.051 75.3409 264.528C77.6818 264.006 79.4659 263.006 80.6932 261.528C81.9205 260.051 82.5341 258.188 82.5341 255.938C82.5341 254.256 82.1932 252.699 81.5114 251.267C80.8295 249.812 79.8409 248.54 78.5455 247.449C77.2273 246.358 75.6477 245.517 73.8068 244.926V231.222C77.8295 232.153 81.3523 233.847 84.375 236.301C87.3977 238.733 89.7614 241.79 91.4659 245.472C93.1705 249.153 94.0227 253.324 94.0227 257.983ZM93 225.162L40.6364 216.435V201.912L93 210.639V225.162ZM33.8182 207.673C33.8182 209.832 33.1023 211.616 31.6705 213.026C30.2159 214.412 28.4886 214.98 26.4886 214.73C24.4432 214.48 22.7159 213.503 21.3068 211.798C19.875 210.094 19.1591 208.162 19.1591 206.003C19.1591 203.844 19.875 202.082 21.3068 200.719C22.7159 199.355 24.4432 198.787 26.4886 199.014C28.4886 199.241 30.2159 200.207 31.6705 201.912C33.1023 203.594 33.8182 205.514 33.8182 207.673ZM93.9886 184.21C93.9886 187.528 93.4091 190.403 92.25 192.835C91.0682 195.244 89.3182 197.017 87 198.153C84.6818 199.29 81.8068 199.574 78.375 199.006C75.4659 198.506 73.0341 197.562 71.0795 196.176C69.1023 194.767 67.5114 193.051 66.3068 191.028C65.1023 189.006 64.1818 186.767 63.5455 184.312C62.9091 181.835 62.4773 179.278 62.25 176.642C61.9318 173.597 61.625 171.119 61.3295 169.21C61.0341 167.278 60.6136 165.835 60.0682 164.881C59.5 163.926 58.6591 163.347 57.5455 163.142H57.3409C55.2045 162.801 53.5455 163.199 52.3636 164.335C51.1591 165.449 50.5568 167.233 50.5568 169.688C50.5568 172.278 51.125 174.483 52.2614 176.301C53.3977 178.097 54.8409 179.381 56.5909 180.153L55.5 193.381C52.3182 192.199 49.5682 190.415 47.25 188.028C44.9091 185.619 43.1136 182.722 41.8636 179.335C40.5909 175.949 39.9545 172.153 39.9545 167.949C39.9545 165.04 40.2955 162.324 40.9773 159.801C41.6591 157.256 42.7159 155.062 44.1477 153.222C45.5795 151.358 47.4205 150.017 49.6705 149.199C51.8977 148.358 54.5682 148.188 57.6818 148.688L93 154.585V168.358L85.7386 167.131V167.54C87.375 168.653 88.8182 170.017 90.0682 171.631C91.2955 173.244 92.2614 175.097 92.9659 177.188C93.6477 179.278 93.9886 181.619 93.9886 184.21ZM83.9659 178.381C83.9659 176.267 83.5455 174.324 82.7045 172.551C81.8409 170.756 80.6818 169.278 79.2273 168.119C77.7727 166.937 76.125 166.187 74.2841 165.869L68.7273 164.983C69.0227 165.438 69.2841 166.097 69.5114 166.96C69.7386 167.801 69.9545 168.722 70.1591 169.722C70.3409 170.699 70.5114 171.688 70.6705 172.688C70.8068 173.688 70.9432 174.585 71.0795 175.381C71.3295 177.131 71.7273 178.699 72.2727 180.085C72.8182 181.472 73.5568 182.597 74.4886 183.46C75.3977 184.324 76.5341 184.858 77.8977 185.062C79.875 185.381 81.3864 184.915 82.4318 183.665C83.4545 182.392 83.9659 180.631 83.9659 178.381ZM94.0227 119.591C94.0227 124.932 92.8864 129.352 90.6136 132.852C88.3182 136.352 85.1364 138.818 81.0682 140.25C76.9773 141.659 72.2159 141.92 66.7841 141.034C61.4205 140.17 56.7273 138.375 52.7045 135.648C48.6818 132.92 45.5568 129.455 43.3295 125.25C41.0795 121.045 39.9545 116.307 39.9545 111.034C39.9545 105.716 41.1023 101.307 43.3977 97.8068C45.6705 94.3068 48.8523 91.8409 52.9432 90.4091C57.0341 88.9773 61.7955 88.7045 67.2273 89.5909C72.5682 90.4773 77.25 92.2955 81.2727 95.0455C85.2955 97.7955 88.4318 101.261 90.6818 105.443C92.9091 109.625 94.0227 114.341 94.0227 119.591ZM82.7727 118.159C82.7727 115.705 82.0795 113.534 80.6932 111.648C79.2841 109.739 77.375 108.159 74.9659 106.909C72.5341 105.636 69.7841 104.75 66.7159 104.25C63.6932 103.75 61.0114 103.716 58.6705 104.148C56.3068 104.58 54.4432 105.489 53.0795 106.875C51.7159 108.239 51.0341 110.114 51.0341 112.5C51.0341 114.955 51.7386 117.136 53.1477 119.045C54.5341 120.955 56.4432 122.534 58.875 123.784C61.3068 125.034 64.0682 125.909 67.1591 126.409C70.1591 126.886 72.8409 126.92 75.2045 126.511C77.5455 126.102 79.3977 125.205 80.7614 123.818C82.1023 122.432 82.7727 120.545 82.7727 118.159Z" fill="#ECEFF3"/>
<path d="M199.023 504.045C199.023 509.432 197.886 513.864 195.614 517.341C193.318 520.795 190.136 523.216 186.068 524.602C182 525.966 177.318 526.205 172.023 525.318C166.659 524.455 161.955 522.648 157.909 519.898C153.841 517.148 150.67 513.659 148.398 509.432C146.102 505.182 144.955 500.409 144.955 495.114C144.955 490.545 145.784 486.682 147.443 483.523C149.102 480.364 151.432 478.045 154.432 476.568C157.432 475.091 160.955 474.591 165 475.068V488.739C162.409 488.716 160.307 489.386 158.693 490.75C157.08 492.114 156.273 494.114 156.273 496.75C156.273 499.023 156.886 501.114 158.114 503.023C159.318 504.909 161.08 506.511 163.398 507.83C165.716 509.125 168.523 510.034 171.818 510.557C175.159 511.102 178 511.114 180.341 510.591C182.682 510.068 184.466 509.068 185.693 507.591C186.92 506.114 187.534 504.25 187.534 502C187.534 500.318 187.193 498.761 186.511 497.33C185.83 495.875 184.841 494.602 183.545 493.511C182.227 492.42 180.648 491.58 178.807 490.989V477.284C182.83 478.216 186.352 479.909 189.375 482.364C192.398 484.795 194.761 487.852 196.466 491.534C198.17 495.216 199.023 499.386 199.023 504.045ZM198 471.224L145.636 462.497V447.974L198 456.702V471.224ZM138.818 453.736C138.818 455.895 138.102 457.679 136.67 459.088C135.216 460.474 133.489 461.043 131.489 460.793C129.443 460.543 127.716 459.565 126.307 457.861C124.875 456.156 124.159 454.224 124.159 452.065C124.159 449.906 124.875 448.145 126.307 446.781C127.716 445.418 129.443 444.849 131.489 445.077C133.489 445.304 135.216 446.27 136.67 447.974C138.102 449.656 138.818 451.577 138.818 453.736ZM198.989 430.273C198.989 433.591 198.409 436.466 197.25 438.898C196.068 441.307 194.318 443.08 192 444.216C189.682 445.352 186.807 445.636 183.375 445.068C180.466 444.568 178.034 443.625 176.08 442.239C174.102 440.83 172.511 439.114 171.307 437.091C170.102 435.068 169.182 432.83 168.545 430.375C167.909 427.898 167.477 425.341 167.25 422.705C166.932 419.659 166.625 417.182 166.33 415.273C166.034 413.341 165.614 411.898 165.068 410.943C164.5 409.989 163.659 409.409 162.545 409.205H162.341C160.205 408.864 158.545 409.261 157.364 410.398C156.159 411.511 155.557 413.295 155.557 415.75C155.557 418.341 156.125 420.545 157.261 422.364C158.398 424.159 159.841 425.443 161.591 426.216L160.5 439.443C157.318 438.261 154.568 436.477 152.25 434.091C149.909 431.682 148.114 428.784 146.864 425.398C145.591 422.011 144.955 418.216 144.955 414.011C144.955 411.102 145.295 408.386 145.977 405.864C146.659 403.318 147.716 401.125 149.148 399.284C150.58 397.42 152.42 396.08 154.67 395.261C156.898 394.42 159.568 394.25 162.682 394.75L198 400.648V414.42L190.739 413.193V413.602C192.375 414.716 193.818 416.08 195.068 417.693C196.295 419.307 197.261 421.159 197.966 423.25C198.648 425.341 198.989 427.682 198.989 430.273ZM188.966 424.443C188.966 422.33 188.545 420.386 187.705 418.614C186.841 416.818 185.682 415.341 184.227 414.182C182.773 413 181.125 412.25 179.284 411.932L173.727 411.045C174.023 411.5 174.284 412.159 174.511 413.023C174.739 413.864 174.955 414.784 175.159 415.784C175.341 416.761 175.511 417.75 175.67 418.75C175.807 419.75 175.943 420.648 176.08 421.443C176.33 423.193 176.727 424.761 177.273 426.148C177.818 427.534 178.557 428.659 179.489 429.523C180.398 430.386 181.534 430.92 182.898 431.125C184.875 431.443 186.386 430.977 187.432 429.727C188.455 428.455 188.966 426.693 188.966 424.443ZM199.023 365.653C199.023 370.994 197.886 375.415 195.614 378.915C193.318 382.415 190.136 384.881 186.068 386.312C181.977 387.722 177.216 387.983 171.784 387.097C166.42 386.233 161.727 384.437 157.705 381.71C153.682 378.983 150.557 375.517 148.33 371.312C146.08 367.108 144.955 362.369 144.955 357.097C144.955 351.778 146.102 347.369 148.398 343.869C150.67 340.369 153.852 337.903 157.943 336.472C162.034 335.04 166.795 334.767 172.227 335.653C177.568 336.54 182.25 338.358 186.273 341.108C190.295 343.858 193.432 347.324 195.682 351.506C197.909 355.687 199.023 360.403 199.023 365.653ZM187.773 364.222C187.773 361.767 187.08 359.597 185.693 357.71C184.284 355.801 182.375 354.222 179.966 352.972C177.534 351.699 174.784 350.812 171.716 350.312C168.693 349.812 166.011 349.778 163.67 350.21C161.307 350.642 159.443 351.551 158.08 352.938C156.716 354.301 156.034 356.176 156.034 358.562C156.034 361.017 156.739 363.199 158.148 365.108C159.534 367.017 161.443 368.597 163.875 369.847C166.307 371.097 169.068 371.972 172.159 372.472C175.159 372.949 177.841 372.983 180.205 372.574C182.545 372.165 184.398 371.267 185.761 369.881C187.102 368.494 187.773 366.608 187.773 364.222Z" fill="#ECEFF3"/>
<path d="M311.023 777.045C311.023 782.432 309.886 786.864 307.614 790.341C305.318 793.795 302.136 796.216 298.068 797.602C294 798.966 289.318 799.205 284.023 798.318C278.659 797.455 273.955 795.648 269.909 792.898C265.841 790.148 262.67 786.659 260.398 782.432C258.102 778.182 256.955 773.409 256.955 768.114C256.955 763.545 257.784 759.682 259.443 756.523C261.102 753.364 263.432 751.045 266.432 749.568C269.432 748.091 272.955 747.591 277 748.068V761.739C274.409 761.716 272.307 762.386 270.693 763.75C269.08 765.114 268.273 767.114 268.273 769.75C268.273 772.023 268.886 774.114 270.114 776.023C271.318 777.909 273.08 779.511 275.398 780.83C277.716 782.125 280.523 783.034 283.818 783.557C287.159 784.102 290 784.114 292.341 783.591C294.682 783.068 296.466 782.068 297.693 780.591C298.92 779.114 299.534 777.25 299.534 775C299.534 773.318 299.193 771.761 298.511 770.33C297.83 768.875 296.841 767.602 295.545 766.511C294.227 765.42 292.648 764.58 290.807 763.989V750.284C294.83 751.216 298.352 752.909 301.375 755.364C304.398 757.795 306.761 760.852 308.466 764.534C310.17 768.216 311.023 772.386 311.023 777.045ZM310 744.224L257.636 735.497V720.974L310 729.702V744.224ZM250.818 726.736C250.818 728.895 250.102 730.679 248.67 732.088C247.216 733.474 245.489 734.043 243.489 733.793C241.443 733.543 239.716 732.565 238.307 730.861C236.875 729.156 236.159 727.224 236.159 725.065C236.159 722.906 236.875 721.145 238.307 719.781C239.716 718.418 241.443 717.849 243.489 718.077C245.489 718.304 247.216 719.27 248.67 720.974C250.102 722.656 250.818 724.577 250.818 726.736ZM310.989 703.273C310.989 706.591 310.409 709.466 309.25 711.898C308.068 714.307 306.318 716.08 304 717.216C301.682 718.352 298.807 718.636 295.375 718.068C292.466 717.568 290.034 716.625 288.08 715.239C286.102 713.83 284.511 712.114 283.307 710.091C282.102 708.068 281.182 705.83 280.545 703.375C279.909 700.898 279.477 698.341 279.25 695.705C278.932 692.659 278.625 690.182 278.33 688.273C278.034 686.341 277.614 684.898 277.068 683.943C276.5 682.989 275.659 682.409 274.545 682.205H274.341C272.205 681.864 270.545 682.261 269.364 683.398C268.159 684.511 267.557 686.295 267.557 688.75C267.557 691.341 268.125 693.545 269.261 695.364C270.398 697.159 271.841 698.443 273.591 699.216L272.5 712.443C269.318 711.261 266.568 709.477 264.25 707.091C261.909 704.682 260.114 701.784 258.864 698.398C257.591 695.011 256.955 691.216 256.955 687.011C256.955 684.102 257.295 681.386 257.977 678.864C258.659 676.318 259.716 674.125 261.148 672.284C262.58 670.42 264.42 669.08 266.67 668.261C268.898 667.42 271.568 667.25 274.682 667.75L310 673.648V687.42L302.739 686.193V686.602C304.375 687.716 305.818 689.08 307.068 690.693C308.295 692.307 309.261 694.159 309.966 696.25C310.648 698.341 310.989 700.682 310.989 703.273ZM300.966 697.443C300.966 695.33 300.545 693.386 299.705 691.614C298.841 689.818 297.682 688.341 296.227 687.182C294.773 686 293.125 685.25 291.284 684.932L285.727 684.045C286.023 684.5 286.284 685.159 286.511 686.023C286.739 686.864 286.955 687.784 287.159 688.784C287.341 689.761 287.511 690.75 287.67 691.75C287.807 692.75 287.943 693.648 288.08 694.443C288.33 696.193 288.727 697.761 289.273 699.148C289.818 700.534 290.557 701.659 291.489 702.523C292.398 703.386 293.534 703.92 294.898 704.125C296.875 704.443 298.386 703.977 299.432 702.727C300.455 701.455 300.966 699.693 300.966 697.443ZM311.023 638.653C311.023 643.994 309.886 648.415 307.614 651.915C305.318 655.415 302.136 657.881 298.068 659.312C293.977 660.722 289.216 660.983 283.784 660.097C278.42 659.233 273.727 657.437 269.705 654.71C265.682 651.983 262.557 648.517 260.33 644.312C258.08 640.108 256.955 635.369 256.955 630.097C256.955 624.778 258.102 620.369 260.398 616.869C262.67 613.369 265.852 610.903 269.943 609.472C274.034 608.04 278.795 607.767 284.227 608.653C289.568 609.54 294.25 611.358 298.273 614.108C302.295 616.858 305.432 620.324 307.682 624.506C309.909 628.687 311.023 633.403 311.023 638.653ZM299.773 637.222C299.773 634.767 299.08 632.597 297.693 630.71C296.284 628.801 294.375 627.222 291.966 625.972C289.534 624.699 286.784 623.812 283.716 623.312C280.693 622.812 278.011 622.778 275.67 623.21C273.307 623.642 271.443 624.551 270.08 625.938C268.716 627.301 268.034 629.176 268.034 631.562C268.034 634.017 268.739 636.199 270.148 638.108C271.534 640.017 273.443 641.597 275.875 642.847C278.307 644.097 281.068 644.972 284.159 645.472C287.159 645.949 289.841 645.983 292.205 645.574C294.545 645.165 296.398 644.267 297.761 642.881C299.102 641.494 299.773 639.608 299.773 637.222ZM311.023 579.983C311.023 585.369 309.886 589.801 307.614 593.278C305.318 596.733 302.136 599.153 298.068 600.54C294 601.903 289.318 602.142 284.023 601.256C278.659 600.392 273.955 598.585 269.909 595.835C265.841 593.085 262.67 589.597 260.398 585.369C258.102 581.119 256.955 576.347 256.955 571.051C256.955 566.483 257.784 562.619 259.443 559.46C261.102 556.301 263.432 553.983 266.432 552.506C269.432 551.028 272.955 550.528 277 551.006V564.676C274.409 564.653 272.307 565.324 270.693 566.688C269.08 568.051 268.273 570.051 268.273 572.688C268.273 574.96 268.886 577.051 270.114 578.96C271.318 580.847 273.08 582.449 275.398 583.767C277.716 585.062 280.523 585.972 283.818 586.494C287.159 587.04 290 587.051 292.341 586.528C294.682 586.006 296.466 585.006 297.693 583.528C298.92 582.051 299.534 580.188 299.534 577.938C299.534 576.256 299.193 574.699 298.511 573.267C297.83 571.812 296.841 570.54 295.545 569.449C294.227 568.358 292.648 567.517 290.807 566.926V553.222C294.83 554.153 298.352 555.847 301.375 558.301C304.398 560.733 306.761 563.79 308.466 567.472C310.17 571.153 311.023 575.324 311.023 579.983ZM310 547.162L257.636 538.435V523.912L310 532.639V547.162ZM250.818 529.673C250.818 531.832 250.102 533.616 248.67 535.026C247.216 536.412 245.489 536.98 243.489 536.73C241.443 536.48 239.716 535.503 238.307 533.798C236.875 532.094 236.159 530.162 236.159 528.003C236.159 525.844 236.875 524.082 238.307 522.719C239.716 521.355 241.443 520.787 243.489 521.014C245.489 521.241 247.216 522.207 248.67 523.912C250.102 525.594 250.818 527.514 250.818 529.673ZM310.989 506.21C310.989 509.528 310.409 512.403 309.25 514.835C308.068 517.244 306.318 519.017 304 520.153C301.682 521.29 298.807 521.574 295.375 521.006C292.466 520.506 290.034 519.562 288.08 518.176C286.102 516.767 284.511 515.051 283.307 513.028C282.102 511.006 281.182 508.767 280.545 506.312C279.909 503.835 279.477 501.278 279.25 498.642C278.932 495.597 278.625 493.119 278.33 491.21C278.034 489.278 277.614 487.835 277.068 486.881C276.5 485.926 275.659 485.347 274.545 485.142H274.341C272.205 484.801 270.545 485.199 269.364 486.335C268.159 487.449 267.557 489.233 267.557 491.688C267.557 494.278 268.125 496.483 269.261 498.301C270.398 500.097 271.841 501.381 273.591 502.153L272.5 515.381C269.318 514.199 266.568 512.415 264.25 510.028C261.909 507.619 260.114 504.722 258.864 501.335C257.591 497.949 256.955 494.153 256.955 489.949C256.955 487.04 257.295 484.324 257.977 481.801C258.659 479.256 259.716 477.062 261.148 475.222C262.58 473.358 264.42 472.017 266.67 471.199C268.898 470.358 271.568 470.188 274.682 470.688L310 476.585V490.358L302.739 489.131V489.54C304.375 490.653 305.818 492.017 307.068 493.631C308.295 495.244 309.261 497.097 309.966 499.188C310.648 501.278 310.989 503.619 310.989 506.21ZM300.966 500.381C300.966 498.267 300.545 496.324 299.705 494.551C298.841 492.756 297.682 491.278 296.227 490.119C294.773 488.937 293.125 488.187 291.284 487.869L285.727 486.983C286.023 487.438 286.284 488.097 286.511 488.96C286.739 489.801 286.955 490.722 287.159 491.722C287.341 492.699 287.511 493.688 287.67 494.688C287.807 495.688 287.943 496.585 288.08 497.381C288.33 499.131 288.727 500.699 289.273 502.085C289.818 503.472 290.557 504.597 291.489 505.46C292.398 506.324 293.534 506.858 294.898 507.062C296.875 507.381 298.386 506.915 299.432 505.665C300.455 504.392 300.966 502.631 300.966 500.381ZM311.023 441.591C311.023 446.932 309.886 451.352 307.614 454.852C305.318 458.352 302.136 460.818 298.068 462.25C293.977 463.659 289.216 463.92 283.784 463.034C278.42 462.17 273.727 460.375 269.705 457.648C265.682 454.92 262.557 451.455 260.33 447.25C258.08 443.045 256.955 438.307 256.955 433.034C256.955 427.716 258.102 423.307 260.398 419.807C262.67 416.307 265.852 413.841 269.943 412.409C274.034 410.977 278.795 410.705 284.227 411.591C289.568 412.477 294.25 414.295 298.273 417.045C302.295 419.795 305.432 423.261 307.682 427.443C309.909 431.625 311.023 436.341 311.023 441.591ZM299.773 440.159C299.773 437.705 299.08 435.534 297.693 433.648C296.284 431.739 294.375 430.159 291.966 428.909C289.534 427.636 286.784 426.75 283.716 426.25C280.693 425.75 278.011 425.716 275.67 426.148C273.307 426.58 271.443 427.489 270.08 428.875C268.716 430.239 268.034 432.114 268.034 434.5C268.034 436.955 268.739 439.136 270.148 441.045C271.534 442.955 273.443 444.534 275.875 445.784C278.307 447.034 281.068 447.909 284.159 448.409C287.159 448.886 289.841 448.92 292.205 448.511C294.545 448.102 296.398 447.205 297.761 445.818C299.102 444.432 299.773 442.545 299.773 440.159ZM310.886 397.307C310.886 399.602 310.091 401.489 308.5 402.966C306.909 404.42 304.977 405.08 302.705 404.943C300.455 404.784 298.557 403.841 297.011 402.114C295.443 400.364 294.659 398.352 294.659 396.08C294.659 393.898 295.443 392.057 297.011 390.557C298.58 389.057 300.477 388.398 302.705 388.58C304.205 388.693 305.58 389.182 306.83 390.045C308.057 390.886 309.045 391.955 309.795 393.25C310.523 394.545 310.886 395.898 310.886 397.307ZM274.205 391.239C274.205 393.534 273.42 395.42 271.852 396.898C270.261 398.352 268.318 399 266.023 398.841C263.795 398.682 261.898 397.739 260.33 396.011C258.761 394.261 257.977 392.261 257.977 390.011C257.977 387.83 258.773 385.989 260.364 384.489C261.932 382.966 263.818 382.295 266.023 382.477C267.545 382.591 268.932 383.08 270.182 383.943C271.409 384.807 272.386 385.886 273.114 387.182C273.841 388.455 274.205 389.807 274.205 391.239ZM282.011 348.702C290.489 350.088 298.284 352.509 305.398 355.963C312.511 359.395 319.102 363.952 325.17 369.634V383.509C322.92 381.349 320.17 379.247 316.92 377.202C313.67 375.156 310.125 373.247 306.284 371.474C302.42 369.679 298.42 368.122 294.284 366.804C290.148 365.486 286.057 364.486 282.011 363.804C276.625 362.895 271.193 362.543 265.716 362.747C260.216 362.929 255.125 363.588 250.443 364.724C245.739 365.838 241.886 367.338 238.886 369.224V355.349C244.955 351.713 251.545 349.349 258.659 348.259C265.773 347.168 273.557 347.315 282.011 348.702Z" fill="#ECEFF3"/>
<path d="M229 280.369C185.369 280.369 150 244.999 150 201.369C150 157.738 185.369 122.369 229 122.369C272.63 122.369 308 157.738 308 201.369C308 244.999 272.63 280.369 229 280.369Z" stroke="#ECEFF3" stroke-width="2"/>
<path d="M173.501 120.838L171.008 122.824C170.611 122.472 170.191 122.214 169.749 122.051C169.303 121.883 168.849 121.801 168.388 121.806C167.926 121.81 167.469 121.902 167.016 122.081C166.564 122.252 166.129 122.504 165.712 122.837C164.969 123.428 164.46 124.139 164.185 124.969C163.905 125.794 163.888 126.694 164.134 127.668C164.376 128.638 164.906 129.636 165.723 130.662C166.555 131.707 167.418 132.457 168.313 132.914C169.208 133.363 170.085 133.544 170.944 133.455C171.805 133.358 172.603 133.016 173.341 132.428C173.75 132.103 174.09 131.745 174.36 131.355C174.632 130.957 174.825 130.538 174.939 130.098C175.058 129.655 175.091 129.2 175.039 128.733C174.991 128.263 174.846 127.797 174.603 127.337L177.107 125.364C177.53 126.088 177.813 126.858 177.955 127.674C178.102 128.487 178.099 129.31 177.949 130.142C177.794 130.969 177.481 131.771 177.009 132.546C176.534 133.317 175.889 134.027 175.076 134.675C173.876 135.631 172.584 136.206 171.199 136.401C169.815 136.596 168.433 136.385 167.056 135.768C165.678 135.151 164.405 134.11 163.237 132.643C162.065 131.172 161.336 129.697 161.051 128.217C160.762 126.732 160.868 125.337 161.367 124.031C161.867 122.725 162.712 121.598 163.903 120.649C164.663 120.044 165.455 119.588 166.278 119.28C167.101 118.973 167.933 118.823 168.773 118.829C169.61 118.831 170.43 118.998 171.233 119.332C172.038 119.658 172.793 120.16 173.501 120.838Z" fill="#ECEFF3"/>
<path d="M180.315 110.063L188.689 125.377L185.915 126.894L177.541 111.58L180.315 110.063Z" fill="#ECEFF3"/>
<path d="M196.011 121.734L192.817 122.824L192.995 104.32L196.689 103.06L208.15 117.591L204.956 118.681L196.063 107.056L195.934 107.1L196.011 121.734ZM193.905 115.221L202.617 112.248L203.437 114.652L194.726 117.625L193.905 115.221Z" fill="#ECEFF3"/>
<path d="M228.19 106.364C228.349 108.238 228.135 109.873 227.547 111.268C226.963 112.658 226.099 113.758 224.953 114.568C223.813 115.378 222.482 115.848 220.959 115.977C219.436 116.107 218.041 115.869 216.775 115.264C215.515 114.653 214.477 113.712 213.661 112.441C212.851 111.164 212.367 109.591 212.208 107.723C212.049 105.849 212.261 104.218 212.844 102.828C213.432 101.432 214.296 100.329 215.436 99.5196C216.582 98.7093 217.916 98.2395 219.439 98.1099C220.962 97.9804 222.354 98.2184 223.614 98.824C224.88 99.4291 225.918 100.37 226.728 101.647C227.543 102.918 228.031 104.49 228.19 106.364ZM225.023 106.633C224.91 105.314 224.609 104.219 224.119 103.349C223.634 102.472 223.009 101.832 222.245 101.43C221.48 101.021 220.625 100.857 219.68 100.938C218.734 101.018 217.919 101.324 217.235 101.856C216.549 102.382 216.039 103.118 215.703 104.064C215.373 105.005 215.263 106.135 215.376 107.454C215.488 108.773 215.786 109.871 216.272 110.748C216.762 111.618 217.389 112.258 218.154 112.666C218.918 113.069 219.773 113.23 220.718 113.149C221.664 113.069 222.479 112.766 223.164 112.24C223.849 111.708 224.357 110.972 224.687 110.032C225.023 109.085 225.135 107.952 225.023 106.633Z" fill="#ECEFF3"/>
<path d="M251.696 106.23L248.552 105.705C248.548 105.174 248.459 104.69 248.284 104.252C248.111 103.808 247.868 103.416 247.556 103.076C247.244 102.736 246.87 102.457 246.434 102.241C246.005 102.019 245.527 101.864 245 101.776C244.064 101.62 243.195 101.717 242.394 102.067C241.593 102.411 240.913 103 240.353 103.834C239.794 104.662 239.406 105.724 239.19 107.018C238.97 108.335 238.989 109.479 239.248 110.45C239.513 111.416 239.965 112.188 240.606 112.768C241.253 113.343 242.042 113.708 242.972 113.863C243.488 113.949 243.981 113.962 244.452 113.903C244.929 113.838 245.369 113.702 245.773 113.493C246.182 113.285 246.543 113.005 246.855 112.654C247.173 112.304 247.421 111.884 247.601 111.396L250.742 111.938C250.488 112.736 250.104 113.462 249.592 114.113C249.086 114.766 248.473 115.315 247.753 115.759C247.035 116.198 246.23 116.501 245.338 116.669C244.446 116.831 243.488 116.827 242.462 116.655C240.949 116.402 239.657 115.827 238.586 114.928C237.515 114.029 236.748 112.861 236.285 111.424C235.823 109.987 235.746 108.344 236.055 106.495C236.364 104.64 236.974 103.111 237.883 101.91C238.794 100.702 239.901 99.8473 241.206 99.3453C242.511 98.8432 243.915 98.7176 245.417 98.9685C246.375 99.1286 247.244 99.4119 248.023 99.8185C248.802 100.225 249.47 100.743 250.027 101.372C250.585 101.995 251.009 102.717 251.299 103.537C251.594 104.352 251.727 105.25 251.696 106.23Z" fill="#ECEFF3"/>
<path d="M264.685 104.237L258.799 120.669L255.823 119.603L261.708 103.171L264.685 104.237Z" fill="#ECEFF3"/>
<path d="M266.09 123.549L263.147 121.897L277.049 109.684L280.452 111.595L277.275 129.828L274.332 128.176L277.058 113.795L276.939 113.728L266.09 123.549ZM269.536 117.636L277.563 122.141L276.32 124.356L268.293 119.85L269.536 117.636Z" fill="#ECEFF3"/>
<path d="M299.255 137.419C297.964 138.787 296.603 139.716 295.17 140.208C293.745 140.7 292.349 140.789 290.982 140.475C289.618 140.165 288.38 139.485 287.269 138.436C286.157 137.387 285.405 136.189 285.012 134.842C284.627 133.495 284.636 132.094 285.04 130.639C285.452 129.184 286.301 127.775 287.588 126.411C288.879 125.043 290.236 124.114 291.661 123.622C293.094 123.13 294.492 123.039 295.855 123.349C297.223 123.663 298.463 124.345 299.574 125.394C300.686 126.442 301.436 127.638 301.825 128.982C302.218 130.329 302.209 131.73 301.797 133.185C301.393 134.639 300.546 136.051 299.255 137.419ZM296.943 135.237C297.851 134.274 298.466 133.32 298.789 132.374C299.119 131.428 299.179 130.536 298.97 129.698C298.765 128.856 298.317 128.109 297.627 127.458C296.937 126.807 296.165 126.403 295.313 126.247C294.464 126.087 293.575 126.197 292.645 126.578C291.724 126.958 290.809 127.63 289.9 128.593C288.992 129.556 288.373 130.51 288.042 131.456C287.72 132.402 287.662 133.296 287.867 134.138C288.076 134.976 288.526 135.721 289.216 136.372C289.906 137.023 290.676 137.429 291.525 137.589C292.377 137.745 293.264 137.633 294.186 137.253C295.115 136.872 296.034 136.2 296.943 135.237Z" fill="#ECEFF3"/>
<path d="M229.273 122C272.903 122 308.273 157.369 308.273 201C308.273 244.63 272.903 280 229.273 280C185.642 280 150.273 244.63 150.273 201C150.273 157.369 185.642 122 229.273 122Z" stroke="#ECEFF3" stroke-width="2"/>
<path d="M284.772 281.531L287.265 279.545C287.662 279.897 288.082 280.155 288.524 280.318C288.97 280.486 289.424 280.567 289.885 280.563C290.347 280.559 290.804 280.467 291.257 280.288C291.709 280.117 292.144 279.865 292.561 279.532C293.303 278.941 293.813 278.23 294.088 277.4C294.368 276.574 294.385 275.675 294.139 274.701C293.897 273.731 293.367 272.733 292.55 271.707C291.718 270.662 290.855 269.912 289.96 269.455C289.065 269.005 288.188 268.825 287.328 268.914C286.468 269.011 285.67 269.353 284.932 269.941C284.523 270.266 284.183 270.624 283.913 271.014C283.641 271.412 283.448 271.831 283.334 272.271C283.215 272.714 283.181 273.169 283.234 273.636C283.282 274.106 283.427 274.572 283.67 275.032L281.166 277.004C280.743 276.281 280.46 275.511 280.318 274.695C280.171 273.882 280.174 273.059 280.324 272.227C280.479 271.399 280.792 270.598 281.264 269.822C281.739 269.051 282.384 268.342 283.197 267.694C284.397 266.738 285.689 266.163 287.074 265.968C288.458 265.773 289.84 265.984 291.217 266.601C292.595 267.218 293.868 268.259 295.036 269.726C296.208 271.197 296.936 272.672 297.222 274.152C297.511 275.636 297.405 277.032 296.906 278.338C296.406 279.644 295.561 280.771 294.37 281.72C293.61 282.325 292.818 282.781 291.995 283.088C291.172 283.396 290.34 283.546 289.5 283.54C288.663 283.538 287.843 283.37 287.04 283.037C286.235 282.711 285.48 282.209 284.772 281.531Z" fill="#ECEFF3"/>
<path d="M277.958 292.306L269.584 276.992L272.358 275.475L280.732 290.789L277.958 292.306Z" fill="#ECEFF3"/>
<path d="M262.262 280.635L265.456 279.545L265.278 298.048L261.584 299.309L250.123 284.778L253.317 283.688L262.21 295.313L262.339 295.269L262.262 280.635ZM264.368 287.148L255.656 290.121L254.836 287.717L263.547 284.744L264.368 287.148Z" fill="#ECEFF3"/>
<path d="M230.083 296.005C229.923 294.131 230.138 292.496 230.726 291.1C231.31 289.711 232.174 288.611 233.32 287.801C234.46 286.991 235.791 286.521 237.314 286.392C238.837 286.262 240.231 286.5 241.498 287.105C242.758 287.716 243.796 288.657 244.612 289.928C245.422 291.205 245.906 292.777 246.065 294.646C246.224 296.52 246.012 298.151 245.429 299.541C244.841 300.937 243.977 302.04 242.837 302.849C241.691 303.66 240.357 304.129 238.834 304.259C237.311 304.389 235.919 304.15 234.659 303.545C233.393 302.94 232.355 301.999 231.545 300.722C230.73 299.451 230.242 297.879 230.083 296.005ZM233.25 295.736C233.363 297.055 233.664 298.15 234.154 299.02C234.639 299.897 235.264 300.537 236.028 300.939C236.793 301.348 237.648 301.512 238.593 301.431C239.539 301.351 240.354 301.045 241.038 300.513C241.724 299.987 242.234 299.251 242.57 298.304C242.9 297.364 243.01 296.234 242.897 294.915C242.785 293.596 242.487 292.498 242.001 291.621C241.511 290.751 240.884 290.111 240.119 289.703C239.355 289.3 238.5 289.139 237.555 289.22C236.609 289.3 235.794 289.603 235.109 290.129C234.424 290.66 233.916 291.396 233.586 292.337C233.25 293.284 233.138 294.416 233.25 295.736Z" fill="#ECEFF3"/>
<path d="M206.577 296.139L209.721 296.664C209.725 297.195 209.814 297.679 209.988 298.117C210.162 298.561 210.405 298.953 210.717 299.293C211.028 299.633 211.402 299.912 211.839 300.128C212.268 300.35 212.746 300.505 213.273 300.593C214.209 300.749 215.078 300.652 215.879 300.302C216.68 299.958 217.36 299.369 217.92 298.535C218.479 297.706 218.867 296.645 219.083 295.35C219.303 294.033 219.284 292.89 219.025 291.919C218.76 290.953 218.308 290.18 217.667 289.601C217.02 289.026 216.231 288.661 215.301 288.506C214.785 288.42 214.292 288.407 213.821 288.466C213.344 288.53 212.903 288.667 212.5 288.876C212.091 289.084 211.73 289.364 211.418 289.715C211.1 290.065 210.852 290.485 210.672 290.973L207.531 290.431C207.785 289.632 208.169 288.907 208.681 288.255C209.187 287.603 209.8 287.054 210.52 286.61C211.238 286.171 212.043 285.868 212.935 285.7C213.827 285.538 214.785 285.542 215.811 285.714C217.324 285.966 218.616 286.542 219.687 287.441C220.758 288.34 221.525 289.508 221.988 290.945C222.45 292.382 222.527 294.025 222.218 295.874C221.908 297.729 221.299 299.258 220.39 300.459C219.479 301.667 218.372 302.522 217.067 303.024C215.761 303.526 214.358 303.651 212.856 303.4C211.898 303.24 211.029 302.957 210.25 302.55C209.471 302.144 208.803 301.626 208.246 300.997C207.687 300.374 207.264 299.652 206.974 298.832C206.679 298.016 206.546 297.119 206.577 296.139Z" fill="#ECEFF3"/>
<path d="M193.588 298.132L199.474 281.7L202.45 282.766L196.565 299.198L193.588 298.132Z" fill="#ECEFF3"/>
<path d="M192.183 278.819L195.126 280.471L181.224 292.684L177.82 290.774L180.998 272.541L183.941 274.193L181.215 288.574L181.334 288.641L192.183 278.819ZM188.737 284.733L180.71 280.228L181.953 278.013L189.98 282.518L188.737 284.733Z" fill="#ECEFF3"/>
<path d="M159.018 264.95C160.309 263.582 161.67 262.652 163.103 262.161C164.528 261.669 165.924 261.58 167.291 261.894C168.655 262.204 169.893 262.884 171.004 263.933C172.116 264.981 172.868 266.179 173.261 267.527C173.646 268.874 173.636 270.275 173.233 271.73C172.821 273.184 171.971 274.594 170.685 275.958C169.394 277.326 168.036 278.255 166.612 278.747C165.179 279.239 163.781 279.33 162.418 279.02C161.05 278.706 159.81 278.024 158.698 276.975C157.587 275.927 156.837 274.73 156.448 273.387C156.055 272.04 156.064 270.639 156.476 269.184C156.88 267.729 157.727 266.318 159.018 264.95ZM161.33 267.132C160.422 268.095 159.806 269.049 159.484 269.995C159.154 270.941 159.094 271.833 159.303 272.671C159.508 273.513 159.956 274.26 160.646 274.911C161.336 275.562 162.108 275.966 162.96 276.122C163.809 276.282 164.698 276.172 165.628 275.791C166.549 275.411 167.464 274.739 168.372 273.776C169.281 272.813 169.9 271.859 170.231 270.913C170.553 269.967 170.611 269.073 170.406 268.231C170.197 267.393 169.747 266.648 169.057 265.997C168.366 265.346 167.597 264.94 166.748 264.78C165.896 264.624 165.009 264.736 164.087 265.116C163.158 265.497 162.239 266.169 161.33 267.132Z" fill="#ECEFF3"/>
<line x1="230" y1="168" x2="230" y2="234" stroke="#ECEFF3" stroke-width="2"/>
<path d="M230 176C238 168 259.8 155.6 283 170V213C271.667 210.5 245.2 210.1 230 228.5" stroke="#ECEFF3" stroke-width="2"/>
<path d="M230 175.792C222.151 167.685 200.762 155.117 178 169.711V213.291C189.119 210.757 215.087 210.352 230 229" stroke="#ECEFF3" stroke-width="2"/>
<path d="M230 169.792C237.396 161.685 257.551 149.117 279 163.711V207.291C268.522 204.757 244.053 204.352 230 223" stroke="#ECEFF3" stroke-width="2"/>
<path d="M230 169.792C222.755 161.685 203.011 149.117 182 163.711V207.291C192.264 204.757 216.234 204.352 230 223" stroke="#ECEFF3" stroke-width="2"/>
<line x1="158" y1="234" x2="301" y2="234" stroke="#ECEFF3" stroke-width="2"/>
<rect width="83" height="126" transform="translate(169 149)" fill="white"/>
<rect width="69" height="61" transform="translate(196 267)" fill="white"/>
<rect width="79" height="86" transform="translate(212 154)" fill="white"/>
<rect width="19.391" height="51.4585" transform="translate(181.192 335.073) rotate(29.3116)" fill="white"/>
<rect width="19.391" height="51.4585" transform="translate(183.192 322) rotate(29.3116)" fill="white"/>
</svg>
