<svg width="513" height="380" viewBox="0 0 513 380" fill="none" xmlns="http://www.w3.org/2000/svg">
<path d="M7.28 92.32V178H28.16V125.08H28.4L43.28 178H67.76V92.32H46.88V145.12H46.64L32.24 92.32H7.28ZM108.896 134.56V137.44H97.0156V134.56C97.0156 131.12 97.4156 128.6 98.2156 127C99.0956 125.4 100.656 124.6 102.896 124.6C105.216 124.6 106.776 125.4 107.576 127C108.456 128.6 108.896 131.12 108.896 134.56ZM97.0156 149.2H129.056V142.6C129.056 136.68 128.496 131.76 127.376 127.84C126.336 123.84 124.696 120.64 122.456 118.24C120.296 115.76 117.576 114 114.296 112.96C111.096 111.92 107.336 111.4 103.016 111.4C98.1356 111.4 93.9356 112.04 90.4156 113.32C86.9756 114.52 84.1356 116.48 81.8956 119.2C79.6556 121.92 78.0156 125.44 76.9756 129.76C75.9356 134.08 75.4156 139.36 75.4156 145.6C75.4156 151.76 75.8556 157 76.7356 161.32C77.6956 165.64 79.2556 169.16 81.4156 171.88C83.5756 174.52 86.4156 176.44 89.9356 177.64C93.4556 178.76 97.8156 179.32 103.016 179.32C111.976 179.32 118.416 177.32 122.336 173.32C126.256 169.24 128.296 163.2 128.456 155.2H109.016C109.016 159.6 108.456 162.6 107.336 164.2C106.296 165.72 104.816 166.48 102.896 166.48C101.376 166.48 100.016 165.92 98.8156 164.8C97.6156 163.6 97.0156 161.24 97.0156 157.72V149.2ZM130.789 113.08L143.989 178H168.469L175.069 132.04H175.309L181.909 178H206.389L219.589 113.08H198.709L193.309 159.76H193.069L186.709 113.08H163.669L157.309 159.76H157.069L151.669 113.08H130.789ZM279.109 161.92V141.04H285.349C287.429 141.04 289.269 141.92 290.869 143.68C292.469 145.44 293.269 148 293.269 151.36C293.269 154.96 292.469 157.64 290.869 159.4C289.269 161.08 287.429 161.92 285.349 161.92H279.109ZM279.109 125.92V108.4H284.509C286.829 108.4 288.589 109.28 289.789 111.04C290.989 112.8 291.589 114.88 291.589 117.28C291.589 119.6 290.989 121.64 289.789 123.4C288.589 125.08 286.829 125.92 284.509 125.92H279.109ZM256.789 92.32V178H290.509C295.149 178 299.109 177.4 302.389 176.2C305.669 174.92 308.309 173.16 310.309 170.92C312.389 168.68 313.909 166 314.869 162.88C315.829 159.76 316.309 156.36 316.309 152.68C316.309 150.44 315.989 148.24 315.349 146.08C314.789 143.84 313.869 141.8 312.589 139.96C311.309 138.12 309.669 136.6 307.669 135.4C305.669 134.12 303.269 133.36 300.469 133.12V132.88C302.869 132.4 304.909 131.56 306.589 130.36C308.269 129.16 309.629 127.72 310.669 126.04C311.789 124.28 312.589 122.36 313.069 120.28C313.629 118.12 313.909 115.92 313.909 113.68C313.909 107.2 311.989 102.04 308.149 98.2C304.389 94.28 298.509 92.32 290.509 92.32H256.789ZM343.695 145.6C343.695 141.52 343.775 138.16 343.935 135.52C344.095 132.88 344.415 130.8 344.895 129.28C345.375 127.76 345.975 126.72 346.695 126.16C347.495 125.6 348.495 125.32 349.695 125.32C350.895 125.32 351.895 125.6 352.695 126.16C353.495 126.72 354.095 127.76 354.495 129.28C354.975 130.8 355.295 132.88 355.455 135.52C355.615 138.16 355.695 141.52 355.695 145.6C355.695 149.68 355.615 153.04 355.455 155.68C355.295 158.24 354.975 160.28 354.495 161.8C354.095 163.32 353.495 164.36 352.695 164.92C351.895 165.48 350.895 165.76 349.695 165.76C348.495 165.76 347.495 165.48 346.695 164.92C345.975 164.36 345.375 163.32 344.895 161.8C344.415 160.28 344.095 158.24 343.935 155.68C343.775 153.04 343.695 149.68 343.695 145.6ZM377.295 145.6C377.295 140.88 377.015 136.48 376.455 132.4C375.975 128.24 374.815 124.6 372.975 121.48C371.135 118.36 368.375 115.92 364.695 114.16C361.015 112.32 356.015 111.4 349.695 111.4C343.615 111.4 338.735 112.4 335.055 114.4C331.455 116.32 328.695 118.88 326.775 122.08C324.855 125.28 323.575 128.92 322.935 133C322.375 137.08 322.095 141.24 322.095 145.48C322.095 150.2 322.335 154.64 322.815 158.8C323.375 162.88 324.575 166.48 326.415 169.6C328.255 172.64 331.015 175.04 334.695 176.8C338.375 178.48 343.375 179.32 349.695 179.32C355.775 179.32 360.615 178.4 364.215 176.56C367.895 174.64 370.695 172.12 372.615 169C374.535 165.8 375.775 162.16 376.335 158.08C376.975 154 377.295 149.84 377.295 145.6ZM403.695 145.6C403.695 141.52 403.775 138.16 403.935 135.52C404.095 132.88 404.415 130.8 404.895 129.28C405.375 127.76 405.975 126.72 406.695 126.16C407.495 125.6 408.495 125.32 409.695 125.32C410.895 125.32 411.895 125.6 412.695 126.16C413.495 126.72 414.095 127.76 414.495 129.28C414.975 130.8 415.295 132.88 415.455 135.52C415.615 138.16 415.695 141.52 415.695 145.6C415.695 149.68 415.615 153.04 415.455 155.68C415.295 158.24 414.975 160.28 414.495 161.8C414.095 163.32 413.495 164.36 412.695 164.92C411.895 165.48 410.895 165.76 409.695 165.76C408.495 165.76 407.495 165.48 406.695 164.92C405.975 164.36 405.375 163.32 404.895 161.8C404.415 160.28 404.095 158.24 403.935 155.68C403.775 153.04 403.695 149.68 403.695 145.6ZM437.295 145.6C437.295 140.88 437.015 136.48 436.455 132.4C435.975 128.24 434.815 124.6 432.975 121.48C431.135 118.36 428.375 115.92 424.695 114.16C421.015 112.32 416.015 111.4 409.695 111.4C403.615 111.4 398.735 112.4 395.055 114.4C391.455 116.32 388.695 118.88 386.775 122.08C384.855 125.28 383.575 128.92 382.935 133C382.375 137.08 382.095 141.24 382.095 145.48C382.095 150.2 382.335 154.64 382.815 158.8C383.375 162.88 384.575 166.48 386.415 169.6C388.255 172.64 391.015 175.04 394.695 176.8C398.375 178.48 403.375 179.32 409.695 179.32C415.775 179.32 420.615 178.4 424.215 176.56C427.895 174.64 430.695 172.12 432.615 169C434.535 165.8 435.775 162.16 436.335 158.08C436.975 154 437.295 149.84 437.295 145.6ZM443.415 92.32V178H465.015V161.32L468.615 155.68L479.535 178H502.575L482.295 139.84L500.295 113.08H477.255L465.255 135.52H465.015V92.32H443.415Z" fill="#404040"/>
<path d="M4.728 16.732V61H16.26V42.772H23.328V61H34.86V16.732H23.328V32.976H16.26V16.732H4.728ZM56.1396 38.556V40.044H50.0016V38.556C50.0016 36.7787 50.2082 35.4767 50.6216 34.65C51.0762 33.8233 51.8822 33.41 53.0396 33.41C54.2382 33.41 55.0442 33.8233 55.4576 34.65C55.9122 35.4767 56.1396 36.7787 56.1396 38.556ZM50.0016 46.12H66.5556V42.71C66.5556 39.6513 66.2662 37.1093 65.6876 35.084C65.1502 33.0173 64.3029 31.364 63.1456 30.124C62.0296 28.8427 60.6242 27.9333 58.9296 27.396C57.2762 26.8587 55.3336 26.59 53.1016 26.59C50.5802 26.59 48.4102 26.9207 46.5916 27.582C44.8142 28.202 43.3469 29.2147 42.1896 30.62C41.0322 32.0253 40.1849 33.844 39.6476 36.076C39.1102 38.308 38.8416 41.036 38.8416 44.26C38.8416 47.4427 39.0689 50.15 39.5236 52.382C40.0196 54.614 40.8256 56.4327 41.9416 57.838C43.0576 59.202 44.5249 60.194 46.3436 60.814C48.1622 61.3927 50.4149 61.682 53.1016 61.682C57.7309 61.682 61.0582 60.6487 63.0836 58.582C65.1089 56.474 66.1629 53.3533 66.2456 49.22H56.2016C56.2016 51.4933 55.9122 53.0433 55.3336 53.87C54.7962 54.6553 54.0316 55.048 53.0396 55.048C52.2542 55.048 51.5516 54.7587 50.9316 54.18C50.3116 53.56 50.0016 52.3407 50.0016 50.522V46.12ZM69.3732 27.458V61H80.5332V42.71C80.5332 40.478 81.0705 38.928 82.1452 38.06C83.2612 37.192 84.8112 36.758 86.7952 36.758C87.2498 36.758 87.7045 36.7787 88.1592 36.82C88.6138 36.8613 89.0892 36.9233 89.5852 37.006V26.59H87.7872C86.1338 26.59 84.6252 27.1273 83.2612 28.202C81.8972 29.2353 80.9052 30.7647 80.2852 32.79H80.1612V27.458H69.3732ZM107.786 38.556V40.044H101.648V38.556C101.648 36.7787 101.855 35.4767 102.268 34.65C102.723 33.8233 103.529 33.41 104.686 33.41C105.885 33.41 106.691 33.8233 107.104 34.65C107.559 35.4767 107.786 36.7787 107.786 38.556ZM101.648 46.12H118.202V42.71C118.202 39.6513 117.913 37.1093 117.334 35.084C116.797 33.0173 115.949 31.364 114.792 30.124C113.676 28.8427 112.271 27.9333 110.576 27.396C108.923 26.8587 106.98 26.59 104.748 26.59C102.227 26.59 100.057 26.9207 98.238 27.582C96.4607 28.202 94.9934 29.2147 93.836 30.62C92.6787 32.0253 91.8314 33.844 91.294 36.076C90.7567 38.308 90.488 41.036 90.488 44.26C90.488 47.4427 90.7154 50.15 91.17 52.382C91.666 54.614 92.472 56.4327 93.588 57.838C94.704 59.202 96.1714 60.194 97.99 60.814C99.8087 61.3927 102.061 61.682 104.748 61.682C109.377 61.682 112.705 60.6487 114.73 58.582C116.755 56.474 117.809 53.3533 117.892 49.22H107.848C107.848 51.4933 107.559 53.0433 106.98 53.87C106.443 54.6553 105.678 55.048 104.686 55.048C103.901 55.048 103.198 54.7587 102.578 54.18C101.958 53.56 101.648 52.3407 101.648 50.522V46.12Z" fill="#3C78E4"/>
<path d="M138.303 63.666V71.478C139.254 71.5607 140.225 71.6227 141.217 71.664C142.25 71.7053 143.366 71.726 144.565 71.726C146.053 71.726 147.376 71.5813 148.533 71.292C149.69 71.0027 150.703 70.486 151.571 69.742C152.48 68.998 153.245 67.9853 153.865 66.704C154.526 65.464 155.105 63.8727 155.601 61.93L164.591 27.458H153.431L150.207 50.088H150.083L146.673 27.458H135.203L144.007 59.078C144.131 59.5327 144.234 59.9667 144.317 60.38C144.441 60.7933 144.503 61.124 144.503 61.372C144.503 61.5373 144.441 61.7647 144.317 62.054C144.193 62.3433 143.986 62.612 143.697 62.86C143.408 63.1493 143.015 63.3973 142.519 63.604C142.064 63.8107 141.486 63.914 140.783 63.914C140.37 63.914 139.956 63.8933 139.543 63.852C139.13 63.8107 138.716 63.7487 138.303 63.666ZM176.302 44.26C176.302 42.152 176.344 40.416 176.426 39.052C176.509 37.688 176.674 36.6133 176.922 35.828C177.17 35.0427 177.48 34.5053 177.852 34.216C178.266 33.9267 178.782 33.782 179.402 33.782C180.022 33.782 180.539 33.9267 180.952 34.216C181.366 34.5053 181.676 35.0427 181.882 35.828C182.13 36.6133 182.296 37.688 182.378 39.052C182.461 40.416 182.502 42.152 182.502 44.26C182.502 46.368 182.461 48.104 182.378 49.468C182.296 50.7907 182.13 51.8447 181.882 52.63C181.676 53.4153 181.366 53.9527 180.952 54.242C180.539 54.5313 180.022 54.676 179.402 54.676C178.782 54.676 178.266 54.5313 177.852 54.242C177.48 53.9527 177.17 53.4153 176.922 52.63C176.674 51.8447 176.509 50.7907 176.426 49.468C176.344 48.104 176.302 46.368 176.302 44.26ZM193.662 44.26C193.662 41.8213 193.518 39.548 193.228 37.44C192.98 35.2907 192.381 33.41 191.43 31.798C190.48 30.186 189.054 28.9253 187.152 28.016C185.251 27.0653 182.668 26.59 179.402 26.59C176.261 26.59 173.74 27.1067 171.838 28.14C169.978 29.132 168.552 30.4547 167.56 32.108C166.568 33.7613 165.907 35.642 165.576 37.75C165.287 39.858 165.142 42.0073 165.142 44.198C165.142 46.6367 165.266 48.9307 165.514 51.08C165.804 53.188 166.424 55.048 167.374 56.66C168.325 58.2307 169.751 59.4707 171.652 60.38C173.554 61.248 176.137 61.682 179.402 61.682C182.544 61.682 185.044 61.2067 186.904 60.256C188.806 59.264 190.252 57.962 191.244 56.35C192.236 54.6967 192.877 52.816 193.166 50.708C193.497 48.6 193.662 46.4507 193.662 44.26ZM197.134 27.458V52.754C197.134 54.5313 197.362 56.0193 197.816 57.218C198.271 58.3753 198.891 59.3053 199.676 60.008C200.462 60.6693 201.371 61.1033 202.404 61.31C203.479 61.558 204.636 61.682 205.876 61.682C209.886 61.682 212.593 60.0907 213.998 56.908H214.122V61H224.91V27.458H213.75V49.592C213.75 50.9973 213.544 52.01 213.13 52.63C212.717 53.25 212.014 53.56 211.022 53.56C210.03 53.56 209.328 53.25 208.914 52.63C208.501 52.01 208.294 50.9973 208.294 49.592V27.458H197.134ZM262.129 40.602H272.173C272.173 38.494 271.966 36.5927 271.553 34.898C271.181 33.162 270.499 31.6947 269.507 30.496C268.556 29.256 267.254 28.3053 265.601 27.644C263.989 26.9413 261.943 26.59 259.463 26.59C257.355 26.59 255.391 26.7967 253.573 27.21C251.754 27.6233 250.163 28.4707 248.799 29.752C247.476 31.0333 246.422 32.8727 245.637 35.27C244.851 37.6673 244.459 40.85 244.459 44.818C244.459 48.4553 244.81 51.39 245.513 53.622C246.215 55.8127 247.187 57.528 248.427 58.768C249.708 59.9667 251.237 60.752 253.015 61.124C254.792 61.496 256.755 61.682 258.905 61.682C263.658 61.682 267.089 60.566 269.197 58.334C270.271 57.1353 271.036 55.606 271.491 53.746C271.945 51.886 272.173 49.6333 272.173 46.988H262.129V49.158C262.129 51.266 261.839 52.7127 261.261 53.498C260.723 54.2833 259.938 54.676 258.905 54.676C258.285 54.676 257.747 54.5313 257.293 54.242C256.879 53.9113 256.549 53.3533 256.301 52.568C256.053 51.7827 255.867 50.7287 255.743 49.406C255.66 48.042 255.619 46.3267 255.619 44.26C255.619 42.1933 255.66 40.4987 255.743 39.176C255.867 37.812 256.053 36.7373 256.301 35.952C256.549 35.1253 256.879 34.5673 257.293 34.278C257.747 33.9473 258.285 33.782 258.905 33.782C260.103 33.782 260.93 34.2573 261.385 35.208C261.633 35.7453 261.819 36.448 261.943 37.316C262.067 38.1427 262.129 39.238 262.129 40.602ZM287.452 54.366C286.626 54.366 285.964 54.0353 285.468 53.374C284.972 52.7127 284.724 51.824 284.724 50.708C284.724 49.592 284.89 48.7033 285.22 48.042C285.551 47.3393 286.15 46.7813 287.018 46.368C287.845 45.996 288.589 45.7687 289.25 45.686C289.953 45.562 290.47 45.2727 290.8 44.818H290.924V48.848C290.924 50.708 290.656 52.0927 290.118 53.002C289.581 53.9113 288.692 54.366 287.452 54.366ZM291.606 61H302.394C301.94 60.132 301.65 59.0987 301.526 57.9C301.402 56.7013 301.34 55.3167 301.34 53.746V37.378C301.34 35.1873 301.01 33.41 300.348 32.046C299.728 30.6407 298.819 29.5453 297.62 28.76C296.463 27.9333 295.058 27.3753 293.404 27.086C291.792 26.7553 290.015 26.59 288.072 26.59C286.791 26.59 285.406 26.7347 283.918 27.024C282.43 27.272 281.046 27.8093 279.764 28.636C278.483 29.4213 277.408 30.558 276.54 32.046C275.672 33.4927 275.238 35.4353 275.238 37.874H284.91C284.952 36.0967 285.22 34.9187 285.716 34.34C286.212 33.72 286.998 33.41 288.072 33.41C289.974 33.41 290.924 34.4433 290.924 36.51C290.924 37.5433 290.676 38.3493 290.18 38.928C289.684 39.4653 288.837 39.8787 287.638 40.168L283.236 41.222C281.459 41.6353 279.971 42.152 278.772 42.772C277.574 43.3507 276.623 44.074 275.92 44.942C275.218 45.7687 274.701 46.7607 274.37 47.918C274.081 49.0753 273.936 50.4393 273.936 52.01C273.936 53.4567 274.102 54.7793 274.432 55.978C274.763 57.1767 275.3 58.21 276.044 59.078C276.788 59.946 277.739 60.5867 278.896 61C280.095 61.4547 281.542 61.682 283.236 61.682C284.972 61.682 286.502 61.31 287.824 60.566C289.188 59.822 290.18 58.706 290.8 57.218H290.924C291.007 57.9207 291.09 58.582 291.172 59.202C291.255 59.822 291.4 60.4213 291.606 61ZM306.3 27.458V61H317.46V38.866C317.46 37.4607 317.667 36.448 318.08 35.828C318.494 35.208 319.196 34.898 320.188 34.898C321.18 34.898 321.883 35.208 322.296 35.828C322.71 36.448 322.916 37.4607 322.916 38.866V61H334.076V35.704C334.076 33.8853 333.849 32.3973 333.394 31.24C332.94 30.0827 332.32 29.1527 331.534 28.45C330.749 27.7473 329.819 27.272 328.744 27.024C327.711 26.7347 326.574 26.59 325.334 26.59C321.366 26.59 318.659 28.2433 317.212 31.55H317.088V27.458H306.3ZM356.229 34.96V61H367.389V34.96H371.915V27.458H367.389V25.412C367.389 24.5853 367.657 23.986 368.195 23.614C368.732 23.242 369.352 23.056 370.055 23.056C370.468 23.056 370.799 23.0767 371.047 23.118C371.336 23.118 371.625 23.1593 371.915 23.242V16.236C371.047 16.112 370.137 16.0293 369.187 15.988C368.277 15.9053 367.409 15.864 366.583 15.864C364.64 15.864 363.007 16.0293 361.685 16.36C360.362 16.6907 359.287 17.228 358.461 17.972C357.675 18.6747 357.097 19.6047 356.725 20.762C356.394 21.9193 356.229 23.3453 356.229 25.04V27.458H352.385V34.96H356.229ZM373.279 16.732V25.04H384.439V16.732H373.279ZM373.279 27.458V61H384.439V27.458H373.279ZM389.068 27.458V61H400.228V38.866C400.228 37.4607 400.435 36.448 400.848 35.828C401.261 35.208 401.964 34.898 402.956 34.898C403.948 34.898 404.651 35.208 405.064 35.828C405.477 36.448 405.684 37.4607 405.684 38.866V61H416.844V35.704C416.844 33.8853 416.617 32.3973 416.162 31.24C415.707 30.0827 415.087 29.1527 414.302 28.45C413.517 27.7473 412.587 27.272 411.512 27.024C410.479 26.7347 409.342 26.59 408.102 26.59C404.134 26.59 401.427 28.2433 399.98 31.55H399.856V27.458H389.068ZM431.447 44.26C431.447 42.4413 431.488 40.9327 431.571 39.734C431.654 38.5353 431.798 37.5847 432.005 36.882C432.253 36.138 432.584 35.6213 432.997 35.332C433.41 35.0427 433.948 34.898 434.609 34.898C435.229 34.898 435.746 35.0427 436.159 35.332C436.572 35.6213 436.882 36.138 437.089 36.882C437.337 37.5847 437.502 38.5353 437.585 39.734C437.668 40.9327 437.709 42.4413 437.709 44.26C437.709 46.0373 437.668 47.5253 437.585 48.724C437.502 49.9227 437.337 50.894 437.089 51.638C436.882 52.3407 436.572 52.8367 436.159 53.126C435.746 53.4153 435.229 53.56 434.609 53.56C433.948 53.56 433.41 53.4153 432.997 53.126C432.584 52.8367 432.253 52.3407 432.005 51.638C431.798 50.894 431.654 49.9227 431.571 48.724C431.488 47.5253 431.447 46.0373 431.447 44.26ZM437.709 16.732V31.24H437.585C437.006 29.504 436.076 28.3053 434.795 27.644C433.555 26.9413 432.15 26.59 430.579 26.59C429.05 26.59 427.644 26.8793 426.363 27.458C425.082 28.0367 423.986 28.9873 423.077 30.31C422.209 31.6327 421.527 33.3687 421.031 35.518C420.535 37.6673 420.287 40.3333 420.287 43.516C420.287 49.7573 421.031 54.3453 422.519 57.28C424.007 60.2147 426.611 61.682 430.331 61.682C432.315 61.682 433.906 61.2687 435.105 60.442C436.304 59.6153 437.254 58.272 437.957 56.412H438.081V61H448.869V16.732H437.709ZM481.747 54.366C480.921 54.366 480.259 54.0353 479.763 53.374C479.267 52.7127 479.019 51.824 479.019 50.708C479.019 49.592 479.185 48.7033 479.515 48.042C479.846 47.3393 480.445 46.7813 481.313 46.368C482.14 45.996 482.884 45.7687 483.545 45.686C484.248 45.562 484.765 45.2727 485.095 44.818H485.219V48.848C485.219 50.708 484.951 52.0927 484.413 53.002C483.876 53.9113 482.987 54.366 481.747 54.366ZM485.901 61H496.689C496.235 60.132 495.945 59.0987 495.821 57.9C495.697 56.7013 495.635 55.3167 495.635 53.746V37.378C495.635 35.1873 495.305 33.41 494.643 32.046C494.023 30.6407 493.114 29.5453 491.915 28.76C490.758 27.9333 489.353 27.3753 487.699 27.086C486.087 26.7553 484.31 26.59 482.367 26.59C481.086 26.59 479.701 26.7347 478.213 27.024C476.725 27.272 475.341 27.8093 474.059 28.636C472.778 29.4213 471.703 30.558 470.835 32.046C469.967 33.4927 469.533 35.4353 469.533 37.874H479.205C479.247 36.0967 479.515 34.9187 480.011 34.34C480.507 33.72 481.293 33.41 482.367 33.41C484.269 33.41 485.219 34.4433 485.219 36.51C485.219 37.5433 484.971 38.3493 484.475 38.928C483.979 39.4653 483.132 39.8787 481.933 40.168L477.531 41.222C475.754 41.6353 474.266 42.152 473.067 42.772C471.869 43.3507 470.918 44.074 470.215 44.942C469.513 45.7687 468.996 46.7607 468.665 47.918C468.376 49.0753 468.231 50.4393 468.231 52.01C468.231 53.4567 468.397 54.7793 468.727 55.978C469.058 57.1767 469.595 58.21 470.339 59.078C471.083 59.946 472.034 60.5867 473.191 61C474.39 61.4547 475.837 61.682 477.531 61.682C479.267 61.682 480.797 61.31 482.119 60.566C483.483 59.822 484.475 58.706 485.095 57.218H485.219C485.302 57.9207 485.385 58.582 485.467 59.202C485.55 59.822 485.695 60.4213 485.901 61Z" fill="#404040"/>
<path d="M46.32 249.12L38.16 297.6H54.8L46.64 249.12H46.32ZM65.2 225.76L93.04 340H61.36L58.32 320H34.64L31.6 340H0.4L27.76 225.76H65.2Z" fill="#404040"/>
<path d="M136.816 216.304V262H147.952V233.776H148.08L156.016 262H169.072V216.304H157.936V244.464H157.808L150.128 216.304H136.816ZM191.011 238.832V240.368H184.675V238.832C184.675 236.997 184.888 235.653 185.315 234.8C185.784 233.947 186.616 233.52 187.811 233.52C189.048 233.52 189.88 233.947 190.307 234.8C190.776 235.653 191.011 236.997 191.011 238.832ZM184.675 246.64H201.763V243.12C201.763 239.963 201.464 237.339 200.867 235.248C200.312 233.115 199.438 231.408 198.243 230.128C197.091 228.805 195.64 227.867 193.891 227.312C192.184 226.757 190.179 226.48 187.875 226.48C185.272 226.48 183.032 226.821 181.155 227.504C179.32 228.144 177.806 229.189 176.611 230.64C175.416 232.091 174.542 233.968 173.987 236.272C173.432 238.576 173.155 241.392 173.155 244.72C173.155 248.005 173.39 250.8 173.859 253.104C174.371 255.408 175.203 257.285 176.355 258.736C177.507 260.144 179.022 261.168 180.899 261.808C182.776 262.405 185.102 262.704 187.875 262.704C192.654 262.704 196.088 261.637 198.179 259.504C200.27 257.328 201.358 254.107 201.443 249.84H191.075C191.075 252.187 190.776 253.787 190.179 254.64C189.624 255.451 188.835 255.856 187.811 255.856C187 255.856 186.275 255.557 185.635 254.96C184.995 254.32 184.675 253.061 184.675 251.184V246.64ZM202.688 227.376L209.728 262H222.784L226.304 237.488H226.432L229.952 262H243.008L250.048 227.376H238.912L236.032 252.272H235.904L232.512 227.376H220.224L216.832 252.272H216.704L213.824 227.376H202.688ZM269.504 216.304V262H296.064V252.272H281.408V216.304H269.504ZM298.809 216.304V224.88H310.329V216.304H298.809ZM298.809 227.376V262H310.329V227.376H298.809ZM316.781 235.12V262H328.301V235.12H332.973V227.376H328.301V225.264C328.301 224.411 328.578 223.792 329.133 223.408C329.687 223.024 330.327 222.832 331.053 222.832C331.479 222.832 331.821 222.853 332.077 222.896C332.375 222.896 332.674 222.939 332.973 223.024V215.792C332.077 215.664 331.138 215.579 330.157 215.536C329.218 215.451 328.322 215.408 327.469 215.408C325.463 215.408 323.778 215.579 322.413 215.92C321.047 216.261 319.938 216.816 319.085 217.584C318.274 218.309 317.677 219.269 317.293 220.464C316.951 221.659 316.781 223.131 316.781 224.88V227.376H312.812V235.12H316.781ZM352.136 238.832V240.368H345.8V238.832C345.8 236.997 346.013 235.653 346.44 234.8C346.909 233.947 347.741 233.52 348.936 233.52C350.173 233.52 351.005 233.947 351.432 234.8C351.901 235.653 352.136 236.997 352.136 238.832ZM345.8 246.64H362.888V243.12C362.888 239.963 362.589 237.339 361.992 235.248C361.437 233.115 360.563 231.408 359.368 230.128C358.216 228.805 356.765 227.867 355.016 227.312C353.309 226.757 351.304 226.48 349 226.48C346.397 226.48 344.157 226.821 342.28 227.504C340.445 228.144 338.931 229.189 337.736 230.64C336.541 232.091 335.667 233.968 335.112 236.272C334.557 238.576 334.28 241.392 334.28 244.72C334.28 248.005 334.515 250.8 334.984 253.104C335.496 255.408 336.328 257.285 337.48 258.736C338.632 260.144 340.147 261.168 342.024 261.808C343.901 262.405 346.227 262.704 349 262.704C353.779 262.704 357.213 261.637 359.304 259.504C361.395 257.328 362.483 254.107 362.568 249.84H352.2C352.2 252.187 351.901 253.787 351.304 254.64C350.749 255.451 349.96 255.856 348.936 255.856C348.125 255.856 347.4 255.557 346.76 254.96C346.12 254.32 345.8 253.061 345.8 251.184V246.64ZM375.013 251.248H364.901C364.901 255.045 365.946 257.904 368.036 259.824C370.17 261.744 373.647 262.704 378.469 262.704C380.645 262.704 382.586 262.448 384.293 261.936C386.042 261.424 387.493 260.656 388.645 259.632C389.839 258.608 390.757 257.392 391.397 255.984C392.037 254.576 392.357 253.019 392.357 251.312C392.357 249.093 391.93 247.323 391.077 246C390.266 244.635 389.242 243.568 388.005 242.8C386.767 241.989 385.423 241.371 383.973 240.944C382.565 240.517 381.242 240.112 380.005 239.728C378.767 239.344 377.722 238.917 376.869 238.448C376.058 237.936 375.653 237.189 375.653 236.208C375.653 235.355 375.93 234.693 376.485 234.224C377.039 233.755 377.743 233.52 378.597 233.52C379.578 233.52 380.325 233.797 380.837 234.352C381.391 234.864 381.669 235.867 381.669 237.36H391.653C391.653 230.107 387.322 226.48 378.661 226.48C376.314 226.48 374.266 226.757 372.517 227.312C370.81 227.867 369.381 228.635 368.229 229.616C367.119 230.597 366.287 231.749 365.733 233.072C365.178 234.352 364.901 235.76 364.901 237.296C364.901 239.472 365.306 241.243 366.117 242.608C366.97 243.931 368.015 244.997 369.253 245.808C370.49 246.619 371.813 247.259 373.22 247.728C374.671 248.197 376.015 248.645 377.253 249.072C378.49 249.499 379.514 249.989 380.325 250.544C381.178 251.099 381.605 251.888 381.605 252.912C381.605 253.851 381.263 254.576 380.581 255.088C379.941 255.6 379.173 255.856 378.277 255.856C377.21 255.856 376.399 255.451 375.845 254.64C375.546 254.256 375.333 253.765 375.205 253.168C375.077 252.571 375.013 251.931 375.013 251.248ZM393.566 227.376V235.12H397.406V253.552C397.406 255.472 397.576 257.029 397.918 258.224C398.302 259.376 398.878 260.251 399.646 260.848C400.456 261.445 401.48 261.829 402.718 262C403.955 262.128 405.448 262.192 407.198 262.192C408.179 262.192 409.203 262.149 410.27 262.064C411.336 262.021 412.403 262 413.47 262V254.32H411.678C410.739 254.32 410.035 254.128 409.566 253.744C409.139 253.317 408.926 252.613 408.926 251.632V235.12H413.47V227.376H408.926V217.2H397.406V227.376H393.566ZM416.825 264.752V272.816C417.806 272.901 418.809 272.965 419.833 273.008C420.9 273.051 422.052 273.072 423.289 273.072C424.825 273.072 426.19 272.923 427.385 272.624C428.58 272.325 429.625 271.792 430.521 271.024C431.46 270.256 432.249 269.211 432.889 267.888C433.572 266.608 434.169 264.965 434.681 262.96L443.961 227.376H432.441L429.113 250.736H428.985L425.465 227.376H413.625L422.713 260.016C422.841 260.485 422.948 260.933 423.033 261.36C423.161 261.787 423.225 262.128 423.225 262.384C423.225 262.555 423.161 262.789 423.033 263.088C422.905 263.387 422.692 263.664 422.393 263.92C422.094 264.219 421.689 264.475 421.177 264.688C420.708 264.901 420.11 265.008 419.385 265.008C418.958 265.008 418.532 264.987 418.105 264.944C417.678 264.901 417.252 264.837 416.825 264.752ZM445.746 216.304V262H457.266V216.304H445.746ZM478.886 238.832V240.368H472.55V238.832C472.55 236.997 472.763 235.653 473.19 234.8C473.659 233.947 474.491 233.52 475.686 233.52C476.923 233.52 477.755 233.947 478.182 234.8C478.651 235.653 478.886 236.997 478.886 238.832ZM472.55 246.64H489.638V243.12C489.638 239.963 489.339 237.339 488.742 235.248C488.187 233.115 487.313 231.408 486.118 230.128C484.966 228.805 483.515 227.867 481.766 227.312C480.059 226.757 478.054 226.48 475.75 226.48C473.147 226.48 470.907 226.821 469.03 227.504C467.195 228.144 465.681 229.189 464.486 230.64C463.291 232.091 462.417 233.968 461.862 236.272C461.307 238.576 461.03 241.392 461.03 244.72C461.03 248.005 461.265 250.8 461.734 253.104C462.246 255.408 463.078 257.285 464.23 258.736C465.382 260.144 466.897 261.168 468.774 261.808C470.651 262.405 472.977 262.704 475.75 262.704C480.529 262.704 483.963 261.637 486.054 259.504C488.145 257.328 489.233 254.107 489.318 249.84H478.95C478.95 252.187 478.651 253.787 478.054 254.64C477.499 255.451 476.71 255.856 475.686 255.856C474.875 255.856 474.15 255.557 473.51 254.96C472.87 254.32 472.55 253.061 472.55 251.184V246.64Z" fill="#3C78E4"/>
<path d="M136.816 301.304V347H147.952V318.776H148.08L156.016 347H169.072V301.304H157.936V329.464H157.808L150.128 301.304H136.816ZM191.011 323.832V325.368H184.675V323.832C184.675 321.997 184.888 320.653 185.315 319.8C185.784 318.947 186.616 318.52 187.811 318.52C189.048 318.52 189.88 318.947 190.307 319.8C190.776 320.653 191.011 321.997 191.011 323.832ZM184.675 331.64H201.763V328.12C201.763 324.963 201.464 322.339 200.867 320.248C200.312 318.115 199.438 316.408 198.243 315.128C197.091 313.805 195.64 312.867 193.891 312.312C192.184 311.757 190.179 311.48 187.875 311.48C185.272 311.48 183.032 311.821 181.155 312.504C179.32 313.144 177.806 314.189 176.611 315.64C175.416 317.091 174.542 318.968 173.987 321.272C173.432 323.576 173.155 326.392 173.155 329.72C173.155 333.005 173.39 335.8 173.859 338.104C174.371 340.408 175.203 342.285 176.355 343.736C177.507 345.144 179.022 346.168 180.899 346.808C182.776 347.405 185.102 347.704 187.875 347.704C192.654 347.704 196.088 346.637 198.179 344.504C200.27 342.328 201.358 339.107 201.443 334.84H191.075C191.075 337.187 190.776 338.787 190.179 339.64C189.624 340.451 188.835 340.856 187.811 340.856C187 340.856 186.275 340.557 185.635 339.96C184.995 339.32 184.675 338.061 184.675 336.184V331.64ZM202.688 312.376L209.728 347H222.784L226.304 322.488H226.432L229.952 347H243.008L250.048 312.376H238.912L236.032 337.272H235.904L232.512 312.376H220.224L216.832 337.272H216.704L213.824 312.376H202.688ZM285.824 324.152V347H297.344V324.152C297.344 322.701 297.557 321.656 297.984 321.016C298.41 320.376 299.136 320.056 300.16 320.056C301.184 320.056 301.909 320.376 302.336 321.016C302.762 321.656 302.976 322.701 302.976 324.152V347H314.496V320.888C314.496 319.011 314.261 317.475 313.792 316.28C313.322 315.085 312.682 314.125 311.872 313.4C311.061 312.675 310.101 312.184 308.992 311.928C307.925 311.629 306.752 311.48 305.472 311.48C303.68 311.48 301.994 311.885 300.416 312.696C298.88 313.464 297.664 314.829 296.768 316.792C296.042 315 295.04 313.677 293.76 312.824C292.522 311.928 290.709 311.48 288.32 311.48C284.224 311.48 281.429 313.187 279.936 316.6H279.808V312.376H268.672V347H280.192V324.152C280.192 322.701 280.405 321.656 280.832 321.016C281.258 320.376 281.984 320.056 283.008 320.056C284.032 320.056 284.757 320.376 285.184 321.016C285.61 321.656 285.824 322.701 285.824 324.152ZM335.636 323.832V325.368H329.3V323.832C329.3 321.997 329.513 320.653 329.94 319.8C330.409 318.947 331.241 318.52 332.436 318.52C333.673 318.52 334.505 318.947 334.932 319.8C335.401 320.653 335.636 321.997 335.636 323.832ZM329.3 331.64H346.388V328.12C346.388 324.963 346.089 322.339 345.492 320.248C344.937 318.115 344.063 316.408 342.868 315.128C341.716 313.805 340.265 312.867 338.516 312.312C336.809 311.757 334.804 311.48 332.5 311.48C329.897 311.48 327.657 311.821 325.78 312.504C323.945 313.144 322.431 314.189 321.236 315.64C320.041 317.091 319.167 318.968 318.612 321.272C318.057 323.576 317.78 326.392 317.78 329.72C317.78 333.005 318.015 335.8 318.484 338.104C318.996 340.408 319.828 342.285 320.98 343.736C322.132 345.144 323.647 346.168 325.524 346.808C327.401 347.405 329.727 347.704 332.5 347.704C337.279 347.704 340.713 346.637 342.804 344.504C344.895 342.328 345.983 339.107 346.068 334.84H335.7C335.7 337.187 335.401 338.787 334.804 339.64C334.249 340.451 333.46 340.856 332.436 340.856C331.625 340.856 330.9 340.557 330.26 339.96C329.62 339.32 329.3 338.061 329.3 336.184V331.64Z" fill="#3C78E4"/>
<line x1="430" y1="314" x2="430" y2="368" stroke="#404040" stroke-width="2"/>
<path d="M430 315.792C437.396 307.685 457.551 295.117 479 309.711V353.291C468.522 350.757 444.053 350.352 430 369" stroke="#404040" stroke-width="2"/>
<path d="M430 315.792C422.755 307.685 403.011 295.117 382 309.711V353.291C392.264 350.757 416.234 350.352 430 369" stroke="#404040" stroke-width="2"/>
</svg>
