<svg width="104" height="117" viewBox="0 0 104 117" fill="none" xmlns="http://www.w3.org/2000/svg">
<path d="M102 50C102 77.6142 79.6142 100 52 100C24.3858 100 2 77.6142 2 50C2 22.3858 24.3858 0 52 0C79.6142 0 102 22.3858 102 50Z" fill="#3C78E4"/>
<path d="M96.7584 91.9489C97.4749 92.8419 98.0157 93.7594 98.3809 94.7014C98.7437 95.6453 98.9362 96.6352 98.9584 97.671L97.4929 98.8468C97.4894 98.4589 97.4304 98.0288 97.3158 97.5565C97.2032 97.0866 97.0431 96.5995 96.8357 96.0951C96.6283 95.5907 96.383 95.0931 96.0996 94.6023C95.8182 94.1139 95.5061 93.656 95.1633 93.2287C94.7068 92.6598 94.1879 92.1311 93.6066 91.6426C93.0248 91.1585 92.4349 90.7479 91.837 90.4109C91.2367 90.0758 90.6846 89.8499 90.1807 89.7334L91.6462 88.5575C92.6525 88.8036 93.5772 89.206 94.4201 89.7648C95.2606 90.3255 96.04 91.0535 96.7584 91.9489Z" fill="#404040"/>
<path d="M91.6925 101.074C91.4641 101.276 91.1968 101.368 90.8904 101.352C90.5843 101.33 90.3303 101.206 90.1286 100.977C89.9289 100.751 89.8385 100.486 89.8573 100.182C89.8784 99.8761 90.0031 99.6222 90.2315 99.4204C90.4529 99.2248 90.7179 99.1344 91.0266 99.1491C91.3353 99.1638 91.5895 99.2842 91.7892 99.5103C91.9237 99.6625 92.0078 99.8367 92.0414 100.033C92.0754 100.225 92.0637 100.414 92.0064 100.6C91.947 100.784 91.8424 100.942 91.6925 101.074ZM88.4036 97.3515C88.1753 97.5533 87.9079 97.6458 87.6015 97.629C87.2974 97.6102 87.0435 97.4854 86.8397 97.2548C86.64 97.0288 86.5506 96.7649 86.5715 96.4631C86.5926 96.1569 86.7173 95.903 86.9457 95.7013C87.1671 95.5057 87.4321 95.4152 87.7408 95.43C88.0475 95.4424 88.3007 95.5616 88.5004 95.7876C88.6369 95.9422 88.722 96.1175 88.7557 96.3137C88.7896 96.5054 88.7769 96.6933 88.7175 96.8771C88.6582 97.0609 88.5536 97.2191 88.4036 97.3515Z" fill="#404040"/>
<path d="M79.5091 107.346C78.8666 107.692 78.2436 107.859 77.6402 107.848C77.038 107.832 76.4833 107.652 75.976 107.306C75.4673 106.957 75.0359 106.454 74.682 105.795C74.3367 105.152 74.1584 104.521 74.1471 103.902C74.1358 103.283 74.2836 102.716 74.5907 102.201C74.9005 101.686 75.3617 101.263 75.9744 100.934C76.3865 100.712 76.8058 100.573 77.2324 100.515C77.6602 100.453 78.0775 100.482 78.4845 100.602C78.8942 100.721 79.2807 100.939 79.6439 101.258C80.0057 101.573 80.3294 101.997 80.6149 102.528L80.8706 103.004L75.5962 105.838L75.0193 104.764L78.663 102.807C78.529 102.557 78.356 102.365 78.1441 102.231C77.9323 102.097 77.701 102.027 77.4502 102.022C77.2007 102.013 76.9499 102.076 76.6978 102.212C76.4348 102.353 76.2344 102.539 76.0966 102.771C75.9601 102.998 75.8895 103.243 75.8849 103.508C75.8789 103.77 75.9408 104.025 76.0706 104.273L76.6191 105.294C76.7851 105.603 76.9855 105.839 77.2203 106.003C77.4578 106.165 77.715 106.251 77.9921 106.259C78.2691 106.268 78.5526 106.194 78.8427 106.038C79.0352 105.934 79.1969 105.813 79.3277 105.673C79.4585 105.532 79.5517 105.377 79.6073 105.208C79.6629 105.038 79.6783 104.859 79.6534 104.669L81.3125 103.914C81.438 104.343 81.4519 104.769 81.3542 105.192C81.2577 105.61 81.0546 106.006 80.7447 106.379C80.4361 106.747 80.0242 107.07 79.5091 107.346Z" fill="#404040"/>
<path d="M61.3165 112.922L59.6179 106.038L61.4376 105.589L61.7373 106.803L61.818 106.784C61.8619 106.345 62.0224 105.968 62.2996 105.652C62.5767 105.336 62.9484 105.121 63.4145 105.006C63.8866 104.889 64.3176 104.908 64.7075 105.063C65.0967 105.214 65.396 105.476 65.6053 105.849L65.6771 105.831C65.7202 105.402 65.8964 105.024 66.2057 104.698C66.5172 104.367 66.9255 104.14 67.4304 104.015C68.0729 103.857 68.6448 103.933 69.1462 104.243C69.6498 104.55 69.9938 105.077 70.1781 105.824L71.3205 110.454L69.4156 110.924L68.3661 106.67C68.2718 106.288 68.0994 106.026 67.849 105.885C67.5987 105.744 67.3211 105.711 67.0163 105.786C66.6697 105.872 66.4266 106.049 66.2869 106.318C66.1465 106.584 66.1205 106.896 66.209 107.255L67.2463 111.459L65.3952 111.916L64.3358 107.622C64.2525 107.284 64.089 107.039 63.8454 106.887C63.6048 106.734 63.3276 106.696 63.0138 106.774C62.8017 106.826 62.6237 106.927 62.4799 107.077C62.3384 107.223 62.2419 107.403 62.1905 107.619C62.1384 107.831 62.1436 108.065 62.2063 108.319L63.2259 112.451L61.3165 112.922Z" fill="#404040"/>
<path d="M37.7781 110.23L38.2944 107.929L38.5738 107.991L41.3748 105.856L43.5785 106.346L39.8266 109.163L39.3714 109.062L37.7781 110.23ZM35.5959 111.836L37.6469 102.606L39.5667 103.033L37.5157 112.262L35.5959 111.836ZM39.9222 112.797L38.5552 109.33L40.1365 108.258L42.171 113.297L39.9222 112.797Z" fill="#404040"/>
<path d="M28.081 109.317C27.3852 109.109 26.8309 108.782 26.418 108.337C26.009 107.89 25.7494 107.363 25.6393 106.754C25.5321 106.147 25.5814 105.5 25.7872 104.813C25.9957 104.118 26.3127 103.547 26.7382 103.103C27.1675 102.657 27.6755 102.361 28.2621 102.215C28.8495 102.067 29.4867 102.095 30.1736 102.301C30.7662 102.479 31.2529 102.742 31.6335 103.09C32.0142 103.439 32.276 103.847 32.4188 104.314C32.5617 104.78 32.5677 105.28 32.437 105.813L30.6593 105.28C30.7107 104.926 30.6598 104.614 30.5064 104.343C30.3569 104.07 30.1096 103.882 29.7647 103.779C29.4728 103.691 29.194 103.694 28.9281 103.788C28.6661 103.88 28.4296 104.058 28.2186 104.323C28.0076 104.587 27.8381 104.933 27.71 105.36C27.5801 105.794 27.5287 106.18 27.5556 106.519C27.5855 106.859 27.6857 107.141 27.8561 107.366C28.0266 107.59 28.2577 107.746 28.5496 107.834C28.7648 107.898 28.9712 107.912 29.1687 107.875C29.3691 107.838 29.5505 107.753 29.7129 107.618C29.8791 107.482 30.0157 107.3 30.1226 107.071L31.9004 107.604C31.7154 108.114 31.437 108.529 31.0651 108.848C30.697 109.165 30.2587 109.368 29.7502 109.456C29.2418 109.545 28.6853 109.499 28.081 109.317Z" fill="#404040"/>
<path d="M19.18 105.516L22.7266 99.3756L24.4295 100.359L20.883 106.5L19.18 105.516ZM24.0392 99.0782C23.786 98.932 23.6173 98.7226 23.5331 98.45C23.453 98.1763 23.4815 97.9209 23.6185 97.6837C23.754 97.4492 23.9595 97.2995 24.235 97.2348C24.5147 97.1689 24.7812 97.209 25.0344 97.3553C25.2876 97.5015 25.4542 97.7115 25.5342 97.9852C25.6185 98.2577 25.5929 98.5113 25.4574 98.7458C25.3204 98.983 25.112 99.1345 24.8323 99.2004C24.5568 99.2652 24.2924 99.2245 24.0392 99.0782Z" fill="#404040"/>
<path d="M20.2428 95.3713L14.9723 103.22L13.3396 102.124L18.6101 94.275L20.2428 95.3713Z" fill="#404040"/>
<path d="M13.0433 93.8023L11.435 92.5767C11.5642 92.3463 11.645 92.1158 11.6776 91.8852C11.712 91.6522 11.702 91.424 11.6477 91.2008C11.5934 90.9775 11.4966 90.7644 11.3572 90.5615C11.2202 90.3604 11.044 90.1777 10.8286 90.0136C10.4394 89.717 10.0266 89.5553 9.59043 89.5286C9.15607 89.4994 8.71943 89.6078 8.28051 89.8538C7.84346 90.0973 7.42627 90.4797 7.02895 91.0011C6.62044 91.5372 6.35677 92.0483 6.23794 92.5342C6.12157 93.0221 6.13693 93.4691 6.28401 93.8753C6.4311 94.2814 6.69436 94.6291 7.07379 94.9182C7.28676 95.0805 7.50527 95.2025 7.72932 95.2842C7.95582 95.3678 8.1811 95.4099 8.40515 95.4103C8.63107 95.4084 8.85024 95.3645 9.06264 95.2787C9.27749 95.1948 9.47976 95.0665 9.66944 94.8937L11.2721 96.1266C10.9675 96.44 10.6098 96.6937 10.199 96.8875C9.79245 97.0808 9.35359 97.1971 8.8824 97.2366C8.41551 97.2755 7.93395 97.222 7.4377 97.076C6.94577 96.9294 6.45868 96.6724 5.97644 96.3049C5.3057 95.7938 4.82161 95.185 4.52417 94.4786C4.22917 93.774 4.14785 93.0175 4.28022 92.209C4.41503 91.4025 4.79396 90.5904 5.41699 89.7728C6.04188 88.9527 6.72773 88.3726 7.47453 88.0323C8.22133 87.6921 8.97383 87.5729 9.73202 87.6747C10.4921 87.7741 11.2026 88.0756 11.8635 88.5793C12.2992 88.9113 12.6565 89.2803 12.9353 89.6862C13.2166 90.094 13.4121 90.5255 13.5219 90.9806C13.6336 91.4332 13.6512 91.8975 13.575 92.3734C13.5011 92.8511 13.3239 93.3274 13.0433 93.8023Z" fill="#404040"/>
<ellipse cx="29.3953" cy="24.0949" rx="8.99458" ry="14" transform="rotate(47.4307 29.3953 24.0949)" fill="white"/>
</svg>
