<svg width="100" height="120" viewBox="0 0 100 120" fill="none" xmlns="http://www.w3.org/2000/svg">
<path d="M100 69.1726C100 96.7868 77.6142 119.173 50 119.173C22.3858 119.173 0 96.7868 0 69.1726C0 41.5584 22.3858 19.1726 50 19.1726C77.6142 19.1726 100 41.5584 100 69.1726Z" fill="#3C78E4"/>
<path d="M35.3067 17.0262L38.1781 6.7237L38.1626 6.64568L32.651 7.74066L32.2591 5.76785L40.2673 4.17686L40.6648 6.17753L37.7978 16.5313L35.3067 17.0262Z" fill="#3C78E4"/>
<path d="M51.2998 3.38158C51.8979 3.40237 52.4698 3.52268 53.0155 3.74252C53.565 3.96249 54.0498 4.29961 54.4699 4.75387C54.8938 5.20825 55.2199 5.80327 55.4483 6.53892C55.6806 7.27091 55.7803 8.16317 55.7476 9.2157C55.7132 10.2037 55.5709 11.0819 55.3206 11.8502C55.0742 12.6148 54.7353 13.2606 54.3038 13.7876C53.8724 14.3146 53.3602 14.71 52.7674 14.9736C52.1747 15.2335 51.5187 15.3509 50.7994 15.326C50.0234 15.299 49.3434 15.1256 48.7594 14.8059C48.1756 14.4824 47.711 14.0551 47.3656 13.5238C47.0241 12.9889 46.8269 12.3946 46.7738 11.7408L49.1984 11.8251C49.2783 12.2523 49.4656 12.5886 49.7603 12.8338C50.0552 13.0753 50.4259 13.2038 50.8726 13.2193C51.6297 13.2456 52.2166 12.9362 52.6332 12.2912C53.0499 11.6424 53.2802 10.7427 53.3239 9.59199L53.2444 9.58922C53.0585 9.92388 52.8136 10.2091 52.5097 10.4449C52.206 10.6769 51.8607 10.8525 51.4738 10.9717C51.0906 11.0911 50.6851 11.1433 50.2574 11.1285C49.5722 11.1047 48.9664 10.9225 48.44 10.5821C47.9136 10.2416 47.505 9.78396 47.2142 9.20912C46.9234 8.63428 46.7906 7.98534 46.8157 7.26229C46.839 6.48233 47.043 5.79392 47.4276 5.19707C47.8121 4.60021 48.336 4.14086 48.9991 3.81899C49.6661 3.49347 50.433 3.34767 51.2998 3.38158ZM51.2497 5.31283C50.8674 5.29954 50.5235 5.37855 50.2181 5.54987C49.9165 5.72132 49.6733 5.95733 49.4885 6.25792C49.3075 6.55863 49.2123 6.89833 49.203 7.27702C49.1897 7.65937 49.261 8.00675 49.4169 8.31917C49.5767 8.62794 49.7992 8.87824 50.0844 9.07008C50.3735 9.25826 50.7073 9.35893 51.0859 9.37209C51.3698 9.38195 51.6348 9.3381 51.8807 9.24052C52.1267 9.14294 52.3419 9.0045 52.5262 8.82518C52.7145 8.64222 52.864 8.42948 52.9748 8.18697C53.0856 7.94446 53.1457 7.68503 53.1553 7.40868C53.1643 7.04134 53.089 6.7014 52.9293 6.38885C52.7696 6.0763 52.5434 5.82208 52.2508 5.62619C51.9582 5.4303 51.6245 5.32585 51.2497 5.31283Z" fill="#3C78E4"/>
<path d="M76.2991 6.77008C74.7403 6.88625 72.3782 6.68095 70.2947 6.35009C70.3792 6.80069 70.4172 7.53953 70.3701 7.97956C72.5393 8.40684 75.1338 8.72424 77.1781 8.67042L76.2991 6.77008ZM69.7351 5.75622L68.0434 10.7748C67.3176 12.9277 66.236 15.5855 63.8435 16.8727C64.2065 17.2483 64.669 18.1303 64.7585 18.6163C67.6374 17.1385 69.0807 13.7584 69.8728 11.4083L71.3805 6.93562C71.6587 6.96186 71.8107 6.91178 71.877 6.76527L69.7351 5.75622ZM69.3412 10.0303L68.7585 11.7588L75.7633 14.12L76.3459 12.3915L69.3412 10.0303ZM72.0718 11.9976L69.3068 20.2001L71.1111 20.8083L73.8761 12.6058L72.0718 11.9976ZM61.0833 10.1846L60.9352 12.0764C62.5843 12.1933 64.6936 12.3471 66.6716 12.4398L67.0216 10.7005C64.8616 10.5465 62.5955 10.3567 61.0833 10.1846ZM62.9715 5.38428L62.3991 7.08239L67.6299 8.84564L68.2024 7.14752L62.9715 5.38428ZM65.8428 3.17783L61.703 15.4589C61.6314 15.6711 61.5352 15.7062 61.3178 15.6498C61.1207 15.5834 60.4991 15.3738 59.9129 15.1594C59.987 15.6909 59.964 16.5105 59.8561 16.9806C60.9275 17.3587 61.6757 17.5434 62.2832 17.4442C62.8907 17.3451 63.1956 16.9413 63.4921 16.0619L67.6319 3.78091L65.8428 3.17783Z" fill="#3C78E4"/>
</svg>
