<svg width="745" height="372" viewBox="0 0 745 372" fill="none" xmlns="http://www.w3.org/2000/svg">
<path d="M4.224 280.456V349H30.144C35.328 349 39.36 348.072 42.24 346.216C45.12 344.296 47.264 341.768 48.672 338.632C50.144 335.432 51.04 331.784 51.36 327.688C51.68 323.528 51.84 319.208 51.84 314.728C51.84 310.248 51.68 305.96 51.36 301.864C51.04 297.704 50.144 294.056 48.672 290.92C47.264 287.72 45.12 285.192 42.24 283.336C39.36 281.416 35.328 280.456 30.144 280.456H4.224ZM22.08 336.136V293.32H25.632C27.36 293.32 28.736 293.576 29.76 294.088C30.784 294.536 31.552 295.528 32.064 297.064C32.64 298.6 32.992 300.776 33.12 303.592C33.312 306.408 33.408 310.12 33.408 314.728C33.408 319.336 33.312 323.048 33.12 325.864C32.992 328.68 32.64 330.856 32.064 332.392C31.552 333.928 30.784 334.952 29.76 335.464C28.736 335.912 27.36 336.136 25.632 336.136H22.08ZM58.677 280.456V349H76.533V280.456H58.677ZM79.0065 280.456L93.5025 349H116.543L131.327 280.456H112.319L105.119 332.104H104.927L97.7265 280.456H79.0065ZM133.49 280.456V349H151.346V280.456H133.49ZM159.099 280.456V349H175.803V306.664H175.995L187.899 349H207.483V280.456H190.779V322.696H190.587L179.067 280.456H159.099ZM238.952 311.752V323.848H245.288C245.288 326.792 245.128 329.224 244.808 331.144C244.552 333 244.168 334.472 243.656 335.56C243.144 336.584 242.504 337.288 241.736 337.672C241.032 338.056 240.2 338.248 239.24 338.248C237.896 338.248 236.808 337.896 235.976 337.192C235.208 336.488 234.6 335.24 234.152 333.448C233.768 331.656 233.512 329.256 233.384 326.248C233.256 323.176 233.192 319.336 233.192 314.728C233.192 310.12 233.256 306.312 233.384 303.304C233.512 300.232 233.768 297.8 234.152 296.008C234.6 294.216 235.24 292.968 236.072 292.264C236.968 291.56 238.152 291.208 239.624 291.208C241.736 291.208 243.112 292.2 243.752 294.184C244.392 295.848 244.712 298.504 244.712 302.152H261.992C261.992 297.992 261.448 294.472 260.36 291.592C259.272 288.648 257.768 286.248 255.848 284.392C253.928 282.536 251.624 281.192 248.936 280.36C246.312 279.528 243.432 279.112 240.296 279.112C235.048 279.112 230.76 279.912 227.432 281.512C224.104 283.048 221.48 285.32 219.56 288.328C217.704 291.336 216.424 295.048 215.72 299.464C215.08 303.88 214.76 308.968 214.76 314.728C214.76 320.424 214.92 325.48 215.24 329.896C215.624 334.312 216.488 338.024 217.832 341.032C219.176 344.04 221.16 346.312 223.784 347.848C226.408 349.32 229.992 350.056 234.536 350.056C236.072 350.056 237.576 349.96 239.048 349.768C240.584 349.576 241.992 349.256 243.272 348.808C244.616 348.296 245.8 347.56 246.824 346.6C247.912 345.64 248.744 344.424 249.32 342.952H249.512L249.896 349H261.992V311.752H238.952ZM293.521 280.456V349H311.377V280.456H293.521ZM319.13 280.456V349H335.834V306.664H336.026L347.93 349H367.514V280.456H350.81V322.696H350.618L339.098 280.456H319.13ZM418.736 309.448V293.32H422.192C424.88 293.32 426.8 293.928 427.952 295.144C429.168 296.36 429.776 298.408 429.776 301.288C429.776 303.72 429.168 305.704 427.952 307.24C426.736 308.712 424.848 309.448 422.288 309.448H418.736ZM400.88 280.456V349H418.736V321.544H423.44C424.528 321.544 425.424 321.704 426.128 322.024C426.896 322.28 427.504 322.792 427.952 323.56C428.464 324.264 428.816 325.256 429.008 326.536C429.2 327.816 429.296 329.416 429.296 331.336V335.944C429.296 336.648 429.296 337.576 429.296 338.728C429.36 339.816 429.424 340.968 429.488 342.184C429.616 343.4 429.776 344.616 429.968 345.832C430.224 347.048 430.576 348.104 431.024 349H450.032V348.04C449.456 347.72 449.04 347.4 448.784 347.08C448.528 346.696 448.272 346.312 448.016 345.928C447.824 345.544 447.664 345 447.536 344.296C447.408 343.592 447.312 342.824 447.248 341.992C447.184 341.096 447.152 340.168 447.152 339.208C447.152 338.248 447.152 337.32 447.152 336.424V330.568C447.152 325.96 446.352 322.344 444.752 319.72C443.152 317.096 440.208 315.592 435.92 315.208V315.016C440.016 314.376 442.992 312.648 444.848 309.832C446.704 307.016 447.632 303.304 447.632 298.696C447.632 296.072 447.28 293.64 446.576 291.4C445.936 289.16 444.848 287.24 443.312 285.64C441.84 283.976 439.888 282.696 437.456 281.8C435.088 280.904 432.208 280.456 428.816 280.456H400.88ZM456.005 280.456V349H497.477V334.408H473.861V320.776H495.173V306.76H473.861V295.048H496.613V280.456H456.005ZM526.373 294.472L521.477 323.56H531.461L526.565 294.472H526.373ZM537.701 280.456L554.405 349H535.397L533.573 337H519.365L517.541 349H498.821L515.237 280.456H537.701ZM557.349 280.456V349H583.269C588.453 349 592.485 348.072 595.365 346.216C598.245 344.296 600.389 341.768 601.797 338.632C603.269 335.432 604.165 331.784 604.485 327.688C604.805 323.528 604.965 319.208 604.965 314.728C604.965 310.248 604.805 305.96 604.485 301.864C604.165 297.704 603.269 294.056 601.797 290.92C600.389 287.72 598.245 285.192 595.365 283.336C592.485 281.416 588.453 280.456 583.269 280.456H557.349ZM575.205 336.136V293.32H578.757C580.485 293.32 581.861 293.576 582.885 294.088C583.909 294.536 584.677 295.528 585.189 297.064C585.765 298.6 586.117 300.776 586.245 303.592C586.437 306.408 586.533 310.12 586.533 314.728C586.533 319.336 586.437 323.048 586.245 325.864C586.117 328.68 585.765 330.856 585.189 332.392C584.677 333.928 583.909 334.952 582.885 335.464C581.861 335.912 580.485 336.136 578.757 336.136H575.205ZM611.802 280.456V349H629.658V280.456H611.802ZM637.412 280.456V349H654.116V306.664H654.308L666.212 349H685.796V280.456H669.092V322.696H668.9L657.38 280.456H637.412ZM717.264 311.752V323.848H723.6C723.6 326.792 723.44 329.224 723.12 331.144C722.864 333 722.48 334.472 721.968 335.56C721.456 336.584 720.816 337.288 720.048 337.672C719.344 338.056 718.512 338.248 717.552 338.248C716.208 338.248 715.12 337.896 714.288 337.192C713.52 336.488 712.912 335.24 712.464 333.448C712.08 331.656 711.824 329.256 711.696 326.248C711.568 323.176 711.504 319.336 711.504 314.728C711.504 310.12 711.568 306.312 711.696 303.304C711.824 300.232 712.08 297.8 712.464 296.008C712.912 294.216 713.552 292.968 714.384 292.264C715.28 291.56 716.464 291.208 717.936 291.208C720.048 291.208 721.424 292.2 722.064 294.184C722.704 295.848 723.024 298.504 723.024 302.152H740.304C740.304 297.992 739.76 294.472 738.672 291.592C737.584 288.648 736.08 286.248 734.16 284.392C732.24 282.536 729.936 281.192 727.248 280.36C724.624 279.528 721.744 279.112 718.608 279.112C713.36 279.112 709.072 279.912 705.744 281.512C702.416 283.048 699.792 285.32 697.872 288.328C696.016 291.336 694.736 295.048 694.032 299.464C693.392 303.88 693.072 308.968 693.072 314.728C693.072 320.424 693.232 325.48 693.552 329.896C693.936 334.312 694.8 338.024 696.144 341.032C697.488 344.04 699.472 346.312 702.096 347.848C704.72 349.32 708.304 350.056 712.848 350.056C714.384 350.056 715.888 349.96 717.36 349.768C718.896 349.576 720.304 349.256 721.584 348.808C722.928 348.296 724.112 347.56 725.136 346.6C726.224 345.64 727.056 344.424 727.632 342.952H727.824L728.208 349H740.304V311.752H717.264Z" fill="#F0F4F9"/>
<path d="M290.224 26.456V95H331.696V80.408H308.08V66.776H329.392V52.76H308.08V41.048H330.832V26.456H290.224ZM337.552 26.456V95H354.256V43.928H354.448L363.952 95H376.816L386.32 43.928H386.512V95H403.216V26.456H377.68L370.48 67.064H370.288L363.088 26.456H337.552ZM429.406 82.136V65.432H434.398C436.062 65.432 437.534 66.136 438.814 67.544C440.094 68.952 440.734 71 440.734 73.688C440.734 76.568 440.094 78.712 438.814 80.12C437.534 81.464 436.062 82.136 434.398 82.136H429.406ZM429.406 53.336V39.32H433.726C435.582 39.32 436.99 40.024 437.95 41.432C438.91 42.84 439.39 44.504 439.39 46.424C439.39 48.28 438.91 49.912 437.95 51.32C436.99 52.664 435.582 53.336 433.726 53.336H429.406ZM411.55 26.456V95H438.526C442.238 95 445.406 94.52 448.03 93.56C450.654 92.536 452.766 91.128 454.366 89.336C456.03 87.544 457.246 85.4 458.014 82.904C458.782 80.408 459.166 77.688 459.166 74.744C459.166 72.952 458.91 71.192 458.398 69.464C457.95 67.672 457.214 66.04 456.19 64.568C455.166 63.096 453.854 61.88 452.254 60.92C450.654 59.896 448.734 59.288 446.494 59.096V58.904C448.414 58.52 450.046 57.848 451.39 56.888C452.734 55.928 453.822 54.776 454.654 53.432C455.55 52.024 456.19 50.488 456.574 48.824C457.022 47.096 457.246 45.336 457.246 43.544C457.246 38.36 455.71 34.232 452.638 31.16C449.63 28.024 444.926 26.456 438.526 26.456H411.55ZM466.099 26.456V95H507.571V80.408H483.955V66.776H505.267V52.76H483.955V41.048H506.707V26.456H466.099ZM531.955 55.448V39.32H535.411C538.099 39.32 540.019 39.928 541.171 41.144C542.387 42.36 542.995 44.408 542.995 47.288C542.995 49.72 542.387 51.704 541.171 53.24C539.955 54.712 538.067 55.448 535.507 55.448H531.955ZM514.099 26.456V95H531.955V67.544H536.659C537.747 67.544 538.643 67.704 539.347 68.024C540.115 68.28 540.723 68.792 541.171 69.56C541.683 70.264 542.035 71.256 542.227 72.536C542.419 73.816 542.515 75.416 542.515 77.336V81.944C542.515 82.648 542.515 83.576 542.515 84.728C542.579 85.816 542.643 86.968 542.707 88.184C542.835 89.4 542.995 90.616 543.187 91.832C543.443 93.048 543.795 94.104 544.243 95H563.251V94.04C562.675 93.72 562.259 93.4 562.003 93.08C561.747 92.696 561.491 92.312 561.235 91.928C561.043 91.544 560.883 91 560.755 90.296C560.627 89.592 560.531 88.824 560.467 87.992C560.403 87.096 560.371 86.168 560.371 85.208C560.371 84.248 560.371 83.32 560.371 82.424V76.568C560.371 71.96 559.571 68.344 557.971 65.72C556.371 63.096 553.427 61.592 549.139 61.208V61.016C553.235 60.376 556.211 58.648 558.067 55.832C559.923 53.016 560.851 49.304 560.851 44.696C560.851 42.072 560.499 39.64 559.795 37.4C559.155 35.16 558.067 33.24 556.531 31.64C555.059 29.976 553.107 28.696 550.675 27.8C548.307 26.904 545.427 26.456 542.035 26.456H514.099Z" fill="#F0F4F9"/>
<path d="M48.224 26.456V95H74.144C79.328 95 83.36 94.072 86.24 92.216C89.12 90.296 91.264 87.768 92.672 84.632C94.144 81.432 95.04 77.784 95.36 73.688C95.68 69.528 95.84 65.208 95.84 60.728C95.84 56.248 95.68 51.96 95.36 47.864C95.04 43.704 94.144 40.056 92.672 36.92C91.264 33.72 89.12 31.192 86.24 29.336C83.36 27.416 79.328 26.456 74.144 26.456H48.224ZM66.08 82.136V39.32H69.632C71.36 39.32 72.736 39.576 73.76 40.088C74.784 40.536 75.552 41.528 76.064 43.064C76.64 44.6 76.992 46.776 77.12 49.592C77.312 52.408 77.408 56.12 77.408 60.728C77.408 65.336 77.312 69.048 77.12 71.864C76.992 74.68 76.64 76.856 76.064 78.392C75.552 79.928 74.784 80.952 73.76 81.464C72.736 81.912 71.36 82.136 69.632 82.136H66.08ZM103.349 26.456V95H144.821V80.408H121.205V66.776H142.517V52.76H121.205V41.048H143.957V26.456H103.349ZM178.709 47.288V51.128H195.989V46.808C195.989 43.48 195.573 40.504 194.741 37.88C193.973 35.192 192.693 32.92 190.901 31.064C189.173 29.144 186.901 27.672 184.085 26.648C181.269 25.624 177.845 25.112 173.813 25.112C169.205 25.112 165.333 25.752 162.197 27.032C159.061 28.248 156.533 30.264 154.613 33.08C152.693 35.896 151.317 39.576 150.485 44.12C149.717 48.664 149.333 54.2 149.333 60.728C149.333 67.128 149.653 72.6 150.293 77.144C150.997 81.624 152.245 85.304 154.037 88.184C155.829 91 158.325 93.016 161.525 94.232C164.725 95.448 168.821 96.056 173.813 96.056C176.693 96.056 179.477 95.736 182.165 95.096C184.917 94.52 187.349 93.368 189.461 91.64C191.573 89.848 193.269 87.416 194.549 84.344C195.829 81.272 196.469 77.336 196.469 72.536V67.448H179.189C179.189 70.712 179.093 73.432 178.901 75.608C178.773 77.72 178.517 79.416 178.133 80.696C177.749 81.976 177.205 82.904 176.501 83.48C175.797 83.992 174.901 84.248 173.813 84.248C172.469 84.248 171.381 83.896 170.549 83.192C169.781 82.488 169.173 81.24 168.725 79.448C168.341 77.656 168.085 75.256 167.957 72.248C167.829 69.176 167.765 65.336 167.765 60.728C167.765 56.12 167.829 52.312 167.957 49.304C168.085 46.232 168.341 43.8 168.725 42.008C169.173 40.216 169.781 38.968 170.549 38.264C171.381 37.56 172.469 37.208 173.813 37.208C175.541 37.208 176.789 37.912 177.557 39.32C178.325 40.728 178.709 43.384 178.709 47.288Z" fill="#F0F4F9"/>
<path d="M47.88 134.88V130.58H49.12C49.44 130.58 49.7333 130.613 50 130.68C50.2667 130.747 50.4933 130.867 50.68 131.04C50.88 131.2 51.0333 131.42 51.14 131.7C51.26 131.967 51.32 132.307 51.32 132.72C51.32 133.547 51.1067 134.113 50.68 134.42C50.2533 134.727 49.6933 134.88 49 134.88H47.88ZM47.88 128.58V124.84H48.92C49.64 124.84 50.1667 124.98 50.5 125.26C50.8333 125.54 51 126.02 51 126.7C51 127.38 50.8133 127.867 50.44 128.16C50.08 128.44 49.5 128.58 48.7 128.58H47.88ZM45 122.72V137H49.86C50.7 137 51.4 136.887 51.96 136.66C52.5333 136.433 52.9933 136.133 53.34 135.76C53.7 135.373 53.9533 134.927 54.1 134.42C54.2467 133.913 54.32 133.38 54.32 132.82C54.32 131.86 54.0867 131.093 53.62 130.52C53.1533 129.947 52.52 129.607 51.72 129.5V129.46C52.44 129.26 52.98 128.887 53.34 128.34C53.7 127.78 53.88 127.113 53.88 126.34C53.88 125.66 53.78 125.087 53.58 124.62C53.38 124.153 53.1 123.78 52.74 123.5C52.38 123.22 51.9467 123.02 51.44 122.9C50.9467 122.78 50.4067 122.72 49.82 122.72H45ZM64.0933 122.72H56.1133V137H64.2933V134.64H58.9933V130.8H63.7933V128.44H58.9933V125.08H64.0933V122.72ZM68.0622 132.54H65.1822V133.12C65.1822 134.44 65.5289 135.453 66.2222 136.16C66.9289 136.867 68.0955 137.22 69.7222 137.22C71.2822 137.22 72.4955 136.88 73.3622 136.2C74.2422 135.507 74.6822 134.407 74.6822 132.9C74.6822 132.46 74.6422 132.06 74.5622 131.7C74.4822 131.34 74.3355 131.013 74.1222 130.72C73.9222 130.413 73.6489 130.133 73.3022 129.88C72.9555 129.613 72.5089 129.36 71.9622 129.12L69.7422 128.16C69.1289 127.907 68.7289 127.633 68.5422 127.34C68.3555 127.033 68.2622 126.66 68.2622 126.22C68.2622 126.007 68.2822 125.8 68.3222 125.6C68.3755 125.4 68.4622 125.227 68.5822 125.08C68.7155 124.92 68.8889 124.793 69.1022 124.7C69.3155 124.607 69.5822 124.56 69.9022 124.56C70.4622 124.56 70.8622 124.747 71.1022 125.12C71.3422 125.48 71.4622 126 71.4622 126.68H74.2222V126.28C74.2222 125.6 74.1089 125.02 73.8822 124.54C73.6689 124.047 73.3622 123.647 72.9622 123.34C72.5755 123.02 72.1089 122.793 71.5622 122.66C71.0289 122.513 70.4422 122.44 69.8022 122.44C68.4289 122.44 67.3489 122.787 66.5622 123.48C65.7755 124.173 65.3822 125.227 65.3822 126.64C65.3822 127.227 65.4555 127.747 65.6022 128.2C65.7489 128.64 65.9755 129.033 66.2822 129.38C66.6022 129.713 66.9955 130.007 67.4622 130.26C67.9289 130.513 68.4822 130.747 69.1222 130.96C69.6022 131.12 70.0022 131.28 70.3222 131.44C70.6555 131.587 70.9222 131.753 71.1222 131.94C71.3222 132.127 71.4622 132.34 71.5422 132.58C71.6355 132.807 71.6822 133.08 71.6822 133.4C71.6822 134 71.5022 134.447 71.1422 134.74C70.7955 135.02 70.4022 135.16 69.9622 135.16C69.5889 135.16 69.2755 135.107 69.0222 135C68.7822 134.893 68.5889 134.747 68.4422 134.56C68.2955 134.373 68.1955 134.147 68.1422 133.88C68.0889 133.6 68.0622 133.293 68.0622 132.96V132.54ZM84.4733 122.72H75.3533V125.08H78.4733V137H81.3533V125.08H84.4733V122.72ZM93.1073 129.86C93.1073 128.9 93.1273 128.087 93.1673 127.42C93.2207 126.753 93.314 126.207 93.4473 125.78C93.594 125.353 93.794 125.047 94.0473 124.86C94.314 124.66 94.6607 124.56 95.0873 124.56C95.514 124.56 95.854 124.66 96.1073 124.86C96.374 125.047 96.574 125.353 96.7073 125.78C96.854 126.207 96.9473 126.753 96.9873 127.42C97.0407 128.087 97.0673 128.9 97.0673 129.86C97.0673 130.82 97.0407 131.64 96.9873 132.32C96.9473 132.987 96.854 133.533 96.7073 133.96C96.574 134.373 96.374 134.68 96.1073 134.88C95.854 135.067 95.514 135.16 95.0873 135.16C94.6607 135.16 94.314 135.067 94.0473 134.88C93.794 134.68 93.594 134.373 93.4473 133.96C93.314 133.533 93.2207 132.987 93.1673 132.32C93.1273 131.64 93.1073 130.82 93.1073 129.86ZM90.2273 129.86C90.2273 130.953 90.274 131.953 90.3673 132.86C90.474 133.767 90.694 134.547 91.0273 135.2C91.374 135.853 91.8673 136.353 92.5073 136.7C93.1473 137.047 94.0073 137.22 95.0873 137.22C96.1673 137.22 97.0273 137.047 97.6673 136.7C98.3073 136.353 98.794 135.853 99.1273 135.2C99.474 134.547 99.694 133.767 99.7873 132.86C99.894 131.953 99.9473 130.953 99.9473 129.86C99.9473 128.78 99.894 127.787 99.7873 126.88C99.694 125.96 99.474 125.173 99.1273 124.52C98.794 123.867 98.3073 123.36 97.6673 123C97.0273 122.627 96.1673 122.44 95.0873 122.44C94.0073 122.44 93.1473 122.627 92.5073 123C91.8673 123.36 91.374 123.867 91.0273 124.52C90.694 125.173 90.474 125.96 90.3673 126.88C90.274 127.787 90.2273 128.78 90.2273 129.86ZM101.641 122.72V137H104.521V130.8H109.321V128.44H104.521V125.08H109.621V122.72H101.641ZM123.321 122.72H114.201V125.08H117.321V137H120.201V125.08H123.321V122.72ZM124.57 122.72V137H127.45V130.66H130.81V137H133.69V122.72H130.81V128.18H127.45V122.72H124.57ZM135.824 137H138.704V122.72H135.824V137ZM143.16 132.54H140.28V133.12C140.28 134.44 140.627 135.453 141.32 136.16C142.027 136.867 143.193 137.22 144.82 137.22C146.38 137.22 147.593 136.88 148.46 136.2C149.34 135.507 149.78 134.407 149.78 132.9C149.78 132.46 149.74 132.06 149.66 131.7C149.58 131.34 149.433 131.013 149.22 130.72C149.02 130.413 148.747 130.133 148.4 129.88C148.053 129.613 147.607 129.36 147.06 129.12L144.84 128.16C144.227 127.907 143.827 127.633 143.64 127.34C143.453 127.033 143.36 126.66 143.36 126.22C143.36 126.007 143.38 125.8 143.42 125.6C143.473 125.4 143.56 125.227 143.68 125.08C143.813 124.92 143.987 124.793 144.2 124.7C144.413 124.607 144.68 124.56 145 124.56C145.56 124.56 145.96 124.747 146.2 125.12C146.44 125.48 146.56 126 146.56 126.68H149.32V126.28C149.32 125.6 149.207 125.02 148.98 124.54C148.767 124.047 148.46 123.647 148.06 123.34C147.673 123.02 147.207 122.793 146.66 122.66C146.127 122.513 145.54 122.44 144.9 122.44C143.527 122.44 142.447 122.787 141.66 123.48C140.873 124.173 140.48 125.227 140.48 126.64C140.48 127.227 140.553 127.747 140.7 128.2C140.847 128.64 141.073 129.033 141.38 129.38C141.7 129.713 142.093 130.007 142.56 130.26C143.027 130.513 143.58 130.747 144.22 130.96C144.7 131.12 145.1 131.28 145.42 131.44C145.753 131.587 146.02 131.753 146.22 131.94C146.42 132.127 146.56 132.34 146.64 132.58C146.733 132.807 146.78 133.08 146.78 133.4C146.78 134 146.6 134.447 146.24 134.74C145.893 135.02 145.5 135.16 145.06 135.16C144.687 135.16 144.373 135.107 144.12 135C143.88 134.893 143.687 134.747 143.54 134.56C143.393 134.373 143.293 134.147 143.24 133.88C143.187 133.6 143.16 133.293 143.16 132.96V132.54ZM156.076 122.72V137H158.716V125.6H158.756L161.296 137H163.536L166.076 125.6H166.116V137H168.756V122.72H164.496L162.436 132.8H162.396L160.356 122.72H156.076ZM173.4 129.86C173.4 128.9 173.42 128.087 173.46 127.42C173.514 126.753 173.607 126.207 173.74 125.78C173.887 125.353 174.087 125.047 174.34 124.86C174.607 124.66 174.954 124.56 175.38 124.56C175.807 124.56 176.147 124.66 176.4 124.86C176.667 125.047 176.867 125.353 177 125.78C177.147 126.207 177.24 126.753 177.28 127.42C177.334 128.087 177.36 128.9 177.36 129.86C177.36 130.82 177.334 131.64 177.28 132.32C177.24 132.987 177.147 133.533 177 133.96C176.867 134.373 176.667 134.68 176.4 134.88C176.147 135.067 175.807 135.16 175.38 135.16C174.954 135.16 174.607 135.067 174.34 134.88C174.087 134.68 173.887 134.373 173.74 133.96C173.607 133.533 173.514 132.987 173.46 132.32C173.42 131.64 173.4 130.82 173.4 129.86ZM170.52 129.86C170.52 130.953 170.567 131.953 170.66 132.86C170.767 133.767 170.987 134.547 171.32 135.2C171.667 135.853 172.16 136.353 172.8 136.7C173.44 137.047 174.3 137.22 175.38 137.22C176.46 137.22 177.32 137.047 177.96 136.7C178.6 136.353 179.087 135.853 179.42 135.2C179.767 134.547 179.987 133.767 180.08 132.86C180.187 131.953 180.24 130.953 180.24 129.86C180.24 128.78 180.187 127.787 180.08 126.88C179.987 125.96 179.767 125.173 179.42 124.52C179.087 123.867 178.6 123.36 177.96 123C177.32 122.627 176.46 122.44 175.38 122.44C174.3 122.44 173.44 122.627 172.8 123C172.16 123.36 171.667 123.867 171.32 124.52C170.987 125.173 170.767 125.96 170.66 126.88C170.567 127.787 170.52 128.78 170.52 129.86ZM185.254 122.72H181.934V137H184.574V127H184.614L188.134 137H191.414V122.72H188.774V132.5H188.734L185.254 122.72ZM201.778 122.72H192.658V125.08H195.778V137H198.658V125.08H201.778V122.72ZM203.027 122.72V137H205.907V130.66H209.267V137H212.147V122.72H209.267V128.18H205.907V122.72H203.027Z" fill="#F0F4F9"/>
<path d="M307.58 200.86C307.58 199.9 307.6 199.087 307.64 198.42C307.693 197.753 307.787 197.207 307.92 196.78C308.067 196.353 308.267 196.047 308.52 195.86C308.787 195.66 309.133 195.56 309.56 195.56C309.987 195.56 310.327 195.66 310.58 195.86C310.847 196.047 311.047 196.353 311.18 196.78C311.327 197.207 311.42 197.753 311.46 198.42C311.513 199.087 311.54 199.9 311.54 200.86C311.54 201.82 311.513 202.64 311.46 203.32C311.42 203.987 311.327 204.533 311.18 204.96C311.047 205.373 310.847 205.68 310.58 205.88C310.327 206.067 309.987 206.16 309.56 206.16C309.133 206.16 308.787 206.067 308.52 205.88C308.267 205.68 308.067 205.373 307.92 204.96C307.787 204.533 307.693 203.987 307.64 203.32C307.6 202.64 307.58 201.82 307.58 200.86ZM304.7 200.86C304.7 201.953 304.747 202.953 304.84 203.86C304.947 204.767 305.167 205.547 305.5 206.2C305.847 206.853 306.34 207.353 306.98 207.7C307.62 208.047 308.48 208.22 309.56 208.22C310.64 208.22 311.5 208.047 312.14 207.7C312.78 207.353 313.267 206.853 313.6 206.2C313.947 205.547 314.167 204.767 314.26 203.86C314.367 202.953 314.42 201.953 314.42 200.86C314.42 199.78 314.367 198.787 314.26 197.88C314.167 196.96 313.947 196.173 313.6 195.52C313.267 194.867 312.78 194.36 312.14 194C311.5 193.627 310.64 193.44 309.56 193.44C308.48 193.44 307.62 193.627 306.98 194C306.34 194.36 305.847 194.867 305.5 195.52C305.167 196.173 304.947 196.96 304.84 197.88C304.747 198.787 304.7 199.78 304.7 200.86ZM316.113 193.72V208H318.993V201.8H323.793V199.44H318.993V196.08H324.093V193.72H316.113Z" fill="#F0F4F9"/>
<path d="M11 33.172H13.016L13.016 28.366C13.256 28.426 13.538 28.564 13.862 28.78C14.198 28.996 14.54 29.296 14.888 29.68L16.22 31.12C16.544 31.48 16.856 31.786 17.156 32.038C17.468 32.29 17.786 32.494 18.11 32.65C18.434 32.806 18.77 32.92 19.118 32.992C19.478 33.064 19.862 33.1 20.27 33.1C21.386 33.1 22.244 32.788 22.844 32.164C23.444 31.54 23.744 30.58 23.744 29.284C23.744 27.916 23.426 26.914 22.79 26.278C22.154 25.642 21.242 25.324 20.054 25.324H19.568V27.808C19.904 27.808 20.222 27.82 20.522 27.844C20.822 27.88 21.086 27.946 21.314 28.042C21.542 28.15 21.722 28.294 21.854 28.474C21.986 28.666 22.052 28.924 22.052 29.248C22.052 30.088 21.524 30.508 20.468 30.508C20.144 30.508 19.856 30.49 19.604 30.454C19.352 30.43 19.118 30.37 18.902 30.274C18.686 30.178 18.47 30.04 18.254 29.86C18.038 29.692 17.804 29.464 17.552 29.176L16.58 28.132C16.148 27.664 15.716 27.25 15.284 26.89C14.864 26.542 14.432 26.248 13.988 26.008C13.544 25.78 13.076 25.606 12.584 25.486C12.092 25.378 11.564 25.324 11 25.324V33.172ZM11 41.8204H13.016L13.016 37.0144C13.256 37.0744 13.538 37.2124 13.862 37.4284C14.198 37.6444 14.54 37.9444 14.888 38.3284L16.22 39.7684C16.544 40.1284 16.856 40.4344 17.156 40.6864C17.468 40.9384 17.786 41.1424 18.11 41.2984C18.434 41.4544 18.77 41.5684 19.118 41.6404C19.478 41.7124 19.862 41.7484 20.27 41.7484C21.386 41.7484 22.244 41.4364 22.844 40.8124C23.444 40.1884 23.744 39.2284 23.744 37.9324C23.744 36.5644 23.426 35.5624 22.79 34.9264C22.154 34.2904 21.242 33.9724 20.054 33.9724H19.568V36.4564C19.904 36.4564 20.222 36.4684 20.522 36.4924C20.822 36.5284 21.086 36.5944 21.314 36.6904C21.542 36.7984 21.722 36.9424 21.854 37.1224C21.986 37.3144 22.052 37.5724 22.052 37.8964C22.052 38.7364 21.524 39.1564 20.468 39.1564C20.144 39.1564 19.856 39.1384 19.604 39.1024C19.352 39.0784 19.118 39.0184 18.902 38.9224C18.686 38.8264 18.47 38.6884 18.254 38.5084C18.038 38.3404 17.804 38.1124 17.552 37.8244L16.58 36.7804C16.148 36.3124 15.716 35.8984 15.284 35.5384C14.864 35.1904 14.432 34.8964 13.988 34.6564C13.544 34.4284 13.076 34.2544 12.584 34.1344C12.092 34.0264 11.564 33.9724 11 33.9724L11 41.8204ZM21.08 44.6009C21.44 44.6009 21.746 44.7269 21.998 44.9789C22.25 45.2309 22.376 45.5369 22.376 45.8969C22.376 46.2569 22.25 46.5629 21.998 46.8149C21.746 47.0669 21.44 47.1929 21.08 47.1929C20.72 47.1929 20.414 47.0669 20.162 46.8149C19.91 46.5629 19.784 46.2569 19.784 45.8969C19.784 45.5369 19.91 45.2309 20.162 44.9789C20.414 44.7269 20.72 44.6009 21.08 44.6009ZM21.08 43.2329C20.708 43.2329 20.36 43.2989 20.036 43.4309C19.712 43.5749 19.43 43.7669 19.19 44.0069C18.95 44.2469 18.758 44.5289 18.614 44.8529C18.482 45.1769 18.416 45.5249 18.416 45.8969C18.416 46.2689 18.482 46.6169 18.614 46.9409C18.758 47.2649 18.95 47.5469 19.19 47.7869C19.43 48.0269 19.712 48.2129 20.036 48.3449C20.36 48.4889 20.708 48.5609 21.08 48.5609C21.452 48.5609 21.8 48.4889 22.124 48.3449C22.448 48.2129 22.73 48.0269 22.97 47.7869C23.21 47.5469 23.396 47.2649 23.528 46.9409C23.672 46.6169 23.744 46.2689 23.744 45.8969C23.744 45.5249 23.672 45.1769 23.528 44.8529C23.396 44.5289 23.21 44.2469 22.97 44.0069C22.73 43.7669 22.448 43.5749 22.124 43.4309C21.8 43.2989 21.452 43.2329 21.08 43.2329ZM11 57.6759H13.016V52.8699C13.256 52.9299 13.538 53.0679 13.862 53.2839C14.198 53.4999 14.54 53.7999 14.888 54.1839L16.22 55.6239C16.544 55.9839 16.856 56.2899 17.156 56.5419C17.468 56.7939 17.786 56.9979 18.11 57.1539C18.434 57.3099 18.77 57.4239 19.118 57.4959C19.478 57.5679 19.862 57.6039 20.27 57.6039C21.386 57.6039 22.244 57.2919 22.844 56.6679C23.444 56.0439 23.744 55.0839 23.744 53.7879C23.744 52.4199 23.426 51.4179 22.79 50.7819C22.154 50.1459 21.242 49.8279 20.054 49.8279H19.568V52.3119C19.904 52.3119 20.222 52.3239 20.522 52.3479C20.822 52.3839 21.086 52.4499 21.314 52.5459C21.542 52.6539 21.722 52.7979 21.854 52.9779C21.986 53.1699 22.052 53.4279 22.052 53.7519C22.052 54.5919 21.524 55.0119 20.468 55.0119C20.144 55.0119 19.856 54.9939 19.604 54.9579C19.352 54.9339 19.118 54.8739 18.902 54.7779C18.686 54.6819 18.47 54.5439 18.254 54.3639C18.038 54.1959 17.804 53.9679 17.552 53.6799L16.58 52.6359C16.148 52.1679 15.716 51.7539 15.284 51.3939C14.864 51.0459 14.432 50.7519 13.988 50.5119C13.544 50.2839 13.076 50.1099 12.584 49.9899C12.092 49.8819 11.564 49.8279 11 49.8279L11 57.6759ZM14.636 60.9963C14.948 60.9963 15.236 61.0143 15.5 61.0503C15.764 61.0983 15.992 61.1763 16.184 61.2843C16.388 61.4043 16.544 61.5603 16.652 61.7523C16.772 61.9443 16.832 62.1843 16.832 62.4723C16.832 62.7603 16.772 63.0003 16.652 63.1923C16.544 63.3843 16.388 63.5343 16.184 63.6423C15.992 63.7623 15.764 63.8403 15.5 63.8763C15.236 63.9243 14.948 63.9483 14.636 63.9483C14.336 63.9483 14.048 63.9243 13.772 63.8763C13.508 63.8403 13.274 63.7623 13.07 63.6423C12.878 63.5343 12.722 63.3843 12.602 63.1923C12.494 63.0003 12.44 62.7603 12.44 62.4723C12.44 62.1843 12.494 61.9443 12.602 61.7523C12.722 61.5603 12.878 61.4043 13.07 61.2843C13.274 61.1763 13.508 61.0983 13.772 61.0503C14.048 61.0143 14.336 60.9963 14.636 60.9963ZM20.306 61.2123C21.47 61.2123 22.052 61.6323 22.052 62.4723C22.052 63.3123 21.47 63.7323 20.306 63.7323C19.694 63.7323 19.244 63.6183 18.956 63.3903C18.668 63.1623 18.524 62.8563 18.524 62.4723C18.524 62.0883 18.668 61.7823 18.956 61.5543C19.244 61.3263 19.694 61.2123 20.306 61.2123ZM14.6 58.4043C14.228 58.4043 13.82 58.4463 13.376 58.5303C12.932 58.6263 12.518 58.8183 12.134 59.1063C11.75 59.3943 11.432 59.8023 11.18 60.3303C10.928 60.8703 10.802 61.5843 10.802 62.4723C10.802 63.3603 10.928 64.0683 11.18 64.5963C11.432 65.1363 11.75 65.5503 12.134 65.8383C12.518 66.1263 12.932 66.3123 13.376 66.3963C13.82 66.4923 14.228 66.5403 14.6 66.5403C15.404 66.5403 16.094 66.3603 16.67 66.0003C17.246 65.6403 17.606 65.1003 17.75 64.3803H17.786C17.87 64.7163 18.002 64.9983 18.182 65.2263C18.362 65.4663 18.566 65.6583 18.794 65.8023C19.022 65.9463 19.262 66.0483 19.514 66.1083C19.766 66.1803 20.006 66.2163 20.234 66.2163C21.482 66.2163 22.376 65.8803 22.916 65.2083C23.468 64.5483 23.744 63.6363 23.744 62.4723C23.744 61.3083 23.468 60.3903 22.916 59.7183C22.376 59.0583 21.482 58.7283 20.234 58.7283C20.006 58.7283 19.766 58.7583 19.514 58.8183C19.262 58.8783 19.022 58.9803 18.794 59.1243C18.566 59.2683 18.362 59.4543 18.182 59.6823C18.002 59.9223 17.87 60.2163 17.786 60.5643H17.75C17.606 59.8443 17.246 59.3043 16.67 58.9443C16.094 58.5843 15.404 58.4043 14.6 58.4043ZM23.852 69.9508V72.3988L19.208 69.3568V67.6288L23.852 69.9508ZM15.77 72.502H13.646V77.038H11V79.414H13.646V80.638H15.662V79.414H23.744V76.732L15.77 72.502ZM20.504 77.038H15.662V74.518L20.504 77.002V77.038ZM14.96 83.8684C15.824 83.8684 16.442 83.9764 16.814 84.1924C17.186 84.4084 17.372 84.7744 17.372 85.2904C17.372 85.7944 17.186 86.1544 16.814 86.3704C16.442 86.5864 15.824 86.6944 14.96 86.6944C14.6 86.6944 14.264 86.6764 13.952 86.6404C13.652 86.6164 13.388 86.5564 13.16 86.4604C12.932 86.3644 12.752 86.2204 12.62 86.0284C12.5 85.8484 12.44 85.6024 12.44 85.2904C12.44 84.9904 12.5 84.7444 12.62 84.5524C12.752 84.3724 12.926 84.2284 13.142 84.1204C13.37 84.0244 13.64 83.9584 13.952 83.9224C14.264 83.8864 14.6 83.8684 14.96 83.8684ZM20.504 86.4964L20.504 88.9804C21.116 88.9684 21.626 88.8604 22.034 88.6564C22.454 88.4644 22.79 88.2064 23.042 87.8824C23.294 87.5584 23.474 87.1804 23.582 86.7484C23.69 86.3284 23.744 85.8904 23.744 85.4344C23.744 84.3784 23.546 83.5624 23.15 82.9864C22.754 82.4104 22.226 81.9844 21.566 81.7084C20.918 81.4444 20.168 81.2824 19.316 81.2224C18.476 81.1744 17.606 81.1504 16.706 81.1504C15.926 81.1504 15.176 81.1924 14.456 81.2764C13.736 81.3604 13.1 81.5404 12.548 81.8164C12.008 82.1044 11.582 82.5124 11.27 83.0404C10.958 83.5684 10.802 84.2764 10.802 85.1644C10.802 86.6044 11.18 87.6484 11.936 88.2964C12.704 88.9564 13.826 89.2864 15.302 89.2864C15.878 89.2864 16.406 89.2264 16.886 89.1064C17.378 88.9984 17.798 88.8184 18.146 88.5664C18.506 88.3264 18.782 88.0084 18.974 87.6124C19.178 87.2164 19.28 86.7364 19.28 86.1724C19.28 85.5964 19.178 85.1044 18.974 84.6964C18.782 84.3004 18.518 83.9944 18.182 83.7784V83.7424H18.812C19.28 83.7424 19.712 83.7604 20.108 83.7964C20.504 83.8324 20.846 83.9044 21.134 84.0124C21.422 84.1324 21.644 84.2944 21.8 84.4984C21.968 84.7144 22.052 84.9904 22.052 85.3264C22.052 85.7584 21.92 86.0584 21.656 86.2264C21.392 86.4064 21.008 86.4964 20.504 86.4964ZM13.808 92.8949V90.5189H11L11 92.8949H13.808ZM14.726 96.7151V94.2311H14.672C13.436 94.2311 12.482 94.5371 11.81 95.1491C11.138 95.7611 10.802 96.6851 10.802 97.9211C10.802 98.8091 10.916 99.5231 11.144 100.063C11.372 100.615 11.672 101.047 12.044 101.359C12.416 101.671 12.83 101.881 13.286 101.989C13.742 102.097 14.186 102.151 14.618 102.151C15.422 102.151 16.088 101.977 16.616 101.629C17.156 101.293 17.492 100.711 17.624 99.8831H17.66C17.792 100.495 18.098 100.969 18.578 101.305C19.07 101.653 19.7 101.827 20.468 101.827C21.596 101.827 22.424 101.503 22.952 100.855C23.48 100.219 23.744 99.3191 23.744 98.1551C23.744 96.9311 23.432 96.0011 22.808 95.3651C22.196 94.7291 21.254 94.4111 19.982 94.4111V96.7871C20.282 96.7871 20.558 96.7991 20.81 96.8231C21.062 96.8591 21.278 96.9251 21.458 97.0211C21.65 97.1171 21.794 97.2491 21.89 97.4171C21.998 97.5971 22.052 97.8251 22.052 98.1011C22.052 98.5211 21.926 98.8331 21.674 99.0371C21.422 99.2411 20.99 99.3431 20.378 99.3431C20.114 99.3431 19.862 99.3131 19.622 99.2531C19.382 99.2051 19.166 99.1211 18.974 99.0011C18.794 98.8931 18.644 98.7431 18.524 98.5511C18.416 98.3711 18.362 98.1431 18.362 97.8671V97.0211H16.67V97.8851C16.67 98.2451 16.61 98.5331 16.49 98.7491C16.37 98.9651 16.208 99.1331 16.004 99.2531C15.8 99.3731 15.566 99.4511 15.302 99.4871C15.05 99.5351 14.78 99.5591 14.492 99.5591C14.216 99.5591 13.952 99.5411 13.7 99.5051C13.448 99.4811 13.226 99.4151 13.034 99.3071C12.854 99.2111 12.71 99.0671 12.602 98.8751C12.494 98.6951 12.44 98.4491 12.44 98.1371C12.44 97.5731 12.632 97.1951 13.016 97.0031C13.412 96.8231 13.982 96.7271 14.726 96.7151ZM23.852 107.254H21.044V108.19H20.756C20.42 108.19 20.114 108.112 19.838 107.956C19.562 107.8 19.394 107.566 19.334 107.254H18.074C18.122 107.734 18.236 108.124 18.416 108.424C18.608 108.736 18.848 108.982 19.136 109.162C19.436 109.342 19.784 109.462 20.18 109.522C20.588 109.594 21.032 109.63 21.512 109.63H23.852V107.254ZM23.852 103.744H21.044V104.68H20.756C20.42 104.68 20.114 104.602 19.838 104.446C19.562 104.29 19.394 104.056 19.334 103.744H18.074C18.122 104.224 18.236 104.614 18.416 104.914C18.608 105.226 18.848 105.472 19.136 105.652C19.436 105.832 19.784 105.952 20.18 106.012C20.588 106.084 21.032 106.12 21.512 106.12H23.852V103.744ZM23.852 114.74L23.852 111.752H11L11 114.128H20V114.164L11 117.332V120.284H23.852V117.908H15.05V117.872L23.852 114.74ZM11 133.112V135.704H23.744V133.796C23.024 133.664 22.502 133.346 22.178 132.842C21.854 132.35 21.692 131.672 21.692 130.808V130.574H20V133.112H11ZM11 146.656H13.016L13.016 141.85C13.256 141.91 13.538 142.048 13.862 142.264C14.198 142.48 14.54 142.78 14.888 143.164L16.22 144.604C16.544 144.964 16.856 145.27 17.156 145.522C17.468 145.774 17.786 145.978 18.11 146.134C18.434 146.29 18.77 146.404 19.118 146.476C19.478 146.548 19.862 146.584 20.27 146.584C21.386 146.584 22.244 146.272 22.844 145.648C23.444 145.024 23.744 144.064 23.744 142.768C23.744 141.4 23.426 140.398 22.79 139.762C22.154 139.126 21.242 138.808 20.054 138.808H19.568V141.292C19.904 141.292 20.222 141.304 20.522 141.328C20.822 141.364 21.086 141.43 21.314 141.526C21.542 141.634 21.722 141.778 21.854 141.958C21.986 142.15 22.052 142.408 22.052 142.732C22.052 143.572 21.524 143.992 20.468 143.992C20.144 143.992 19.856 143.974 19.604 143.938C19.352 143.914 19.118 143.854 18.902 143.758C18.686 143.662 18.47 143.524 18.254 143.344C18.038 143.176 17.804 142.948 17.552 142.66L16.58 141.616C16.148 141.148 15.716 140.734 15.284 140.374C14.864 140.026 14.432 139.732 13.988 139.492C13.544 139.264 13.076 139.09 12.584 138.97C12.092 138.862 11.564 138.808 11 138.808V146.656ZM16.94 147.457C15.812 147.457 14.852 147.517 14.06 147.637C13.28 147.769 12.644 147.985 12.152 148.285C11.66 148.597 11.312 149.011 11.108 149.527C10.904 150.043 10.802 150.685 10.802 151.453C10.802 152.401 10.982 153.139 11.342 153.667C11.702 154.207 12.194 154.609 12.818 154.873C13.454 155.137 14.18 155.299 14.996 155.359C15.812 155.419 16.664 155.449 17.552 155.449C18.68 155.449 19.634 155.383 20.414 155.251C21.206 155.131 21.848 154.915 22.34 154.603C22.832 154.303 23.186 153.895 23.402 153.379C23.63 152.875 23.744 152.233 23.744 151.453C23.744 150.505 23.552 149.761 23.168 149.221C22.796 148.693 22.292 148.297 21.656 148.033C21.032 147.769 20.312 147.607 19.496 147.547C18.68 147.487 17.828 147.457 16.94 147.457ZM16.382 150.049H17.768C18.584 150.049 19.268 150.067 19.82 150.103C20.372 150.151 20.81 150.223 21.134 150.319C21.47 150.427 21.704 150.571 21.836 150.751C21.98 150.931 22.052 151.165 22.052 151.453C22.052 151.729 21.998 151.957 21.89 152.137C21.782 152.317 21.578 152.461 21.278 152.569C20.99 152.677 20.588 152.749 20.072 152.785C19.568 152.833 18.914 152.857 18.11 152.857H16.724C15.908 152.857 15.224 152.833 14.672 152.785C14.12 152.749 13.676 152.677 13.34 152.569C13.016 152.473 12.782 152.335 12.638 152.155C12.506 151.975 12.44 151.741 12.44 151.453C12.44 151.177 12.494 150.949 12.602 150.769C12.71 150.589 12.908 150.445 13.196 150.337C13.496 150.229 13.898 150.151 14.402 150.103C14.918 150.067 15.578 150.049 16.382 150.049ZM21.08 158.085C21.44 158.085 21.746 158.211 21.998 158.463C22.25 158.715 22.376 159.021 22.376 159.381C22.376 159.741 22.25 160.047 21.998 160.299C21.746 160.551 21.44 160.677 21.08 160.677C20.72 160.677 20.414 160.551 20.162 160.299C19.91 160.047 19.784 159.741 19.784 159.381C19.784 159.021 19.91 158.715 20.162 158.463C20.414 158.211 20.72 158.085 21.08 158.085ZM21.08 156.717C20.708 156.717 20.36 156.783 20.036 156.915C19.712 157.059 19.43 157.251 19.19 157.491C18.95 157.731 18.758 158.013 18.614 158.337C18.482 158.661 18.416 159.009 18.416 159.381C18.416 159.753 18.482 160.101 18.614 160.425C18.758 160.749 18.95 161.031 19.19 161.271C19.43 161.511 19.712 161.697 20.036 161.829C20.36 161.973 20.708 162.045 21.08 162.045C21.452 162.045 21.8 161.973 22.124 161.829C22.448 161.697 22.73 161.511 22.97 161.271C23.21 161.031 23.396 160.749 23.528 160.425C23.672 160.101 23.744 159.753 23.744 159.381C23.744 159.009 23.672 158.661 23.528 158.337C23.396 158.013 23.21 157.731 22.97 157.491C22.73 157.251 22.448 157.059 22.124 156.915C21.8 156.783 21.452 156.717 21.08 156.717ZM11 166.264V168.856H23.744L23.744 166.948C23.024 166.816 22.502 166.498 22.178 165.994C21.854 165.502 21.692 164.824 21.692 163.96V163.726H20L20 166.264H11ZM16.94 171.961C15.812 171.961 14.852 172.021 14.06 172.141C13.28 172.273 12.644 172.489 12.152 172.789C11.66 173.101 11.312 173.515 11.108 174.031C10.904 174.547 10.802 175.189 10.802 175.957C10.802 176.905 10.982 177.643 11.342 178.171C11.702 178.711 12.194 179.113 12.818 179.377C13.454 179.641 14.18 179.803 14.996 179.863C15.812 179.923 16.664 179.953 17.552 179.953C18.68 179.953 19.634 179.887 20.414 179.755C21.206 179.635 21.848 179.419 22.34 179.107C22.832 178.807 23.186 178.399 23.402 177.883C23.63 177.379 23.744 176.737 23.744 175.957C23.744 175.009 23.552 174.265 23.168 173.725C22.796 173.197 22.292 172.801 21.656 172.537C21.032 172.273 20.312 172.111 19.496 172.051C18.68 171.991 17.828 171.961 16.94 171.961ZM16.382 174.553H17.768C18.584 174.553 19.268 174.571 19.82 174.607C20.372 174.655 20.81 174.727 21.134 174.823C21.47 174.931 21.704 175.075 21.836 175.255C21.98 175.435 22.052 175.669 22.052 175.957C22.052 176.233 21.998 176.461 21.89 176.641C21.782 176.821 21.578 176.965 21.278 177.073C20.99 177.181 20.588 177.253 20.072 177.289C19.568 177.337 18.914 177.361 18.11 177.361H16.724C15.908 177.361 15.224 177.337 14.672 177.289C14.12 177.253 13.676 177.181 13.34 177.073C13.016 176.977 12.782 176.839 12.638 176.659C12.506 176.479 12.44 176.245 12.44 175.957C12.44 175.681 12.494 175.453 12.602 175.273C12.71 175.093 12.908 174.949 13.196 174.841C13.496 174.733 13.898 174.655 14.402 174.607C14.918 174.571 15.578 174.553 16.382 174.553ZM23.852 183.435V185.883L19.208 182.841V181.113L23.852 183.435ZM14.726 188.578V186.094H14.672C13.436 186.094 12.482 186.4 11.81 187.012C11.138 187.624 10.802 188.548 10.802 189.784C10.802 190.672 10.916 191.386 11.144 191.926C11.372 192.478 11.672 192.91 12.044 193.222C12.416 193.534 12.83 193.744 13.286 193.852C13.742 193.96 14.186 194.014 14.618 194.014C15.422 194.014 16.088 193.84 16.616 193.492C17.156 193.156 17.492 192.574 17.624 191.746H17.66C17.792 192.358 18.098 192.832 18.578 193.168C19.07 193.516 19.7 193.69 20.468 193.69C21.596 193.69 22.424 193.366 22.952 192.718C23.48 192.082 23.744 191.182 23.744 190.018C23.744 188.794 23.432 187.864 22.808 187.228C22.196 186.592 21.254 186.274 19.982 186.274V188.65C20.282 188.65 20.558 188.662 20.81 188.686C21.062 188.722 21.278 188.788 21.458 188.884C21.65 188.98 21.794 189.112 21.89 189.28C21.998 189.46 22.052 189.688 22.052 189.964C22.052 190.384 21.926 190.696 21.674 190.9C21.422 191.104 20.99 191.206 20.378 191.206C20.114 191.206 19.862 191.176 19.622 191.116C19.382 191.068 19.166 190.984 18.974 190.864C18.794 190.756 18.644 190.606 18.524 190.414C18.416 190.234 18.362 190.006 18.362 189.73V188.884H16.67V189.748C16.67 190.108 16.61 190.396 16.49 190.612C16.37 190.828 16.208 190.996 16.004 191.116C15.8 191.236 15.566 191.314 15.302 191.35C15.05 191.398 14.78 191.422 14.492 191.422C14.216 191.422 13.952 191.404 13.7 191.368C13.448 191.344 13.226 191.278 13.034 191.17C12.854 191.074 12.71 190.93 12.602 190.738C12.494 190.558 12.44 190.312 12.44 190C12.44 189.436 12.632 189.058 13.016 188.866C13.412 188.686 13.982 188.59 14.726 188.578ZM11 202.555H13.016V197.749C13.256 197.809 13.538 197.947 13.862 198.163C14.198 198.379 14.54 198.679 14.888 199.063L16.22 200.503C16.544 200.863 16.856 201.169 17.156 201.421C17.468 201.673 17.786 201.877 18.11 202.033C18.434 202.189 18.77 202.303 19.118 202.375C19.478 202.447 19.862 202.483 20.27 202.483C21.386 202.483 22.244 202.171 22.844 201.547C23.444 200.923 23.744 199.963 23.744 198.667C23.744 197.299 23.426 196.297 22.79 195.661C22.154 195.025 21.242 194.707 20.054 194.707H19.568V197.191C19.904 197.191 20.222 197.203 20.522 197.227C20.822 197.263 21.086 197.329 21.314 197.425C21.542 197.533 21.722 197.677 21.854 197.857C21.986 198.049 22.052 198.307 22.052 198.631C22.052 199.471 21.524 199.891 20.468 199.891C20.144 199.891 19.856 199.873 19.604 199.837C19.352 199.813 19.118 199.753 18.902 199.657C18.686 199.561 18.47 199.423 18.254 199.243C18.038 199.075 17.804 198.847 17.552 198.559L16.58 197.515C16.148 197.047 15.716 196.633 15.284 196.273C14.864 195.925 14.432 195.631 13.988 195.391C13.544 195.163 13.076 194.989 12.584 194.869C12.092 194.761 11.564 194.707 11 194.707V202.555ZM13.808 206.379V204.003H11V206.379H13.808ZM14.96 210.325C15.824 210.325 16.442 210.433 16.814 210.649C17.186 210.865 17.372 211.231 17.372 211.747C17.372 212.251 17.186 212.611 16.814 212.827C16.442 213.043 15.824 213.151 14.96 213.151C14.6 213.151 14.264 213.133 13.952 213.097C13.652 213.073 13.388 213.013 13.16 212.917C12.932 212.821 12.752 212.677 12.62 212.485C12.5 212.305 12.44 212.059 12.44 211.747C12.44 211.447 12.5 211.201 12.62 211.009C12.752 210.829 12.926 210.685 13.142 210.577C13.37 210.481 13.64 210.415 13.952 210.379C14.264 210.343 14.6 210.325 14.96 210.325ZM20.504 212.953V215.437C21.116 215.425 21.626 215.317 22.034 215.113C22.454 214.921 22.79 214.663 23.042 214.339C23.294 214.015 23.474 213.637 23.582 213.205C23.69 212.785 23.744 212.347 23.744 211.891C23.744 210.835 23.546 210.019 23.15 209.443C22.754 208.867 22.226 208.441 21.566 208.165C20.918 207.901 20.168 207.739 19.316 207.679C18.476 207.631 17.606 207.607 16.706 207.607C15.926 207.607 15.176 207.649 14.456 207.733C13.736 207.817 13.1 207.997 12.548 208.273C12.008 208.561 11.582 208.969 11.27 209.497C10.958 210.025 10.802 210.733 10.802 211.621C10.802 213.061 11.18 214.105 11.936 214.753C12.704 215.413 13.826 215.743 15.302 215.743C15.878 215.743 16.406 215.683 16.886 215.563C17.378 215.455 17.798 215.275 18.146 215.023C18.506 214.783 18.782 214.465 18.974 214.069C19.178 213.673 19.28 213.193 19.28 212.629C19.28 212.053 19.178 211.561 18.974 211.153C18.782 210.757 18.518 210.451 18.182 210.235V210.199H18.812C19.28 210.199 19.712 210.217 20.108 210.253C20.504 210.289 20.846 210.361 21.134 210.469C21.422 210.589 21.644 210.751 21.8 210.955C21.968 211.171 22.052 211.447 22.052 211.783C22.052 212.215 21.92 212.515 21.656 212.683C21.392 212.863 21.008 212.953 20.504 212.953ZM23.852 220.738H21.044V221.674H20.756C20.42 221.674 20.114 221.596 19.838 221.44C19.562 221.284 19.394 221.05 19.334 220.738H18.074C18.122 221.218 18.236 221.608 18.416 221.908C18.608 222.22 18.848 222.466 19.136 222.646C19.436 222.826 19.784 222.946 20.18 223.006C20.588 223.078 21.032 223.114 21.512 223.114H23.852V220.738ZM23.852 217.228H21.044V218.164H20.756C20.42 218.164 20.114 218.086 19.838 217.93C19.562 217.774 19.394 217.54 19.334 217.228H18.074C18.122 217.708 18.236 218.098 18.416 218.398C18.608 218.71 18.848 218.956 19.136 219.136C19.436 219.316 19.784 219.436 20.18 219.496C20.588 219.568 21.032 219.604 21.512 219.604H23.852V217.228ZM23.852 232.418L23.852 225.236H11L11 232.598H13.124V227.828H16.58V232.148H18.704V227.828H21.728L21.728 232.418H23.852Z" fill="#F0F4F9"/>
<path d="M57.248 180.624V234H75.104V180.624H88.544V165.456H44V180.624H57.248ZM108.984 199.728C108.984 195.12 109.048 191.312 109.176 188.304C109.304 185.232 109.56 182.8 109.944 181.008C110.392 179.216 111 177.968 111.768 177.264C112.6 176.56 113.688 176.208 115.032 176.208C116.376 176.208 117.432 176.56 118.2 177.264C119.032 177.968 119.64 179.216 120.024 181.008C120.472 182.8 120.76 185.232 120.888 188.304C121.016 191.312 121.08 195.12 121.08 199.728C121.08 204.336 121.016 208.176 120.888 211.248C120.76 214.256 120.472 216.656 120.024 218.448C119.64 220.24 119.032 221.488 118.2 222.192C117.432 222.896 116.376 223.248 115.032 223.248C113.688 223.248 112.6 222.896 111.768 222.192C111 221.488 110.392 220.24 109.944 218.448C109.56 216.656 109.304 214.256 109.176 211.248C109.048 208.176 108.984 204.336 108.984 199.728ZM90.5518 199.728C90.5518 206.128 90.9678 211.6 91.7998 216.144C92.6318 220.624 94.0078 224.304 95.9278 227.184C97.8478 230 100.376 232.016 103.512 233.232C106.648 234.448 110.488 235.056 115.032 235.056C119.576 235.056 123.416 234.448 126.552 233.232C129.688 232.016 132.216 230 134.136 227.184C136.056 224.304 137.432 220.624 138.264 216.144C139.096 211.6 139.512 206.128 139.512 199.728C139.512 193.328 139.096 187.888 138.264 183.408C137.432 178.864 136.056 175.184 134.136 172.368C132.216 169.488 129.688 167.408 126.552 166.128C123.416 164.784 119.576 164.112 115.032 164.112C110.488 164.112 106.648 164.784 103.512 166.128C100.376 167.408 97.8478 169.488 95.9278 172.368C94.0078 175.184 92.6318 178.864 91.7998 183.408C90.9678 187.888 90.5518 193.328 90.5518 199.728ZM163.096 195.024V178.32H166.456C171.064 178.32 173.368 181.104 173.368 186.672C173.368 189.552 172.76 191.664 171.544 193.008C170.392 194.352 168.696 195.024 166.456 195.024H163.096ZM145.24 165.456V234H163.096V207.888H169.336C176.696 207.888 182.264 206.128 186.04 202.608C189.88 199.024 191.8 193.68 191.8 186.576C191.8 183.568 191.416 180.784 190.648 178.224C189.88 175.664 188.664 173.456 187 171.6C185.4 169.68 183.352 168.176 180.856 167.088C178.36 166 175.416 165.456 172.024 165.456H145.24ZM213.506 213.072C213.506 208.72 213.922 205.776 214.754 204.24C215.586 202.704 216.834 201.936 218.498 201.936C220.354 201.936 221.634 202.704 222.338 204.24C223.106 205.776 223.49 208.72 223.49 213.072C223.49 217.424 223.074 220.368 222.242 221.904C221.41 223.44 220.162 224.208 218.498 224.208C216.642 224.208 215.33 223.44 214.562 221.904C213.858 220.368 213.506 217.424 213.506 213.072ZM223.298 183.504H240.002C240.002 181.264 239.682 179.088 239.042 176.976C238.466 174.864 237.378 173.008 235.778 171.408C234.178 169.744 231.97 168.432 229.154 167.472C226.402 166.512 222.85 166.032 218.498 166.032C213.442 166.032 209.378 166.768 206.306 168.24C203.234 169.712 200.866 171.856 199.202 174.672C197.538 177.424 196.418 180.848 195.842 184.944C195.33 188.976 195.074 193.616 195.074 198.864V206.448C195.074 212.016 195.554 216.656 196.514 220.368C197.538 224.016 199.01 226.96 200.93 229.2C202.914 231.376 205.378 232.912 208.322 233.808C211.266 234.64 214.69 235.056 218.594 235.056C222.242 235.056 225.474 234.64 228.29 233.808C231.106 232.912 233.474 231.472 235.394 229.488C237.378 227.44 238.85 224.784 239.81 221.52C240.834 218.256 241.346 214.32 241.346 209.712C241.346 205.744 240.962 202.448 240.194 199.824C239.426 197.136 238.306 195.024 236.834 193.488C235.426 191.888 233.73 190.768 231.746 190.128C229.762 189.424 227.554 189.072 225.122 189.072C222.434 189.072 220.034 189.552 217.922 190.512C215.874 191.472 214.466 192.784 213.698 194.448H213.506V183.6C213.506 181.424 213.986 179.824 214.946 178.8C215.97 177.712 217.122 177.168 218.402 177.168C220.066 177.168 221.25 177.616 221.954 178.512C222.786 179.536 223.234 181.2 223.298 183.504Z" fill="#F0F4F9"/>
<path d="M414.584 189.288V193.128H431.864V188.808C431.864 185.48 431.448 182.504 430.616 179.88C429.848 177.192 428.568 174.92 426.776 173.064C425.048 171.144 422.776 169.672 419.96 168.648C417.144 167.624 413.72 167.112 409.688 167.112C405.08 167.112 401.208 167.752 398.072 169.032C394.936 170.248 392.408 172.264 390.488 175.08C388.568 177.896 387.192 181.576 386.36 186.12C385.592 190.664 385.208 196.2 385.208 202.728C385.208 209.128 385.528 214.6 386.168 219.144C386.872 223.624 388.12 227.304 389.912 230.184C391.704 233 394.2 235.016 397.4 236.232C400.6 237.448 404.696 238.056 409.688 238.056C412.568 238.056 415.352 237.736 418.04 237.096C420.792 236.52 423.224 235.368 425.336 233.64C427.448 231.848 429.144 229.416 430.424 226.344C431.704 223.272 432.344 219.336 432.344 214.536V209.448H415.064C415.064 212.712 414.968 215.432 414.776 217.608C414.648 219.72 414.392 221.416 414.008 222.696C413.624 223.976 413.08 224.904 412.376 225.48C411.672 225.992 410.776 226.248 409.688 226.248C408.344 226.248 407.256 225.896 406.424 225.192C405.656 224.488 405.048 223.24 404.6 221.448C404.216 219.656 403.96 217.256 403.832 214.248C403.704 211.176 403.64 207.336 403.64 202.728C403.64 198.12 403.704 194.312 403.832 191.304C403.96 188.232 404.216 185.8 404.6 184.008C405.048 182.216 405.656 180.968 406.424 180.264C407.256 179.56 408.344 179.208 409.688 179.208C411.416 179.208 412.664 179.912 413.432 181.32C414.2 182.728 414.584 185.384 414.584 189.288ZM438.115 168.456V237H455.971V168.456H438.115ZM486.092 182.472L481.196 211.56H491.18L486.284 182.472H486.092ZM497.42 168.456L514.124 237H495.116L493.292 225H479.084L477.26 237H458.54L474.956 168.456H497.42ZM533.484 202.728C533.484 198.12 533.548 194.312 533.676 191.304C533.804 188.232 534.06 185.8 534.444 184.008C534.892 182.216 535.5 180.968 536.268 180.264C537.1 179.56 538.188 179.208 539.532 179.208C540.876 179.208 541.932 179.56 542.7 180.264C543.532 180.968 544.14 182.216 544.524 184.008C544.972 185.8 545.26 188.232 545.388 191.304C545.516 194.312 545.58 198.12 545.58 202.728C545.58 207.336 545.516 211.176 545.388 214.248C545.26 217.256 544.972 219.656 544.524 221.448C544.14 223.24 543.532 224.488 542.7 225.192C541.932 225.896 540.876 226.248 539.532 226.248C538.188 226.248 537.1 225.896 536.268 225.192C535.5 224.488 534.892 223.24 534.444 221.448C534.06 219.656 533.804 217.256 533.676 214.248C533.548 211.176 533.484 207.336 533.484 202.728ZM515.052 202.728C515.052 209.128 515.468 214.6 516.3 219.144C517.132 223.624 518.508 227.304 520.428 230.184C522.348 233 524.876 235.016 528.012 236.232C531.148 237.448 534.988 238.056 539.532 238.056C544.076 238.056 547.916 237.448 551.052 236.232C554.188 235.016 556.716 233 558.636 230.184C560.556 227.304 561.932 223.624 562.764 219.144C563.596 214.6 564.012 209.128 564.012 202.728C564.012 196.328 563.596 190.888 562.764 186.408C561.932 181.864 560.556 178.184 558.636 175.368C556.716 172.488 554.188 170.408 551.052 169.128C547.916 167.784 544.076 167.112 539.532 167.112C534.988 167.112 531.148 167.784 528.012 169.128C524.876 170.408 522.348 172.488 520.428 175.368C518.508 178.184 517.132 181.864 516.3 186.408C515.468 190.888 515.052 196.328 515.052 202.728Z" fill="#F0F4F9"/>
<line x1="232" y1="128.5" x2="566.09" y2="128.5" stroke="#F0F4F9" stroke-width="3"/>
<line x1="272" y1="163" x2="272" y2="238" stroke="#F0F4F9" stroke-width="6"/>
<line x1="230.586" y1="78.7989" x2="251.799" y2="57.5857" stroke="#F0F4F9" stroke-width="4"/>
<line x1="251.799" y1="78.6273" x2="230.586" y2="57.4141" stroke="#F0F4F9" stroke-width="4"/>
<line x1="356" y1="163" x2="356" y2="238" stroke="#F0F4F9" stroke-width="6"/>
</svg>
