<svg width="745" height="305" viewBox="0 0 745 305" fill="none" xmlns="http://www.w3.org/2000/svg">
<path d="M86.224 134.456V203H112.144C117.328 203 121.36 202.072 124.24 200.216C127.12 198.296 129.264 195.768 130.672 192.632C132.144 189.432 133.04 185.784 133.36 181.688C133.68 177.528 133.84 173.208 133.84 168.728C133.84 164.248 133.68 159.96 133.36 155.864C133.04 151.704 132.144 148.056 130.672 144.92C129.264 141.72 127.12 139.192 124.24 137.336C121.36 135.416 117.328 134.456 112.144 134.456H86.224ZM104.08 190.136V147.32H107.632C109.36 147.32 110.736 147.576 111.76 148.088C112.784 148.536 113.552 149.528 114.064 151.064C114.64 152.6 114.992 154.776 115.12 157.592C115.312 160.408 115.408 164.12 115.408 168.728C115.408 173.336 115.312 177.048 115.12 179.864C114.992 182.68 114.64 184.856 114.064 186.392C113.552 187.928 112.784 188.952 111.76 189.464C110.736 189.912 109.36 190.136 107.632 190.136H104.08ZM141.349 134.456V203H182.821V188.408H159.205V174.776H180.517V160.76H159.205V149.048H181.957V134.456H141.349ZM216.709 155.288V159.128H233.989V154.808C233.989 151.48 233.573 148.504 232.741 145.88C231.973 143.192 230.693 140.92 228.901 139.064C227.173 137.144 224.901 135.672 222.085 134.648C219.269 133.624 215.845 133.112 211.813 133.112C207.205 133.112 203.333 133.752 200.197 135.032C197.061 136.248 194.533 138.264 192.613 141.08C190.693 143.896 189.317 147.576 188.485 152.12C187.717 156.664 187.333 162.2 187.333 168.728C187.333 175.128 187.653 180.6 188.293 185.144C188.997 189.624 190.245 193.304 192.037 196.184C193.829 199 196.325 201.016 199.525 202.232C202.725 203.448 206.821 204.056 211.813 204.056C214.693 204.056 217.477 203.736 220.165 203.096C222.917 202.52 225.349 201.368 227.461 199.64C229.573 197.848 231.269 195.416 232.549 192.344C233.829 189.272 234.469 185.336 234.469 180.536V175.448H217.189C217.189 178.712 217.093 181.432 216.901 183.608C216.773 185.72 216.517 187.416 216.133 188.696C215.749 189.976 215.205 190.904 214.501 191.48C213.797 191.992 212.901 192.248 211.813 192.248C210.469 192.248 209.381 191.896 208.549 191.192C207.781 190.488 207.173 189.24 206.725 187.448C206.341 185.656 206.085 183.256 205.957 180.248C205.829 177.176 205.765 173.336 205.765 168.728C205.765 164.12 205.829 160.312 205.957 157.304C206.085 154.232 206.341 151.8 206.725 150.008C207.173 148.216 207.781 146.968 208.549 146.264C209.381 145.56 210.469 145.208 211.813 145.208C213.541 145.208 214.789 145.912 215.557 147.32C216.325 148.728 216.709 151.384 216.709 155.288ZM240.912 134.456V203H282.384V188.408H258.768V174.776H280.08V160.76H258.768V149.048H281.52V134.456H240.912ZM288.24 134.456V203H304.944V151.928H305.136L314.64 203H327.504L337.008 151.928H337.2V203H353.904V134.456H328.368L321.168 175.064H320.976L313.776 134.456H288.24ZM380.094 190.136V173.432H385.086C386.75 173.432 388.222 174.136 389.502 175.544C390.782 176.952 391.422 179 391.422 181.688C391.422 184.568 390.782 186.712 389.502 188.12C388.222 189.464 386.75 190.136 385.086 190.136H380.094ZM380.094 161.336V147.32H384.414C386.27 147.32 387.678 148.024 388.638 149.432C389.598 150.84 390.078 152.504 390.078 154.424C390.078 156.28 389.598 157.912 388.638 159.32C387.678 160.664 386.27 161.336 384.414 161.336H380.094ZM362.238 134.456V203H389.214C392.926 203 396.094 202.52 398.718 201.56C401.342 200.536 403.454 199.128 405.054 197.336C406.718 195.544 407.934 193.4 408.702 190.904C409.47 188.408 409.854 185.688 409.854 182.744C409.854 180.952 409.598 179.192 409.086 177.464C408.638 175.672 407.902 174.04 406.878 172.568C405.854 171.096 404.542 169.88 402.942 168.92C401.342 167.896 399.422 167.288 397.182 167.096V166.904C399.102 166.52 400.734 165.848 402.078 164.888C403.422 163.928 404.51 162.776 405.342 161.432C406.238 160.024 406.878 158.488 407.262 156.824C407.71 155.096 407.934 153.336 407.934 151.544C407.934 146.36 406.398 142.232 403.326 139.16C400.318 136.024 395.614 134.456 389.214 134.456H362.238ZM416.787 134.456V203H458.259V188.408H434.643V174.776H455.955V160.76H434.643V149.048H457.395V134.456H416.787ZM482.643 163.448V147.32H486.099C488.787 147.32 490.707 147.928 491.859 149.144C493.075 150.36 493.683 152.408 493.683 155.288C493.683 157.72 493.075 159.704 491.859 161.24C490.643 162.712 488.755 163.448 486.195 163.448H482.643ZM464.787 134.456V203H482.643V175.544H487.347C488.435 175.544 489.331 175.704 490.035 176.024C490.803 176.28 491.411 176.792 491.859 177.56C492.371 178.264 492.723 179.256 492.915 180.536C493.107 181.816 493.203 183.416 493.203 185.336V189.944C493.203 190.648 493.203 191.576 493.203 192.728C493.267 193.816 493.331 194.968 493.395 196.184C493.523 197.4 493.683 198.616 493.875 199.832C494.131 201.048 494.483 202.104 494.931 203H513.939V202.04C513.363 201.72 512.947 201.4 512.691 201.08C512.435 200.696 512.179 200.312 511.923 199.928C511.731 199.544 511.571 199 511.443 198.296C511.315 197.592 511.219 196.824 511.155 195.992C511.091 195.096 511.059 194.168 511.059 193.208C511.059 192.248 511.059 191.32 511.059 190.424V184.568C511.059 179.96 510.259 176.344 508.659 173.72C507.059 171.096 504.115 169.592 499.827 169.208V169.016C503.923 168.376 506.899 166.648 508.755 163.832C510.611 161.016 511.539 157.304 511.539 152.696C511.539 150.072 511.187 147.64 510.483 145.4C509.843 143.16 508.755 141.24 507.219 139.64C505.747 137.976 503.795 136.696 501.363 135.8C498.995 134.904 496.115 134.456 492.723 134.456H464.787ZM550.311 149.624V203H568.167V149.624H581.607V134.456H537.062V149.624H550.311ZM602.046 168.728C602.046 164.12 602.11 160.312 602.238 157.304C602.366 154.232 602.622 151.8 603.006 150.008C603.454 148.216 604.062 146.968 604.83 146.264C605.662 145.56 606.75 145.208 608.094 145.208C609.438 145.208 610.494 145.56 611.262 146.264C612.094 146.968 612.702 148.216 613.086 150.008C613.534 151.8 613.822 154.232 613.95 157.304C614.078 160.312 614.142 164.12 614.142 168.728C614.142 173.336 614.078 177.176 613.95 180.248C613.822 183.256 613.534 185.656 613.086 187.448C612.702 189.24 612.094 190.488 611.262 191.192C610.494 191.896 609.438 192.248 608.094 192.248C606.75 192.248 605.662 191.896 604.83 191.192C604.062 190.488 603.454 189.24 603.006 187.448C602.622 185.656 602.366 183.256 602.238 180.248C602.11 177.176 602.046 173.336 602.046 168.728ZM583.614 168.728C583.614 175.128 584.03 180.6 584.862 185.144C585.694 189.624 587.07 193.304 588.99 196.184C590.91 199 593.438 201.016 596.574 202.232C599.71 203.448 603.55 204.056 608.094 204.056C612.638 204.056 616.478 203.448 619.614 202.232C622.75 201.016 625.278 199 627.198 196.184C629.118 193.304 630.494 189.624 631.326 185.144C632.158 180.6 632.574 175.128 632.574 168.728C632.574 162.328 632.158 156.888 631.326 152.408C630.494 147.864 629.118 144.184 627.198 141.368C625.278 138.488 622.75 136.408 619.614 135.128C616.478 133.784 612.638 133.112 608.094 133.112C603.55 133.112 599.71 133.784 596.574 135.128C593.438 136.408 590.91 138.488 588.99 141.368C587.07 144.184 585.694 147.864 584.862 152.408C584.03 156.888 583.614 162.328 583.614 168.728ZM656.158 164.024V147.32H659.518C664.126 147.32 666.43 150.104 666.43 155.672C666.43 158.552 665.822 160.664 664.606 162.008C663.454 163.352 661.758 164.024 659.518 164.024H656.158ZM638.302 134.456V203H656.158V176.888H662.398C669.758 176.888 675.326 175.128 679.102 171.608C682.942 168.024 684.862 162.68 684.862 155.576C684.862 152.568 684.478 149.784 683.71 147.224C682.942 144.664 681.726 142.456 680.062 140.6C678.462 138.68 676.414 137.176 673.918 136.088C671.422 135 668.478 134.456 665.086 134.456H638.302ZM706.569 182.072C706.569 177.72 706.985 174.776 707.817 173.24C708.649 171.704 709.897 170.936 711.561 170.936C713.417 170.936 714.697 171.704 715.401 173.24C716.169 174.776 716.553 177.72 716.553 182.072C716.553 186.424 716.137 189.368 715.305 190.904C714.473 192.44 713.225 193.208 711.561 193.208C709.705 193.208 708.393 192.44 707.625 190.904C706.921 189.368 706.569 186.424 706.569 182.072ZM716.361 152.504H733.065C733.065 150.264 732.745 148.088 732.105 145.976C731.529 143.864 730.441 142.008 728.841 140.408C727.241 138.744 725.033 137.432 722.217 136.472C719.465 135.512 715.913 135.032 711.561 135.032C706.505 135.032 702.441 135.768 699.369 137.24C696.297 138.712 693.929 140.856 692.265 143.672C690.601 146.424 689.481 149.848 688.905 153.944C688.393 157.976 688.137 162.616 688.137 167.864V175.448C688.137 181.016 688.617 185.656 689.577 189.368C690.601 193.016 692.073 195.96 693.993 198.2C695.977 200.376 698.441 201.912 701.385 202.808C704.329 203.64 707.753 204.056 711.656 204.056C715.305 204.056 718.537 203.64 721.353 202.808C724.169 201.912 726.537 200.472 728.457 198.488C730.441 196.44 731.913 193.784 732.873 190.52C733.897 187.256 734.409 183.32 734.409 178.712C734.409 174.744 734.025 171.448 733.257 168.824C732.489 166.136 731.369 164.024 729.897 162.488C728.489 160.888 726.793 159.768 724.809 159.128C722.825 158.424 720.617 158.072 718.185 158.072C715.497 158.072 713.097 158.552 710.984 159.512C708.937 160.472 707.529 161.784 706.761 163.448H706.569V152.6C706.569 150.424 707.049 148.824 708.009 147.8C709.033 146.712 710.185 146.168 711.465 146.168C713.129 146.168 714.313 146.616 715.017 147.512C715.849 148.536 716.297 150.2 716.361 152.504Z" fill="#F0F4F9"/>
<path d="M15.104 280.424V269.288H18.432C19.5413 269.288 20.5227 269.757 21.376 270.696C22.2293 271.635 22.656 273 22.656 274.792C22.656 276.712 22.2293 278.141 21.376 279.08C20.5227 279.976 19.5413 280.424 18.432 280.424H15.104ZM15.104 261.224V251.88H17.984C19.2213 251.88 20.16 252.349 20.8 253.288C21.44 254.227 21.76 255.336 21.76 256.616C21.76 257.853 21.44 258.941 20.8 259.88C20.16 260.776 19.2213 261.224 17.984 261.224H15.104ZM3.2 243.304V289H21.184C23.6587 289 25.7707 288.68 27.52 288.04C29.2693 287.357 30.6773 286.419 31.744 285.224C32.8533 284.029 33.664 282.6 34.176 280.936C34.688 279.272 34.944 277.459 34.944 275.496C34.944 274.301 34.7733 273.128 34.432 271.976C34.1333 270.781 33.6427 269.693 32.96 268.712C32.2773 267.731 31.4027 266.92 30.336 266.28C29.2693 265.597 27.9893 265.192 26.496 265.064V264.936C27.776 264.68 28.864 264.232 29.76 263.592C30.656 262.952 31.3813 262.184 31.936 261.288C32.5333 260.349 32.96 259.325 33.216 258.216C33.5147 257.064 33.664 255.891 33.664 254.696C33.664 251.24 32.64 248.488 30.592 246.44C28.5867 244.349 25.4507 243.304 21.184 243.304H3.2ZM39.566 243.304V289H67.214V279.272H51.47V270.184H65.678V260.84H51.47V253.032H66.638V243.304H39.566ZM89.358 256.488H100.494C100.494 251.581 99.3207 248.019 96.974 245.8C94.67 243.539 90.9153 242.408 85.71 242.408C80.6753 242.408 76.9207 243.624 74.446 246.056C71.9713 248.488 70.734 252.029 70.734 256.68C70.734 259.368 71.182 261.544 72.078 263.208C73.0167 264.872 74.1687 266.216 75.534 267.24C76.942 268.264 78.4567 269.096 80.078 269.736C81.6993 270.376 83.1927 271.016 84.558 271.656C85.966 272.253 87.118 273 88.014 273.896C88.9527 274.749 89.422 275.923 89.422 277.416C89.422 278.653 89.0807 279.699 88.398 280.552C87.758 281.405 86.8193 281.832 85.582 281.832C84.43 281.832 83.4913 281.448 82.766 280.68C82.0407 279.869 81.678 278.483 81.678 276.52V275.432H70.158V277.032C70.158 279.421 70.4993 281.427 71.182 283.048C71.8647 284.669 72.846 285.992 74.126 287.016C75.4487 287.997 77.0487 288.68 78.926 289.064C80.846 289.491 83.0433 289.704 85.518 289.704C90.766 289.704 94.7767 288.616 97.55 286.44C100.323 284.221 101.71 280.68 101.71 275.816C101.71 273.043 101.219 270.803 100.238 269.096C99.2993 267.347 98.1047 265.939 96.654 264.872C95.2033 263.805 93.646 262.952 91.982 262.312C90.318 261.629 88.7607 260.968 87.31 260.328C85.8593 259.688 84.6433 258.941 83.662 258.088C82.7233 257.192 82.254 255.997 82.254 254.504C82.254 253.48 82.5527 252.563 83.15 251.752C83.7473 250.899 84.686 250.472 85.966 250.472C87.118 250.472 87.9713 250.963 88.526 251.944C89.0807 252.883 89.358 254.035 89.358 255.4V256.488ZM111.957 253.416V289H123.861V253.416H132.821V243.304H103.125V253.416H111.957ZM151.681 243.304V289H163.585V243.304H151.681ZM174.77 253.416V289H186.674V253.416H195.634V243.304H165.938V253.416H174.77ZM198.316 243.304V289H225.964V279.272H210.22V270.184H224.428V260.84H210.22V253.032H225.388V243.304H198.316ZM229.868 243.304V289H241.004V254.952H241.132L247.468 289H256.044L262.38 254.952H262.508V289H273.644V243.304H256.62L251.82 270.376H251.692L246.892 243.304H229.868ZM296.608 256.488H307.744C307.744 251.581 306.571 248.019 304.224 245.8C301.92 243.539 298.165 242.408 292.96 242.408C287.925 242.408 284.171 243.624 281.696 246.056C279.221 248.488 277.984 252.029 277.984 256.68C277.984 259.368 278.432 261.544 279.328 263.208C280.267 264.872 281.419 266.216 282.784 267.24C284.192 268.264 285.707 269.096 287.328 269.736C288.949 270.376 290.443 271.016 291.808 271.656C293.216 272.253 294.368 273 295.264 273.896C296.203 274.749 296.672 275.923 296.672 277.416C296.672 278.653 296.331 279.699 295.648 280.552C295.008 281.405 294.069 281.832 292.832 281.832C291.68 281.832 290.741 281.448 290.016 280.68C289.291 279.869 288.928 278.483 288.928 276.52V275.432H277.408V277.032C277.408 279.421 277.749 281.427 278.432 283.048C279.115 284.669 280.096 285.992 281.376 287.016C282.699 287.997 284.299 288.68 286.176 289.064C288.096 289.491 290.293 289.704 292.768 289.704C298.016 289.704 302.027 288.616 304.8 286.44C307.573 284.221 308.96 280.68 308.96 275.816C308.96 273.043 308.469 270.803 307.488 269.096C306.549 267.347 305.355 265.939 303.904 264.872C302.453 263.805 300.896 262.952 299.232 262.312C297.568 261.629 296.011 260.968 294.56 260.328C293.109 259.688 291.893 258.941 290.912 258.088C289.973 257.192 289.504 255.997 289.504 254.504C289.504 253.48 289.803 252.563 290.4 251.752C290.997 250.899 291.936 250.472 293.216 250.472C294.368 250.472 295.221 250.963 295.776 251.944C296.331 252.883 296.608 254.035 296.608 255.4V256.488ZM340.76 266.152C340.76 263.08 340.803 260.541 340.888 258.536C340.973 256.488 341.144 254.867 341.4 253.672C341.699 252.477 342.104 251.645 342.616 251.176C343.171 250.707 343.896 250.472 344.792 250.472C345.688 250.472 346.392 250.707 346.904 251.176C347.459 251.645 347.864 252.477 348.12 253.672C348.419 254.867 348.611 256.488 348.696 258.536C348.781 260.541 348.824 263.08 348.824 266.152C348.824 269.224 348.781 271.784 348.696 273.832C348.611 275.837 348.419 277.437 348.12 278.632C347.864 279.827 347.459 280.659 346.904 281.128C346.392 281.597 345.688 281.832 344.792 281.832C343.896 281.832 343.171 281.597 342.616 281.128C342.104 280.659 341.699 279.827 341.4 278.632C341.144 277.437 340.973 275.837 340.888 273.832C340.803 271.784 340.76 269.224 340.76 266.152ZM328.472 266.152C328.472 270.419 328.749 274.067 329.304 277.096C329.859 280.083 330.776 282.536 332.056 284.456C333.336 286.333 335.021 287.677 337.112 288.488C339.203 289.299 341.763 289.704 344.792 289.704C347.821 289.704 350.381 289.299 352.472 288.488C354.563 287.677 356.248 286.333 357.528 284.456C358.808 282.536 359.725 280.083 360.28 277.096C360.835 274.067 361.112 270.419 361.112 266.152C361.112 261.885 360.835 258.259 360.28 255.272C359.725 252.243 358.808 249.789 357.528 247.912C356.248 245.992 354.563 244.605 352.472 243.752C350.381 242.856 347.821 242.408 344.792 242.408C341.763 242.408 339.203 242.856 337.112 243.752C335.021 244.605 333.336 245.992 332.056 247.912C330.776 249.789 329.859 252.243 329.304 255.272C328.749 258.259 328.472 261.885 328.472 266.152ZM365.379 243.304V289H377.283V270.184H391.491V260.84H377.283V253.032H392.451V243.304H365.379ZM416.457 253.416V289H428.361V253.416H437.321V243.304H407.625V253.416H416.457ZM440.004 243.304V289H451.908V270.184H459.204V289H471.108V243.304H459.204V260.072H451.908V243.304H440.004ZM476.306 243.304V289H488.21V243.304H476.306ZM511.171 256.488H522.307C522.307 251.581 521.133 248.019 518.787 245.8C516.483 243.539 512.728 242.408 507.523 242.408C502.488 242.408 498.733 243.624 496.259 246.056C493.784 248.488 492.547 252.029 492.547 256.68C492.547 259.368 492.995 261.544 493.891 263.208C494.829 264.872 495.981 266.216 497.347 267.24C498.755 268.264 500.269 269.096 501.891 269.736C503.512 270.376 505.005 271.016 506.371 271.656C507.779 272.253 508.931 273 509.827 273.896C510.765 274.749 511.235 275.923 511.235 277.416C511.235 278.653 510.893 279.699 510.211 280.552C509.571 281.405 508.632 281.832 507.395 281.832C506.243 281.832 505.304 281.448 504.579 280.68C503.853 279.869 503.491 278.483 503.491 276.52V275.432H491.971V277.032C491.971 279.421 492.312 281.427 492.995 283.048C493.677 284.669 494.659 285.992 495.939 287.016C497.261 287.997 498.861 288.68 500.739 289.064C502.659 289.491 504.856 289.704 507.331 289.704C512.579 289.704 516.589 288.616 519.363 286.44C522.136 284.221 523.523 280.68 523.523 275.816C523.523 273.043 523.032 270.803 522.051 269.096C521.112 267.347 519.917 265.939 518.467 264.872C517.016 263.805 515.459 262.952 513.795 262.312C512.131 261.629 510.573 260.968 509.123 260.328C507.672 259.688 506.456 258.941 505.475 258.088C504.536 257.192 504.067 255.997 504.067 254.504C504.067 253.48 504.365 252.563 504.963 251.752C505.56 250.899 506.499 250.472 507.779 250.472C508.931 250.472 509.784 250.963 510.339 251.944C510.893 252.883 511.171 254.035 511.171 255.4V256.488ZM543.931 243.304V289H555.067V254.952H555.195L561.531 289H570.107L576.443 254.952H576.571V289H587.707V243.304H570.683L565.883 270.376H565.755L560.955 243.304H543.931ZM603.823 266.152C603.823 263.08 603.865 260.541 603.951 258.536C604.036 256.488 604.207 254.867 604.463 253.672C604.761 252.477 605.167 251.645 605.679 251.176C606.233 250.707 606.959 250.472 607.855 250.472C608.751 250.472 609.455 250.707 609.967 251.176C610.521 251.645 610.927 252.477 611.183 253.672C611.481 254.867 611.673 256.488 611.759 258.536C611.844 260.541 611.887 263.08 611.887 266.152C611.887 269.224 611.844 271.784 611.759 273.832C611.673 275.837 611.481 277.437 611.183 278.632C610.927 279.827 610.521 280.659 609.967 281.128C609.455 281.597 608.751 281.832 607.855 281.832C606.959 281.832 606.233 281.597 605.679 281.128C605.167 280.659 604.761 279.827 604.463 278.632C604.207 277.437 604.036 275.837 603.951 273.832C603.865 271.784 603.823 269.224 603.823 266.152ZM591.535 266.152C591.535 270.419 591.812 274.067 592.367 277.096C592.921 280.083 593.839 282.536 595.119 284.456C596.399 286.333 598.084 287.677 600.175 288.488C602.265 289.299 604.825 289.704 607.855 289.704C610.884 289.704 613.444 289.299 615.535 288.488C617.625 287.677 619.311 286.333 620.591 284.456C621.871 282.536 622.788 280.083 623.343 277.096C623.897 274.067 624.175 270.419 624.175 266.152C624.175 261.885 623.897 258.259 623.343 255.272C622.788 252.243 621.871 249.789 620.591 247.912C619.311 245.992 617.625 244.605 615.535 243.752C613.444 242.856 610.884 242.408 607.855 242.408C604.825 242.408 602.265 242.856 600.175 243.752C598.084 244.605 596.399 245.992 595.119 247.912C593.839 249.789 592.921 252.243 592.367 255.272C591.812 258.259 591.535 261.885 591.535 266.152ZM628.441 243.304V289H639.577V260.776H639.705L647.641 289H660.697V243.304H649.561V271.464H649.433L641.753 243.304H628.441ZM672.332 253.416V289H684.236V253.416H693.196V243.304H663.5V253.416H672.332ZM695.879 243.304V289H707.783V270.184H715.079V289H726.983V243.304H715.079V260.072H707.783V243.304H695.879Z" fill="#F0F4F9"/>
<path d="M11.1 9.54H13.98C13.98 9.02 13.94 8.46667 13.86 7.88C13.7933 7.28 13.6133 6.72667 13.32 6.22C13.0267 5.7 12.58 5.27333 11.98 4.94C11.3933 4.60667 10.5867 4.44 9.56 4.44C8.48 4.44 7.62 4.62667 6.98 5C6.34 5.36 5.84667 5.86667 5.5 6.52C5.16667 7.17333 4.94667 7.96 4.84 8.88C4.74667 9.78667 4.7 10.78 4.7 11.86C4.7 12.9533 4.74667 13.9533 4.84 14.86C4.94667 15.7667 5.16667 16.5467 5.5 17.2C5.84667 17.8533 6.34 18.3533 6.98 18.7C7.62 19.0467 8.48 19.22 9.56 19.22C10.5067 19.22 11.2733 19.0733 11.86 18.78C12.46 18.4867 12.92 18.08 13.24 17.56C13.5733 17.04 13.8 16.4333 13.92 15.74C14.04 15.0467 14.1 14.3133 14.1 13.54H11.22C11.22 14.3133 11.1733 14.94 11.08 15.42C10.9867 15.8867 10.86 16.2533 10.7 16.52C10.54 16.7733 10.3467 16.9467 10.12 17.04C9.90667 17.12 9.67333 17.16 9.42 17.16C9.11333 17.16 8.84 17.1 8.6 16.98C8.37333 16.8467 8.18 16.6 8.02 16.24C7.87333 15.8667 7.76 15.3467 7.68 14.68C7.61333 14.0133 7.58 13.14 7.58 12.06C7.58 11.0467 7.60667 10.1933 7.66 9.5C7.71333 8.79333 7.80667 8.22667 7.94 7.8C8.07333 7.36 8.25333 7.04667 8.48 6.86C8.72 6.66 9.02 6.56 9.38 6.56C10.0333 6.56 10.48 6.8 10.72 7.28C10.9733 7.74667 11.1 8.5 11.1 9.54ZM15.8822 19H18.7622V4.72H15.8822V19ZM26.8584 13.62L25.4784 7.2H25.4384L24.0584 13.62H26.8584ZM27.2384 4.72L31.0184 19H28.0184L27.3584 15.98H23.5584L22.8984 19H19.8984L23.6784 4.72H27.2384ZM34.5917 11.86C34.5917 10.9 34.6117 10.0867 34.6517 9.42C34.7051 8.75333 34.7984 8.20667 34.9317 7.78C35.0784 7.35333 35.2784 7.04667 35.5317 6.86C35.7984 6.66 36.1451 6.56 36.5717 6.56C36.9984 6.56 37.3384 6.66 37.5917 6.86C37.8584 7.04667 38.0584 7.35333 38.1917 7.78C38.3384 8.20667 38.4317 8.75333 38.4717 9.42C38.5251 10.0867 38.5517 10.9 38.5517 11.86C38.5517 12.82 38.5251 13.64 38.4717 14.32C38.4317 14.9867 38.3384 15.5333 38.1917 15.96C38.0584 16.3733 37.8584 16.68 37.5917 16.88C37.3384 17.0667 36.9984 17.16 36.5717 17.16C36.1451 17.16 35.7984 17.0667 35.5317 16.88C35.2784 16.68 35.0784 16.3733 34.9317 15.96C34.7984 15.5333 34.7051 14.9867 34.6517 14.32C34.6117 13.64 34.5917 12.82 34.5917 11.86ZM31.7117 11.86C31.7117 12.9533 31.7584 13.9533 31.8517 14.86C31.9584 15.7667 32.1784 16.5467 32.5117 17.2C32.8584 17.8533 33.3517 18.3533 33.9917 18.7C34.6317 19.0467 35.4917 19.22 36.5717 19.22C37.6517 19.22 38.5117 19.0467 39.1517 18.7C39.7917 18.3533 40.2784 17.8533 40.6117 17.2C40.9584 16.5467 41.1784 15.7667 41.2717 14.86C41.3784 13.9533 41.4317 12.9533 41.4317 11.86C41.4317 10.78 41.3784 9.78667 41.2717 8.88C41.1784 7.96 40.9584 7.17333 40.6117 6.52C40.2784 5.86667 39.7917 5.36 39.1517 5C38.5117 4.62667 37.6517 4.44 36.5717 4.44C35.4917 4.44 34.6317 4.62667 33.9917 5C33.3517 5.36 32.8584 5.86667 32.5117 6.52C32.1784 7.17333 31.9584 7.96 31.8517 8.88C31.7584 9.78667 31.7117 10.78 31.7117 11.86ZM46.465 16.36H43.705V19H46.465V16.36ZM44.085 15.02H46.085L46.465 9.36V4.72H43.705V9.36L44.085 15.02ZM56.1677 14.54H53.2877V15.12C53.2877 16.44 53.6343 17.4533 54.3277 18.16C55.0343 18.8667 56.201 19.22 57.8277 19.22C59.3877 19.22 60.601 18.88 61.4677 18.2C62.3477 17.5067 62.7877 16.4067 62.7877 14.9C62.7877 14.46 62.7477 14.06 62.6677 13.7C62.5877 13.34 62.441 13.0133 62.2277 12.72C62.0277 12.4133 61.7543 12.1333 61.4077 11.88C61.061 11.6133 60.6143 11.36 60.0677 11.12L57.8477 10.16C57.2343 9.90667 56.8343 9.63333 56.6477 9.34C56.461 9.03333 56.3677 8.66 56.3677 8.22C56.3677 8.00667 56.3877 7.8 56.4277 7.6C56.481 7.4 56.5677 7.22667 56.6877 7.08C56.821 6.92 56.9943 6.79333 57.2077 6.7C57.421 6.60667 57.6877 6.56 58.0077 6.56C58.5677 6.56 58.9677 6.74667 59.2077 7.12C59.4477 7.48 59.5677 8 59.5677 8.68H62.3277V8.28C62.3277 7.6 62.2143 7.02 61.9877 6.54C61.7743 6.04667 61.4677 5.64667 61.0677 5.34C60.681 5.02 60.2143 4.79333 59.6677 4.66C59.1343 4.51333 58.5477 4.44 57.9077 4.44C56.5343 4.44 55.4543 4.78667 54.6677 5.48C53.881 6.17333 53.4877 7.22667 53.4877 8.64C53.4877 9.22667 53.561 9.74667 53.7077 10.2C53.8543 10.64 54.081 11.0333 54.3877 11.38C54.7077 11.7133 55.101 12.0067 55.5677 12.26C56.0343 12.5133 56.5877 12.7467 57.2277 12.96C57.7077 13.12 58.1077 13.28 58.4277 13.44C58.761 13.5867 59.0277 13.7533 59.2277 13.94C59.4277 14.1267 59.5677 14.34 59.6477 14.58C59.741 14.8067 59.7877 15.08 59.7877 15.4C59.7877 16 59.6077 16.4467 59.2477 16.74C58.901 17.02 58.5077 17.16 58.0677 17.16C57.6943 17.16 57.381 17.1067 57.1277 17C56.8877 16.8933 56.6943 16.7467 56.5477 16.56C56.401 16.3733 56.301 16.1467 56.2477 15.88C56.1943 15.6 56.1677 15.2933 56.1677 14.96V14.54ZM64.3588 19H67.2388V4.72H64.3588V19ZM72.695 4.72H69.375V19H72.015V9H72.055L75.575 19H78.855V4.72H76.215V14.5H76.175L72.695 4.72ZM86.9594 9.54H89.8394C89.8394 9.02 89.7994 8.46667 89.7194 7.88C89.6527 7.28 89.4727 6.72667 89.1794 6.22C88.886 5.7 88.4394 5.27333 87.8394 4.94C87.2527 4.60667 86.446 4.44 85.4194 4.44C84.3394 4.44 83.4794 4.62667 82.8394 5C82.1994 5.36 81.706 5.86667 81.3594 6.52C81.026 7.17333 80.806 7.96 80.6994 8.88C80.606 9.78667 80.5594 10.78 80.5594 11.86C80.5594 12.9533 80.606 13.9533 80.6994 14.86C80.806 15.7667 81.026 16.5467 81.3594 17.2C81.706 17.8533 82.1994 18.3533 82.8394 18.7C83.4794 19.0467 84.3394 19.22 85.4194 19.22C86.366 19.22 87.1327 19.0733 87.7194 18.78C88.3194 18.4867 88.7794 18.08 89.0994 17.56C89.4327 17.04 89.6594 16.4333 89.7794 15.74C89.8994 15.0467 89.9594 14.3133 89.9594 13.54H87.0794C87.0794 14.3133 87.0327 14.94 86.9394 15.42C86.846 15.8867 86.7194 16.2533 86.5594 16.52C86.3994 16.7733 86.206 16.9467 85.9794 17.04C85.766 17.12 85.5327 17.16 85.2794 17.16C84.9727 17.16 84.6994 17.1 84.4594 16.98C84.2327 16.8467 84.0394 16.6 83.8794 16.24C83.7327 15.8667 83.6194 15.3467 83.5394 14.68C83.4727 14.0133 83.4394 13.14 83.4394 12.06C83.4394 11.0467 83.466 10.1933 83.5194 9.5C83.5727 8.79333 83.666 8.22667 83.7994 7.8C83.9327 7.36 84.1127 7.04667 84.3394 6.86C84.5794 6.66 84.8794 6.56 85.2394 6.56C85.8927 6.56 86.3394 6.8 86.5794 7.28C86.8327 7.74667 86.9594 8.5 86.9594 9.54ZM99.5816 4.72H91.6016V19H99.7816V16.64H94.4816V12.8H99.2816V10.44H94.4816V7.08H99.5816V4.72ZM114.115 19V16.76H108.775C108.842 16.4933 108.995 16.18 109.235 15.82C109.475 15.4467 109.808 15.0667 110.235 14.68L111.835 13.2C112.235 12.84 112.575 12.4933 112.855 12.16C113.135 11.8133 113.362 11.46 113.535 11.1C113.708 10.74 113.835 10.3667 113.915 9.98C113.995 9.58 114.035 9.15333 114.035 8.7C114.035 7.46 113.688 6.50667 112.995 5.84C112.302 5.17333 111.235 4.84 109.795 4.84C108.275 4.84 107.162 5.19333 106.455 5.9C105.748 6.60667 105.395 7.62 105.395 8.94V9.48H108.155C108.155 9.10667 108.168 8.75333 108.195 8.42C108.235 8.08667 108.308 7.79333 108.415 7.54C108.535 7.28667 108.695 7.08667 108.895 6.94C109.108 6.79333 109.395 6.72 109.755 6.72C110.688 6.72 111.155 7.30667 111.155 8.48C111.155 8.84 111.135 9.16 111.095 9.44C111.068 9.72 111.002 9.98 110.895 10.22C110.788 10.46 110.635 10.7 110.435 10.94C110.248 11.18 109.995 11.44 109.675 11.72L108.515 12.8C107.995 13.28 107.535 13.76 107.135 14.24C106.748 14.7067 106.422 15.1867 106.155 15.68C105.902 16.1733 105.708 16.6933 105.575 17.24C105.455 17.7867 105.395 18.3733 105.395 19H114.115ZM115.005 12.4C115.005 13.6533 115.071 14.72 115.205 15.6C115.351 16.4667 115.591 17.1733 115.925 17.72C116.271 18.2667 116.731 18.6533 117.305 18.88C117.878 19.1067 118.591 19.22 119.445 19.22C120.498 19.22 121.318 19.02 121.905 18.62C122.505 18.22 122.951 17.6733 123.245 16.98C123.538 16.2733 123.718 15.4667 123.785 14.56C123.851 13.6533 123.885 12.7067 123.885 11.72C123.885 10.4667 123.811 9.40667 123.665 8.54C123.531 7.66 123.291 6.94667 122.945 6.4C122.611 5.85333 122.158 5.46 121.585 5.22C121.025 4.96667 120.311 4.84 119.445 4.84C118.391 4.84 117.565 5.05333 116.965 5.48C116.378 5.89333 115.938 6.45333 115.645 7.16C115.351 7.85333 115.171 8.65333 115.105 9.56C115.038 10.4667 115.005 11.4133 115.005 12.4ZM117.885 13.02V11.48C117.885 10.5733 117.905 9.81333 117.945 9.2C117.998 8.58667 118.078 8.1 118.185 7.74C118.305 7.36667 118.465 7.10667 118.665 6.96C118.865 6.8 119.125 6.72 119.445 6.72C119.751 6.72 120.005 6.78 120.205 6.9C120.405 7.02 120.565 7.24667 120.685 7.58C120.805 7.9 120.885 8.34667 120.925 8.92C120.978 9.48 121.005 10.2067 121.005 11.1V12.64C121.005 13.5467 120.978 14.3067 120.925 14.92C120.885 15.5333 120.805 16.0267 120.685 16.4C120.578 16.76 120.425 17.02 120.225 17.18C120.025 17.3267 119.765 17.4 119.445 17.4C119.138 17.4 118.885 17.34 118.685 17.22C118.485 17.1 118.325 16.88 118.205 16.56C118.085 16.2267 117.998 15.78 117.945 15.22C117.905 14.6467 117.885 13.9133 117.885 13.02ZM133.334 19V16.76H127.994C128.061 16.4933 128.214 16.18 128.454 15.82C128.694 15.4467 129.027 15.0667 129.454 14.68L131.054 13.2C131.454 12.84 131.794 12.4933 132.074 12.16C132.354 11.8133 132.581 11.46 132.754 11.1C132.927 10.74 133.054 10.3667 133.134 9.98C133.214 9.58 133.254 9.15333 133.254 8.7C133.254 7.46 132.907 6.50667 132.214 5.84C131.521 5.17333 130.454 4.84 129.014 4.84C127.494 4.84 126.381 5.19333 125.674 5.9C124.967 6.60667 124.614 7.62 124.614 8.94V9.48H127.374C127.374 9.10667 127.387 8.75333 127.414 8.42C127.454 8.08667 127.527 7.79333 127.634 7.54C127.754 7.28667 127.914 7.08667 128.114 6.94C128.327 6.79333 128.614 6.72 128.974 6.72C129.907 6.72 130.374 7.30667 130.374 8.48C130.374 8.84 130.354 9.16 130.314 9.44C130.287 9.72 130.221 9.98 130.114 10.22C130.007 10.46 129.854 10.7 129.654 10.94C129.467 11.18 129.214 11.44 128.894 11.72L127.734 12.8C127.214 13.28 126.754 13.76 126.354 14.24C125.967 14.7067 125.641 15.1867 125.374 15.68C125.121 16.1733 124.927 16.6933 124.794 17.24C124.674 17.7867 124.614 18.3733 124.614 19H133.334ZM142.943 19V16.76H137.603C137.67 16.4933 137.823 16.18 138.063 15.82C138.303 15.4467 138.637 15.0667 139.063 14.68L140.663 13.2C141.063 12.84 141.403 12.4933 141.683 12.16C141.963 11.8133 142.19 11.46 142.363 11.1C142.537 10.74 142.663 10.3667 142.743 9.98C142.823 9.58 142.863 9.15333 142.863 8.7C142.863 7.46 142.517 6.50667 141.823 5.84C141.13 5.17333 140.063 4.84 138.623 4.84C137.103 4.84 135.99 5.19333 135.283 5.9C134.577 6.60667 134.223 7.62 134.223 8.94V9.48H136.983C136.983 9.10667 136.997 8.75333 137.023 8.42C137.063 8.08667 137.137 7.79333 137.243 7.54C137.363 7.28667 137.523 7.08667 137.723 6.94C137.937 6.79333 138.223 6.72 138.583 6.72C139.517 6.72 139.983 7.30667 139.983 8.48C139.983 8.84 139.963 9.16 139.923 9.44C139.897 9.72 139.83 9.98 139.723 10.22C139.617 10.46 139.463 10.7 139.263 10.94C139.077 11.18 138.823 11.44 138.503 11.72L137.343 12.8C136.823 13.28 136.363 13.76 135.963 14.24C135.577 14.7067 135.25 15.1867 134.983 15.68C134.73 16.1733 134.537 16.6933 134.403 17.24C134.283 17.7867 134.223 18.3733 134.223 19H142.943ZM156.962 16.88V12.58H158.202C158.522 12.58 158.815 12.6133 159.082 12.68C159.349 12.7467 159.575 12.8667 159.762 13.04C159.962 13.2 160.115 13.42 160.222 13.7C160.342 13.9667 160.402 14.3067 160.402 14.72C160.402 15.5467 160.189 16.1133 159.762 16.42C159.335 16.7267 158.775 16.88 158.082 16.88H156.962ZM156.962 10.58V6.84H158.002C158.722 6.84 159.249 6.98 159.582 7.26C159.915 7.54 160.082 8.02 160.082 8.7C160.082 9.38 159.895 9.86667 159.522 10.16C159.162 10.44 158.582 10.58 157.782 10.58H156.962ZM154.082 4.72V19H158.942C159.782 19 160.482 18.8867 161.042 18.66C161.615 18.4333 162.075 18.1333 162.422 17.76C162.782 17.3733 163.035 16.9267 163.182 16.42C163.329 15.9133 163.402 15.38 163.402 14.82C163.402 13.86 163.169 13.0933 162.702 12.52C162.235 11.9467 161.602 11.6067 160.802 11.5V11.46C161.522 11.26 162.062 10.8867 162.422 10.34C162.782 9.78 162.962 9.11333 162.962 8.34C162.962 7.66 162.862 7.08667 162.662 6.62C162.462 6.15333 162.182 5.78 161.822 5.5C161.462 5.22 161.029 5.02 160.522 4.9C160.029 4.78 159.489 4.72 158.902 4.72H154.082ZM171.155 13.62L169.775 7.2H169.735L168.355 13.62H171.155ZM171.535 4.72L175.315 19H172.315L171.655 15.98H167.855L167.195 19H164.195L167.975 4.72H171.535ZM178.629 14.54H175.749V15.12C175.749 16.44 176.095 17.4533 176.789 18.16C177.495 18.8667 178.662 19.22 180.289 19.22C181.849 19.22 183.062 18.88 183.929 18.2C184.809 17.5067 185.249 16.4067 185.249 14.9C185.249 14.46 185.209 14.06 185.129 13.7C185.049 13.34 184.902 13.0133 184.689 12.72C184.489 12.4133 184.215 12.1333 183.869 11.88C183.522 11.6133 183.075 11.36 182.529 11.12L180.309 10.16C179.695 9.90667 179.295 9.63333 179.109 9.34C178.922 9.03333 178.829 8.66 178.829 8.22C178.829 8.00667 178.849 7.8 178.889 7.6C178.942 7.4 179.029 7.22667 179.149 7.08C179.282 6.92 179.455 6.79333 179.669 6.7C179.882 6.60667 180.149 6.56 180.469 6.56C181.029 6.56 181.429 6.74667 181.669 7.12C181.909 7.48 182.029 8 182.029 8.68H184.789V8.28C184.789 7.6 184.675 7.02 184.449 6.54C184.235 6.04667 183.929 5.64667 183.529 5.34C183.142 5.02 182.675 4.79333 182.129 4.66C181.595 4.51333 181.009 4.44 180.369 4.44C178.995 4.44 177.915 4.78667 177.129 5.48C176.342 6.17333 175.949 7.22667 175.949 8.64C175.949 9.22667 176.022 9.74667 176.169 10.2C176.315 10.64 176.542 11.0333 176.849 11.38C177.169 11.7133 177.562 12.0067 178.029 12.26C178.495 12.5133 179.049 12.7467 179.689 12.96C180.169 13.12 180.569 13.28 180.889 13.44C181.222 13.5867 181.489 13.7533 181.689 13.94C181.889 14.1267 182.029 14.34 182.109 14.58C182.202 14.8067 182.249 15.08 182.249 15.4C182.249 16 182.069 16.4467 181.709 16.74C181.362 17.02 180.969 17.16 180.529 17.16C180.155 17.16 179.842 17.1067 179.589 17C179.349 16.8933 179.155 16.7467 179.009 16.56C178.862 16.3733 178.762 16.1467 178.709 15.88C178.655 15.6 178.629 15.2933 178.629 14.96V14.54ZM194.66 4.72H186.68V19H194.86V16.64H189.56V12.8H194.36V10.44H189.56V7.08H194.66V4.72ZM199.329 16.88V6.84H200.549C201.095 6.84 201.529 6.94667 201.849 7.16C202.182 7.36 202.429 7.66667 202.589 8.08C202.762 8.48 202.875 8.98667 202.929 9.6C202.982 10.2133 203.009 10.9267 203.009 11.74C203.009 12.7133 202.975 13.5267 202.909 14.18C202.855 14.8333 202.735 15.36 202.549 15.76C202.375 16.16 202.135 16.4467 201.829 16.62C201.522 16.7933 201.115 16.88 200.609 16.88H199.329ZM196.449 4.72V19H200.989C201.949 19 202.742 18.8533 203.369 18.56C203.995 18.2667 204.495 17.82 204.869 17.22C205.242 16.62 205.502 15.86 205.649 14.94C205.809 14.0067 205.889 12.9133 205.889 11.66C205.889 10.6067 205.829 9.65333 205.709 8.8C205.589 7.94667 205.355 7.22 205.009 6.62C204.675 6.00667 204.202 5.54 203.589 5.22C202.975 4.88667 202.169 4.72 201.169 4.72H196.449ZM212.738 19H215.618V4.72H212.738V19ZM221.074 4.72H217.754V19H220.394V9H220.434L223.954 19H227.234V4.72H224.594V14.5H224.554L221.074 4.72ZM236.923 4.72H234.043V19H236.923V14.76L237.983 13.14L240.923 19H244.163L239.843 10.84L243.723 4.72H240.603L236.963 10.44H236.923V4.72ZM250.745 13.62L249.365 7.2H249.325L247.945 13.62H250.745ZM251.125 4.72L254.905 19H251.905L251.245 15.98H247.445L246.785 19H243.785L247.565 4.72H251.125ZM258.478 11.86C258.478 10.9 258.498 10.0867 258.538 9.42C258.592 8.75333 258.685 8.20667 258.818 7.78C258.965 7.35333 259.165 7.04667 259.418 6.86C259.685 6.66 260.032 6.56 260.458 6.56C260.885 6.56 261.225 6.66 261.478 6.86C261.745 7.04667 261.945 7.35333 262.078 7.78C262.225 8.20667 262.318 8.75333 262.358 9.42C262.412 10.0867 262.438 10.9 262.438 11.86C262.438 12.82 262.412 13.64 262.358 14.32C262.318 14.9867 262.225 15.5333 262.078 15.96C261.945 16.3733 261.745 16.68 261.478 16.88C261.225 17.0667 260.885 17.16 260.458 17.16C260.032 17.16 259.685 17.0667 259.418 16.88C259.165 16.68 258.965 16.3733 258.818 15.96C258.685 15.5333 258.592 14.9867 258.538 14.32C258.498 13.64 258.478 12.82 258.478 11.86ZM255.598 11.86C255.598 12.9533 255.645 13.9533 255.738 14.86C255.845 15.7667 256.065 16.5467 256.398 17.2C256.745 17.8533 257.238 18.3533 257.878 18.7C258.518 19.0467 259.378 19.22 260.458 19.22C261.538 19.22 262.398 19.0467 263.038 18.7C263.678 18.3533 264.165 17.8533 264.498 17.2C264.845 16.5467 265.065 15.7667 265.158 14.86C265.265 13.9533 265.318 12.9533 265.318 11.86C265.318 10.78 265.265 9.78667 265.158 8.88C265.065 7.96 264.845 7.17333 264.498 6.52C264.165 5.86667 263.678 5.36 263.038 5C262.398 4.62667 261.538 4.44 260.458 4.44C259.378 4.44 258.518 4.62667 257.878 5C257.238 5.36 256.745 5.86667 256.398 6.52C256.065 7.17333 255.845 7.96 255.738 8.88C255.645 9.78667 255.598 10.78 255.598 11.86ZM267.012 4.72V19H269.892V12.66H273.252V19H276.132V4.72H273.252V10.18H269.892V4.72H267.012ZM280.445 14.54H277.565V15.12C277.565 16.44 277.912 17.4533 278.605 18.16C279.312 18.8667 280.478 19.22 282.105 19.22C283.665 19.22 284.878 18.88 285.745 18.2C286.625 17.5067 287.065 16.4067 287.065 14.9C287.065 14.46 287.025 14.06 286.945 13.7C286.865 13.34 286.718 13.0133 286.505 12.72C286.305 12.4133 286.032 12.1333 285.685 11.88C285.338 11.6133 284.892 11.36 284.345 11.12L282.125 10.16C281.512 9.90667 281.112 9.63333 280.925 9.34C280.738 9.03333 280.645 8.66 280.645 8.22C280.645 8.00667 280.665 7.8 280.705 7.6C280.758 7.4 280.845 7.22667 280.965 7.08C281.098 6.92 281.272 6.79333 281.485 6.7C281.698 6.60667 281.965 6.56 282.285 6.56C282.845 6.56 283.245 6.74667 283.485 7.12C283.725 7.48 283.845 8 283.845 8.68H286.605V8.28C286.605 7.6 286.492 7.02 286.265 6.54C286.052 6.04667 285.745 5.64667 285.345 5.34C284.958 5.02 284.492 4.79333 283.945 4.66C283.412 4.51333 282.825 4.44 282.185 4.44C280.812 4.44 279.732 4.78667 278.945 5.48C278.158 6.17333 277.765 7.22667 277.765 8.64C277.765 9.22667 277.838 9.74667 277.985 10.2C278.132 10.64 278.358 11.0333 278.665 11.38C278.985 11.7133 279.378 12.0067 279.845 12.26C280.312 12.5133 280.865 12.7467 281.505 12.96C281.985 13.12 282.385 13.28 282.705 13.44C283.038 13.5867 283.305 13.7533 283.505 13.94C283.705 14.1267 283.845 14.34 283.925 14.58C284.018 14.8067 284.065 15.08 284.065 15.4C284.065 16 283.885 16.4467 283.525 16.74C283.178 17.02 282.785 17.16 282.345 17.16C281.972 17.16 281.658 17.1067 281.405 17C281.165 16.8933 280.972 16.7467 280.825 16.56C280.678 16.3733 280.578 16.1467 280.525 15.88C280.472 15.6 280.445 15.2933 280.445 14.96V14.54ZM288.636 19H291.516V4.72H288.636V19ZM296.352 4.72H293.472V14.68C293.472 15.64 293.599 16.42 293.852 17.02C294.106 17.62 294.446 18.0867 294.872 18.42C295.299 18.74 295.786 18.9533 296.332 19.06C296.879 19.1667 297.446 19.22 298.032 19.22C298.619 19.22 299.186 19.16 299.732 19.04C300.279 18.92 300.766 18.6867 301.192 18.34C301.619 17.9933 301.959 17.5267 302.212 16.94C302.466 16.34 302.592 15.5867 302.592 14.68V4.72H299.712V14.68C299.712 15.04 299.686 15.3733 299.632 15.68C299.592 15.9733 299.506 16.2333 299.372 16.46C299.252 16.6733 299.086 16.8467 298.872 16.98C298.659 17.1 298.379 17.16 298.032 17.16C297.699 17.16 297.419 17.1 297.192 16.98C296.979 16.8467 296.806 16.6733 296.672 16.46C296.552 16.2333 296.466 15.9733 296.412 15.68C296.372 15.3733 296.352 15.04 296.352 14.68V4.72ZM307.734 4.72H304.414V19H307.054V9H307.094L310.614 19H313.894V4.72H311.254V14.5H311.214L307.734 4.72ZM322.238 8.96H324.998C324.998 7.50667 324.652 6.39333 323.958 5.62C323.265 4.83333 322.132 4.44 320.558 4.44C319.638 4.44 318.872 4.59333 318.258 4.9C317.645 5.20667 317.152 5.66667 316.778 6.28C316.405 6.88 316.138 7.63333 315.978 8.54C315.832 9.44667 315.758 10.5 315.758 11.7C315.758 12.94 315.812 14.0333 315.918 14.98C316.025 15.9133 316.232 16.7 316.538 17.34C316.858 17.98 317.292 18.4533 317.838 18.76C318.398 19.0667 319.118 19.22 319.998 19.22C320.678 19.22 321.258 19.1067 321.738 18.88C322.232 18.64 322.652 18.24 322.998 17.68H323.038V19H325.158V11.3H320.498V13.42H322.398V14.88C322.398 15.2667 322.338 15.6067 322.218 15.9C322.098 16.18 321.945 16.4133 321.758 16.6C321.585 16.7867 321.392 16.9267 321.178 17.02C320.978 17.1133 320.792 17.16 320.618 17.16C320.205 17.16 319.865 17.0333 319.598 16.78C319.345 16.5133 319.145 16.14 318.998 15.66C318.865 15.1667 318.772 14.5733 318.718 13.88C318.665 13.1867 318.638 12.4133 318.638 11.56C318.638 9.77333 318.792 8.49333 319.098 7.72C319.405 6.94667 319.905 6.56 320.598 6.56C320.892 6.56 321.138 6.64 321.338 6.8C321.552 6.94667 321.725 7.14 321.858 7.38C321.992 7.60667 322.085 7.86 322.138 8.14C322.205 8.42 322.238 8.69333 322.238 8.96ZM337.916 9.54H340.796C340.796 9.02 340.756 8.46667 340.676 7.88C340.61 7.28 340.43 6.72667 340.136 6.22C339.843 5.7 339.396 5.27333 338.796 4.94C338.21 4.60667 337.403 4.44 336.376 4.44C335.296 4.44 334.436 4.62667 333.796 5C333.156 5.36 332.663 5.86667 332.316 6.52C331.983 7.17333 331.763 7.96 331.656 8.88C331.563 9.78667 331.516 10.78 331.516 11.86C331.516 12.9533 331.563 13.9533 331.656 14.86C331.763 15.7667 331.983 16.5467 332.316 17.2C332.663 17.8533 333.156 18.3533 333.796 18.7C334.436 19.0467 335.296 19.22 336.376 19.22C337.323 19.22 338.09 19.0733 338.676 18.78C339.276 18.4867 339.736 18.08 340.056 17.56C340.39 17.04 340.616 16.4333 340.736 15.74C340.856 15.0467 340.916 14.3133 340.916 13.54H338.036C338.036 14.3133 337.99 14.94 337.896 15.42C337.803 15.8867 337.676 16.2533 337.516 16.52C337.356 16.7733 337.163 16.9467 336.936 17.04C336.723 17.12 336.49 17.16 336.236 17.16C335.93 17.16 335.656 17.1 335.416 16.98C335.19 16.8467 334.996 16.6 334.836 16.24C334.69 15.8667 334.576 15.3467 334.496 14.68C334.43 14.0133 334.396 13.14 334.396 12.06C334.396 11.0467 334.423 10.1933 334.476 9.5C334.53 8.79333 334.623 8.22667 334.756 7.8C334.89 7.36 335.07 7.04667 335.296 6.86C335.536 6.66 335.836 6.56 336.196 6.56C336.85 6.56 337.296 6.8 337.536 7.28C337.79 7.74667 337.916 8.5 337.916 9.54ZM342.699 19H345.579V4.72H342.699V19ZM353.675 13.62L352.295 7.2H352.255L350.875 13.62H353.675ZM354.055 4.72L357.835 19H354.835L354.175 15.98H350.375L349.715 19H346.715L350.495 4.72H354.055ZM361.408 11.86C361.408 10.9 361.428 10.0867 361.468 9.42C361.521 8.75333 361.615 8.20667 361.748 7.78C361.895 7.35333 362.095 7.04667 362.348 6.86C362.615 6.66 362.961 6.56 363.388 6.56C363.815 6.56 364.155 6.66 364.408 6.86C364.675 7.04667 364.875 7.35333 365.008 7.78C365.155 8.20667 365.248 8.75333 365.288 9.42C365.341 10.0867 365.368 10.9 365.368 11.86C365.368 12.82 365.341 13.64 365.288 14.32C365.248 14.9867 365.155 15.5333 365.008 15.96C364.875 16.3733 364.675 16.68 364.408 16.88C364.155 17.0667 363.815 17.16 363.388 17.16C362.961 17.16 362.615 17.0667 362.348 16.88C362.095 16.68 361.895 16.3733 361.748 15.96C361.615 15.5333 361.521 14.9867 361.468 14.32C361.428 13.64 361.408 12.82 361.408 11.86ZM358.528 11.86C358.528 12.9533 358.575 13.9533 358.668 14.86C358.775 15.7667 358.995 16.5467 359.328 17.2C359.675 17.8533 360.168 18.3533 360.808 18.7C361.448 19.0467 362.308 19.22 363.388 19.22C364.468 19.22 365.328 19.0467 365.968 18.7C366.608 18.3533 367.095 17.8533 367.428 17.2C367.775 16.5467 367.995 15.7667 368.088 14.86C368.195 13.9533 368.248 12.9533 368.248 11.86C368.248 10.78 368.195 9.78667 368.088 8.88C367.995 7.96 367.775 7.17333 367.428 6.52C367.095 5.86667 366.608 5.36 365.968 5C365.328 4.62667 364.468 4.44 363.388 4.44C362.308 4.44 361.448 4.62667 360.808 5C360.168 5.36 359.675 5.86667 359.328 6.52C358.995 7.17333 358.775 7.96 358.668 8.88C358.575 9.78667 358.528 10.78 358.528 11.86ZM373.281 16.36H370.521V19H373.281V16.36ZM370.901 15.02H372.901L373.281 9.36V4.72H370.521V9.36L370.901 15.02Z" fill="#F0F4F9"/>
<path d="M88.832 56.416V92H100.736V56.416H109.696V46.304H80V56.416H88.832ZM129.083 46.304L124.795 77.92H124.667L121.083 46.304H109.562L117.371 92H130.427L134.395 61.28H134.523L138.491 92H151.547L159.355 46.304H147.835L144.635 77.92H144.507L139.835 46.304H129.083ZM162.191 46.304V92H189.839V82.272H174.095V73.184H188.303V63.84H174.095V56.032H189.263V46.304H162.191ZM194.191 46.304V92H205.327V63.776H205.455L213.391 92H226.447V46.304H215.311V74.464H215.183L207.503 46.304H194.191ZM238.082 56.416V92H249.986V56.416H258.946V46.304H229.25V56.416H238.082ZM269.501 74.016V92H281.405V74.016L293.053 46.304H279.997L275.517 62.24H275.389L270.909 46.304H258.044L269.501 74.016ZM290.417 68.64V78.368H310.385V68.64H290.417ZM321.02 56.416V92H332.924V56.416H341.884V46.304H312.188V56.416H321.02ZM361.27 46.304L356.982 77.92H356.854L353.27 46.304H341.75L349.558 92H362.614L366.582 61.28H366.71L370.678 92H383.734L391.542 46.304H380.022L376.822 77.92H376.694L372.022 46.304H361.27ZM394.379 46.304V92H422.027V82.272H406.283V73.184H420.491V63.84H406.283V56.032H421.451V46.304H394.379ZM426.379 46.304V92H437.515V63.776H437.643L445.579 92H458.635V46.304H447.499V74.464H447.371L439.691 46.304H426.379ZM470.27 56.416V92H482.174V56.416H491.134V46.304H461.438V56.416H470.27ZM501.688 74.016V92H513.592V74.016L525.24 46.304H512.184L507.704 62.24H507.576L503.096 46.304H490.232L501.688 74.016ZM522.605 68.64V78.368H542.573V68.64H522.605ZM553.207 56.416V92H565.111V56.416H574.071V46.304H544.375V56.416H553.207ZM593.458 46.304L589.17 77.92H589.042L585.458 46.304H573.938L581.746 92H594.802L598.77 61.28H598.898L602.866 92H615.922L623.73 46.304H612.21L609.01 77.92H608.882L604.21 46.304H593.458ZM637.51 69.152C637.51 66.08 637.553 63.5413 637.638 61.536C637.723 59.488 637.894 57.8667 638.15 56.672C638.449 55.4773 638.854 54.6453 639.366 54.176C639.921 53.7067 640.646 53.472 641.542 53.472C642.438 53.472 643.142 53.7067 643.654 54.176C644.209 54.6453 644.614 55.4773 644.87 56.672C645.169 57.8667 645.361 59.488 645.446 61.536C645.531 63.5413 645.574 66.08 645.574 69.152C645.574 72.224 645.531 74.784 645.446 76.832C645.361 78.8373 645.169 80.4373 644.87 81.632C644.614 82.8267 644.209 83.6587 643.654 84.128C643.142 84.5973 642.438 84.832 641.542 84.832C640.646 84.832 639.921 84.5973 639.366 84.128C638.854 83.6587 638.449 82.8267 638.15 81.632C637.894 80.4373 637.723 78.8373 637.638 76.832C637.553 74.784 637.51 72.224 637.51 69.152ZM625.222 69.152C625.222 73.4187 625.499 77.0667 626.054 80.096C626.609 83.0827 627.526 85.536 628.806 87.456C630.086 89.3333 631.771 90.6773 633.862 91.488C635.953 92.2987 638.513 92.704 641.542 92.704C644.571 92.704 647.131 92.2987 649.222 91.488C651.313 90.6773 652.998 89.3333 654.278 87.456C655.558 85.536 656.475 83.0827 657.03 80.096C657.585 77.0667 657.862 73.4187 657.862 69.152C657.862 64.8853 657.585 61.2587 657.03 58.272C656.475 55.2427 655.558 52.7893 654.278 50.912C652.998 48.992 651.313 47.6053 649.222 46.752C647.131 45.856 644.571 45.408 641.542 45.408C638.513 45.408 635.953 45.856 633.862 46.752C631.771 47.6053 630.086 48.992 628.806 50.912C627.526 52.7893 626.609 55.2427 626.054 58.272C625.499 61.2587 625.222 64.8853 625.222 69.152Z" fill="#F0F4F9"/>
</svg>
