<svg width="40" height="63" viewBox="0 0 40 63" fill="none" xmlns="http://www.w3.org/2000/svg">
<circle cx="20" cy="43" r="20" fill="#404040"/>
<path d="M14.1939 50.2876C13.0945 50.2834 12.1484 50.0128 11.3558 49.4759C10.5675 48.9389 9.96023 48.1612 9.53409 47.1428C9.11222 46.1243 8.90341 44.8991 8.90767 43.4673C8.90767 42.0398 9.11861 40.8232 9.54048 39.8175C9.96662 38.8118 10.5739 38.0469 11.3622 37.5227C12.1548 36.9943 13.0987 36.7301 14.1939 36.7301C15.2891 36.7301 16.2308 36.9943 17.0192 37.5227C17.8118 38.0511 18.4212 38.8182 18.8473 39.8239C19.2734 40.8253 19.4844 42.0398 19.4801 43.4673C19.4801 44.9034 19.267 46.1307 18.8409 47.1491C18.419 48.1676 17.8139 48.9453 17.0256 49.4822C16.2372 50.0192 15.2933 50.2876 14.1939 50.2876ZM14.1939 47.9929C14.9439 47.9929 15.5426 47.6158 15.9901 46.8615C16.4375 46.1072 16.6591 44.9759 16.6548 43.4673C16.6548 42.4744 16.5526 41.6477 16.348 40.9872C16.1477 40.3267 15.8622 39.8303 15.4915 39.4979C15.125 39.1655 14.6925 38.9993 14.1939 38.9993C13.4482 38.9993 12.8516 39.3722 12.4041 40.1179C11.9567 40.8636 11.7308 41.9801 11.7266 43.4673C11.7266 44.473 11.8267 45.3125 12.027 45.9858C12.2315 46.6548 12.5192 47.1577 12.8899 47.4943C13.2607 47.8267 13.6953 47.9929 14.1939 47.9929ZM23.0555 47.6989V45.5192L28.5207 36.9091H30.4V39.9261H29.2877L25.8424 45.3786V45.4808H33.6088V47.6989H23.0555ZM29.3389 50V47.0341L29.39 46.0689V36.9091H31.9852V50H29.3389Z" fill="white"/>
<path d="M2.5 5.64773V3.36364H12.3352V5.64773H8.80682V15H6.03409V5.64773H2.5ZM24.9605 9.18182C24.9605 10.4621 24.7143 11.5473 24.2219 12.4375C23.7295 13.3277 23.0628 14.0038 22.2219 14.4659C21.3848 14.928 20.4454 15.1591 19.4037 15.1591C18.3582 15.1591 17.417 14.9261 16.5798 14.4602C15.7427 13.9943 15.0779 13.3182 14.5855 12.4318C14.0969 11.5417 13.8526 10.4583 13.8526 9.18182C13.8526 7.90152 14.0969 6.81629 14.5855 5.92614C15.0779 5.03598 15.7427 4.35985 16.5798 3.89773C17.417 3.43561 18.3582 3.20455 19.4037 3.20455C20.4454 3.20455 21.3848 3.43561 22.2219 3.89773C23.0628 4.35985 23.7295 5.03598 24.2219 5.92614C24.7143 6.81629 24.9605 7.90152 24.9605 9.18182ZM22.0855 9.18182C22.0855 8.42424 21.9776 7.78409 21.7616 7.26136C21.5495 6.73864 21.2427 6.3428 20.8412 6.07386C20.4435 5.80492 19.9643 5.67045 19.4037 5.67045C18.8469 5.67045 18.3677 5.80492 17.9662 6.07386C17.5647 6.3428 17.256 6.73864 17.0401 7.26136C16.8279 7.78409 16.7219 8.42424 16.7219 9.18182C16.7219 9.93939 16.8279 10.5795 17.0401 11.1023C17.256 11.625 17.5647 12.0208 17.9662 12.2898C18.3677 12.5587 18.8469 12.6932 19.4037 12.6932C19.9643 12.6932 20.4435 12.5587 20.8412 12.2898C21.2427 12.0208 21.5495 11.625 21.7616 11.1023C21.9776 10.5795 22.0855 9.93939 22.0855 9.18182ZM27.4026 15V3.36364H32.2094C33.0806 3.36364 33.8325 3.53409 34.4651 3.875C35.1014 4.21212 35.592 4.68371 35.9366 5.28977C36.2813 5.89205 36.4537 6.5928 36.4537 7.39205C36.4537 8.19508 36.2776 8.89773 35.9253 9.5C35.5768 10.0985 35.0787 10.5625 34.431 10.892C33.7832 11.2216 33.0143 11.3864 32.1241 11.3864H29.1582V9.17045H31.6014C32.0257 9.17045 32.3798 9.09659 32.6639 8.94886C32.9518 8.80114 33.1696 8.5947 33.3173 8.32955C33.4651 8.06061 33.5389 7.74811 33.5389 7.39205C33.5389 7.0322 33.4651 6.72159 33.3173 6.46023C33.1696 6.19508 32.9518 5.99053 32.6639 5.84659C32.376 5.70265 32.0219 5.63068 31.6014 5.63068H30.2151V15H27.4026Z" fill="#404040"/>
</svg>
