<svg width="1115" height="245" viewBox="0 0 1115 245" fill="none" xmlns="http://www.w3.org/2000/svg">
<path d="M1082.58 39.2316L1090.19 12.8479L1105.05 23.4475L1082.58 39.2316Z" fill="#3C78E4"/>
<path d="M1089.79 44.2248L1104.17 31.3262L1109 42.2231L1089.79 44.2248Z" fill="#3C78E4"/>
<path d="M47.2 170.2V135.4H57.6C61.0667 135.4 64.1333 136.867 66.8 139.8C69.4667 142.733 70.8 147 70.8 152.6C70.8 158.6 69.4667 163.067 66.8 166C64.1333 168.8 61.0667 170.2 57.6 170.2H47.2ZM47.2 110.2V81H56.2C60.0667 81 63 82.4667 65 85.4C67 88.3333 68 91.8 68 95.8C68 99.6667 67 103.067 65 106C63 108.8 60.0667 110.2 56.2 110.2H47.2ZM10 54.2V197H66.2C73.9333 197 80.5333 196 86 194C91.4667 191.867 95.8667 188.933 99.2 185.2C102.667 181.467 105.2 177 106.8 171.8C108.4 166.6 109.2 160.933 109.2 154.8C109.2 151.067 108.667 147.4 107.6 143.8C106.667 140.067 105.133 136.667 103 133.6C100.867 130.533 98.1333 128 94.8 126C91.4667 123.867 87.4667 122.6 82.8 122.2V121.8C86.8 121 90.2 119.6 93 117.6C95.8 115.6 98.0667 113.2 99.8 110.4C101.667 107.467 103 104.267 103.8 100.8C104.733 97.2 105.2 93.5333 105.2 89.8C105.2 79 102 70.4 95.6 64C89.3333 57.4667 79.5333 54.2 66.2 54.2H10ZM123.644 54.2V197H210.044V166.6H160.844V138.2H205.244V109H160.844V84.6H208.244V54.2H123.644ZM279.244 95.4H314.044C314.044 80.0667 310.377 68.9333 303.044 62C295.844 54.9333 284.11 51.4 267.844 51.4C252.11 51.4 240.377 55.2 232.644 62.8C224.91 70.4 221.044 81.4667 221.044 96C221.044 104.4 222.444 111.2 225.244 116.4C228.177 121.6 231.777 125.8 236.044 129C240.444 132.2 245.177 134.8 250.244 136.8C255.31 138.8 259.977 140.8 264.244 142.8C268.644 144.667 272.244 147 275.044 149.8C277.977 152.467 279.444 156.133 279.444 160.8C279.444 164.667 278.377 167.933 276.244 170.6C274.244 173.267 271.31 174.6 267.444 174.6C263.844 174.6 260.91 173.4 258.644 171C256.377 168.467 255.244 164.133 255.244 158V154.6H219.244V159.6C219.244 167.067 220.31 173.333 222.444 178.4C224.577 183.467 227.644 187.6 231.644 190.8C235.777 193.867 240.777 196 246.644 197.2C252.644 198.533 259.51 199.2 267.244 199.2C283.644 199.2 296.177 195.8 304.844 189C313.51 182.067 317.844 171 317.844 155.8C317.844 147.133 316.31 140.133 313.244 134.8C310.31 129.333 306.577 124.933 302.044 121.6C297.51 118.267 292.644 115.6 287.444 113.6C282.244 111.467 277.377 109.4 272.844 107.4C268.31 105.4 264.51 103.067 261.444 100.4C258.51 97.6 257.044 93.8667 257.044 89.2C257.044 86 257.977 83.1333 259.844 80.6C261.71 77.9333 264.644 76.6 268.644 76.6C272.244 76.6 274.91 78.1333 276.644 81.2C278.377 84.1333 279.244 87.7333 279.244 92V95.4ZM349.866 85.8V197H387.066V85.8H415.066V54.2H322.266V85.8H349.866ZM531.002 95.4H565.802C565.802 80.0667 562.135 68.9333 554.802 62C547.602 54.9333 535.868 51.4 519.602 51.4C503.868 51.4 492.135 55.2 484.402 62.8C476.668 70.4 472.802 81.4667 472.802 96C472.802 104.4 474.202 111.2 477.002 116.4C479.935 121.6 483.535 125.8 487.802 129C492.202 132.2 496.935 134.8 502.002 136.8C507.068 138.8 511.735 140.8 516.002 142.8C520.402 144.667 524.002 147 526.802 149.8C529.735 152.467 531.202 156.133 531.202 160.8C531.202 164.667 530.135 167.933 528.002 170.6C526.002 173.267 523.068 174.6 519.202 174.6C515.602 174.6 512.668 173.4 510.402 171C508.135 168.467 507.002 164.133 507.002 158V154.6H471.002V159.6C471.002 167.067 472.068 173.333 474.202 178.4C476.335 183.467 479.402 187.6 483.402 190.8C487.535 193.867 492.535 196 498.402 197.2C504.402 198.533 511.268 199.2 519.002 199.2C535.402 199.2 547.935 195.8 556.602 189C565.268 182.067 569.602 171 569.602 155.8C569.602 147.133 568.068 140.133 565.002 134.8C562.068 129.333 558.335 124.933 553.802 121.6C549.268 118.267 544.402 115.6 539.202 113.6C534.002 111.467 529.135 109.4 524.602 107.4C520.068 105.4 516.268 103.067 513.202 100.4C510.268 97.6 508.802 93.8667 508.802 89.2C508.802 86 509.735 83.1333 511.602 80.6C513.468 77.9333 516.402 76.6 520.402 76.6C524.002 76.6 526.668 78.1333 528.402 81.2C530.135 84.1333 531.002 87.7333 531.002 92V95.4ZM582.823 54.2V197H669.223V166.6H620.023V138.2H664.423V109H620.023V84.6H667.423V54.2H582.823ZM682.823 54.2V197H765.823V166.6H720.023V54.2H682.823ZM775.402 54.2V197H858.402V166.6H812.602V54.2H775.402ZM867.98 54.2V197H954.38V166.6H905.18V138.2H949.58V109H905.18V84.6H952.58V54.2H867.98ZM1005.18 114.6V81H1012.38C1017.98 81 1021.98 82.2667 1024.38 84.8C1026.91 87.3333 1028.18 91.6 1028.18 97.6C1028.18 102.667 1026.91 106.8 1024.38 110C1021.85 113.067 1017.91 114.6 1012.58 114.6H1005.18ZM967.98 54.2V197H1005.18V139.8H1014.98C1017.25 139.8 1019.11 140.133 1020.58 140.8C1022.18 141.333 1023.45 142.4 1024.38 144C1025.45 145.467 1026.18 147.533 1026.58 150.2C1026.98 152.867 1027.18 156.2 1027.18 160.2V169.8C1027.18 171.267 1027.18 173.2 1027.18 175.6C1027.31 177.867 1027.45 180.267 1027.58 182.8C1027.85 185.333 1028.18 187.867 1028.58 190.4C1029.11 192.933 1029.85 195.133 1030.78 197H1070.38V195C1069.18 194.333 1068.31 193.667 1067.78 193C1067.25 192.2 1066.71 191.4 1066.18 190.6C1065.78 189.8 1065.45 188.667 1065.18 187.2C1064.91 185.733 1064.71 184.133 1064.58 182.4C1064.45 180.533 1064.38 178.6 1064.38 176.6C1064.38 174.6 1064.38 172.667 1064.38 170.8V158.6C1064.38 149 1062.71 141.467 1059.38 136C1056.05 130.533 1049.91 127.4 1040.98 126.6V126.2C1049.51 124.867 1055.71 121.267 1059.58 115.4C1063.45 109.533 1065.38 101.8 1065.38 92.2C1065.38 86.7333 1064.65 81.6667 1063.18 77C1061.85 72.3333 1059.58 68.3333 1056.38 65C1053.31 61.5333 1049.25 58.8667 1044.18 57C1039.25 55.1333 1033.25 54.2 1026.18 54.2H967.98Z" fill="#404040"/>
</svg>
