<svg width="482" height="243" viewBox="0 0 482 243" fill="none" xmlns="http://www.w3.org/2000/svg">
<path d="M2.146 181.588V223H12.934V181.588H2.146ZM23.0704 190.752V223H33.8584V190.752H41.9784V181.588H15.0664V190.752H23.0704ZM44.4094 181.588V223H69.4654V214.184H55.1974V205.948H68.0734V197.48H55.1974V190.404H68.9434V181.588H44.4094ZM73.0034 181.588V223H83.0954V192.144H83.2114L88.9534 223H96.7254L102.467 192.144H102.583V223H112.675V181.588H97.2474L92.8974 206.122H92.7814L88.4314 181.588H73.0034ZM133.487 193.536H143.579C143.579 189.089 142.515 185.861 140.389 183.85C138.301 181.801 134.898 180.776 130.181 180.776C125.618 180.776 122.215 181.878 119.973 184.082C117.73 186.286 116.609 189.495 116.609 193.71C116.609 196.146 117.015 198.118 117.827 199.626C118.677 201.134 119.721 202.352 120.959 203.28C122.235 204.208 123.607 204.962 125.077 205.542C126.546 206.122 127.899 206.702 129.137 207.282C130.413 207.823 131.457 208.5 132.269 209.312C133.119 210.085 133.545 211.149 133.545 212.502C133.545 213.623 133.235 214.571 132.617 215.344C132.037 216.117 131.186 216.504 130.065 216.504C129.021 216.504 128.17 216.156 127.513 215.46C126.855 214.725 126.527 213.469 126.527 211.69V210.704H116.087V212.154C116.087 214.319 116.396 216.137 117.015 217.606C117.633 219.075 118.523 220.274 119.683 221.202C120.881 222.091 122.331 222.71 124.033 223.058C125.773 223.445 127.764 223.638 130.007 223.638C134.763 223.638 138.397 222.652 140.911 220.68C143.424 218.669 144.681 215.46 144.681 211.052C144.681 208.539 144.236 206.509 143.347 204.962C142.496 203.377 141.413 202.101 140.099 201.134C138.784 200.167 137.373 199.394 135.865 198.814C134.357 198.195 132.945 197.596 131.631 197.016C130.316 196.436 129.214 195.759 128.325 194.986C127.474 194.174 127.049 193.091 127.049 191.738C127.049 190.81 127.319 189.979 127.861 189.244C128.402 188.471 129.253 188.084 130.413 188.084C131.457 188.084 132.23 188.529 132.733 189.418C133.235 190.269 133.487 191.313 133.487 192.55V193.536ZM173.499 202.294C173.499 199.51 173.538 197.209 173.615 195.392C173.693 193.536 173.847 192.067 174.079 190.984C174.35 189.901 174.717 189.147 175.181 188.722C175.684 188.297 176.341 188.084 177.153 188.084C177.965 188.084 178.603 188.297 179.067 188.722C179.57 189.147 179.937 189.901 180.169 190.984C180.44 192.067 180.614 193.536 180.691 195.392C180.769 197.209 180.807 199.51 180.807 202.294C180.807 205.078 180.769 207.398 180.691 209.254C180.614 211.071 180.44 212.521 180.169 213.604C179.937 214.687 179.57 215.441 179.067 215.866C178.603 216.291 177.965 216.504 177.153 216.504C176.341 216.504 175.684 216.291 175.181 215.866C174.717 215.441 174.35 214.687 174.079 213.604C173.847 212.521 173.693 211.071 173.615 209.254C173.538 207.398 173.499 205.078 173.499 202.294ZM162.363 202.294C162.363 206.161 162.615 209.467 163.117 212.212C163.62 214.919 164.451 217.142 165.611 218.882C166.771 220.583 168.299 221.801 170.193 222.536C172.088 223.271 174.408 223.638 177.153 223.638C179.899 223.638 182.219 223.271 184.113 222.536C186.008 221.801 187.535 220.583 188.695 218.882C189.855 217.142 190.687 214.919 191.189 212.212C191.692 209.467 191.943 206.161 191.943 202.294C191.943 198.427 191.692 195.141 191.189 192.434C190.687 189.689 189.855 187.465 188.695 185.764C187.535 184.024 186.008 182.767 184.113 181.994C182.219 181.182 179.899 180.776 177.153 180.776C174.408 180.776 172.088 181.182 170.193 181.994C168.299 182.767 166.771 184.024 165.611 185.764C164.451 187.465 163.62 189.689 163.117 192.434C162.615 195.141 162.363 198.427 162.363 202.294ZM195.81 181.588V223H206.598V205.948H219.474V197.48H206.598V190.404H220.344V181.588H195.81ZM237.698 195.856H247.79V194.116C247.79 192.956 247.867 192.028 248.022 191.332C248.215 190.597 248.447 190.037 248.718 189.65C249.027 189.263 249.356 189.012 249.704 188.896C250.052 188.741 250.419 188.664 250.806 188.664C251.657 188.664 252.333 188.993 252.836 189.65C253.339 190.307 253.59 191.506 253.59 193.246C253.59 194.793 253.358 196.049 252.894 197.016C252.469 197.944 251.734 198.93 250.69 199.974L243.498 207.282C241.139 209.718 239.515 212.231 238.626 214.822C237.775 217.374 237.35 220.1 237.35 223H264.378V214.88H250.226C250.419 214.261 250.787 213.662 251.328 213.082C251.908 212.502 252.43 211.98 252.894 211.516L259.274 205.31C260.821 203.763 262.058 202.043 262.986 200.148C263.914 198.253 264.378 195.914 264.378 193.13C264.378 191.583 264.185 190.133 263.798 188.78C263.45 187.427 262.773 186.247 261.768 185.242C260.801 184.198 259.467 183.386 257.766 182.806C256.065 182.226 253.861 181.936 251.154 181.936C248.331 181.936 246.05 182.265 244.31 182.922C242.57 183.579 241.217 184.527 240.25 185.764C239.283 186.963 238.626 188.432 238.278 190.172C237.93 191.873 237.737 193.768 237.698 195.856ZM278.271 209.66V196.088C278.271 193.188 278.522 191.235 279.025 190.23C279.528 189.186 280.34 188.664 281.461 188.664C282.582 188.664 283.394 189.186 283.897 190.23C284.4 191.235 284.651 193.188 284.651 196.088V209.66C284.651 212.56 284.4 214.532 283.897 215.576C283.394 216.581 282.582 217.084 281.461 217.084C280.34 217.084 279.528 216.581 279.025 215.576C278.522 214.532 278.271 212.56 278.271 209.66ZM267.483 202.874C267.483 207.05 267.754 210.491 268.295 213.198C268.875 215.866 269.726 217.993 270.847 219.578C272.007 221.125 273.457 222.188 275.197 222.768C276.976 223.348 279.064 223.638 281.461 223.638C283.858 223.638 285.927 223.348 287.667 222.768C289.446 222.188 290.896 221.125 292.017 219.578C293.177 217.993 294.028 215.866 294.569 213.198C295.149 210.491 295.439 207.05 295.439 202.874C295.439 198.737 295.149 195.315 294.569 192.608C294.028 189.901 293.177 187.755 292.017 186.17C290.896 184.585 289.446 183.483 287.667 182.864C285.927 182.245 283.858 181.936 281.461 181.936C279.064 181.936 276.976 182.245 275.197 182.864C273.457 183.483 272.007 184.585 270.847 186.17C269.726 187.755 268.875 189.901 268.295 192.608C267.754 195.315 267.483 198.737 267.483 202.874ZM297.964 195.856H308.056V194.116C308.056 192.956 308.133 192.028 308.288 191.332C308.481 190.597 308.713 190.037 308.984 189.65C309.293 189.263 309.622 189.012 309.97 188.896C310.318 188.741 310.685 188.664 311.072 188.664C311.922 188.664 312.599 188.993 313.102 189.65C313.604 190.307 313.856 191.506 313.856 193.246C313.856 194.793 313.624 196.049 313.16 197.016C312.734 197.944 312 198.93 310.956 199.974L303.764 207.282C301.405 209.718 299.781 212.231 298.892 214.822C298.041 217.374 297.616 220.1 297.616 223H324.644V214.88H310.492C310.685 214.261 311.052 213.662 311.594 213.082C312.174 212.502 312.696 211.98 313.16 211.516L319.54 205.31C321.086 203.763 322.324 202.043 323.252 200.148C324.18 198.253 324.644 195.914 324.644 193.13C324.644 191.583 324.45 190.133 324.064 188.78C323.716 187.427 323.039 186.247 322.034 185.242C321.067 184.198 319.733 183.386 318.032 182.806C316.33 182.226 314.126 181.936 311.42 181.936C308.597 181.936 306.316 182.265 304.576 182.922C302.836 183.579 301.482 184.527 300.516 185.764C299.549 186.963 298.892 188.432 298.544 190.172C298.196 191.873 298.002 193.768 297.964 195.856ZM328.096 195.856H338.188V194.116C338.188 192.956 338.266 192.028 338.42 191.332C338.614 190.597 338.846 190.037 339.116 189.65C339.426 189.263 339.754 189.012 340.102 188.896C340.45 188.741 340.818 188.664 341.204 188.664C342.055 188.664 342.732 188.993 343.234 189.65C343.737 190.307 343.988 191.506 343.988 193.246C343.988 194.793 343.756 196.049 343.292 197.016C342.867 197.944 342.132 198.93 341.088 199.974L333.896 207.282C331.538 209.718 329.914 212.231 329.024 214.822C328.174 217.374 327.748 220.1 327.748 223H354.776V214.88H340.624C340.818 214.261 341.185 213.662 341.726 213.082C342.306 212.502 342.828 211.98 343.292 211.516L349.672 205.31C351.219 203.763 352.456 202.043 353.384 200.148C354.312 198.253 354.776 195.914 354.776 193.13C354.776 191.583 354.583 190.133 354.196 188.78C353.848 187.427 353.172 186.247 352.166 185.242C351.2 184.198 349.866 183.386 348.164 182.806C346.463 182.226 344.259 181.936 341.552 181.936C338.73 181.936 336.448 182.265 334.708 182.922C332.968 183.579 331.615 184.527 330.648 185.764C329.682 186.963 329.024 188.432 328.676 190.172C328.328 191.873 328.135 193.768 328.096 195.856ZM374.398 181.588V223H390.058C393.19 223 395.626 222.439 397.366 221.318C399.106 220.158 400.401 218.631 401.252 216.736C402.141 214.803 402.682 212.599 402.876 210.124C403.069 207.611 403.166 205.001 403.166 202.294C403.166 199.587 403.069 196.997 402.876 194.522C402.682 192.009 402.141 189.805 401.252 187.91C400.401 185.977 399.106 184.449 397.366 183.328C395.626 182.168 393.19 181.588 390.058 181.588H374.398ZM385.186 215.228V189.36H387.332C388.376 189.36 389.207 189.515 389.826 189.824C390.444 190.095 390.908 190.694 391.218 191.622C391.566 192.55 391.778 193.865 391.856 195.566C391.972 197.267 392.03 199.51 392.03 202.294C392.03 205.078 391.972 207.321 391.856 209.022C391.778 210.723 391.566 212.038 391.218 212.966C390.908 213.894 390.444 214.513 389.826 214.822C389.207 215.093 388.376 215.228 387.332 215.228H385.186ZM407.702 181.588V223H432.758V214.184H418.49V205.948H431.366V197.48H418.49V190.404H432.236V181.588H407.702ZM453.232 194.174V196.494H463.672V193.884C463.672 191.873 463.421 190.075 462.918 188.49C462.454 186.866 461.681 185.493 460.598 184.372C459.554 183.212 458.182 182.323 456.48 181.704C454.779 181.085 452.71 180.776 450.274 180.776C447.49 180.776 445.151 181.163 443.256 181.936C441.362 182.671 439.834 183.889 438.674 185.59C437.514 187.291 436.683 189.515 436.18 192.26C435.716 195.005 435.484 198.35 435.484 202.294C435.484 206.161 435.678 209.467 436.064 212.212C436.49 214.919 437.244 217.142 438.326 218.882C439.409 220.583 440.917 221.801 442.85 222.536C444.784 223.271 447.258 223.638 450.274 223.638C452.014 223.638 453.696 223.445 455.32 223.058C456.983 222.71 458.452 222.014 459.728 220.97C461.004 219.887 462.029 218.418 462.802 216.562C463.576 214.706 463.962 212.328 463.962 209.428V206.354H453.522C453.522 208.326 453.464 209.969 453.348 211.284C453.271 212.56 453.116 213.585 452.884 214.358C452.652 215.131 452.324 215.692 451.898 216.04C451.473 216.349 450.932 216.504 450.274 216.504C449.462 216.504 448.805 216.291 448.302 215.866C447.838 215.441 447.471 214.687 447.2 213.604C446.968 212.521 446.814 211.071 446.736 209.254C446.659 207.398 446.62 205.078 446.62 202.294C446.62 199.51 446.659 197.209 446.736 195.392C446.814 193.536 446.968 192.067 447.2 190.984C447.471 189.901 447.838 189.147 448.302 188.722C448.805 188.297 449.462 188.084 450.274 188.084C451.318 188.084 452.072 188.509 452.536 189.36C453 190.211 453.232 191.815 453.232 194.174Z" fill="#3C78E4"/>
<path d="M7.04 37.76V152H34.88V81.44H35.2L55.04 152H87.68V37.76H59.84V108.16H59.52L40.32 37.76H7.04ZM101.728 37.76V152H170.848V127.68H131.488V104.96H167.008V81.6H131.488V62.08H169.408V37.76H101.728ZM223.488 37.76L212.768 116.8H212.448L203.488 37.76H174.688L194.208 152H226.848L236.768 75.2H237.088L247.008 152H279.648L299.168 37.76H270.368L262.368 116.8H262.048L250.368 37.76H223.488ZM346.701 37.76V152H376.461V37.76H346.701ZM389.384 37.76V152H417.224V81.44H417.544L437.384 152H470.024V37.76H442.184V108.16H441.864L422.664 37.76H389.384Z" fill="#404040"/>
</svg>
