<svg width="66" height="79" viewBox="0 0 66 79" fill="none" xmlns="http://www.w3.org/2000/svg">
<path d="M35.5274 44.5143L56.6971 31.235L61.0303 34.6223L43.6418 43.8764L51.9141 50.3431L36.0653 57.6277L42.368 62.5547L22.702 70.6631L35.4854 61.6169L29.9705 57.3057L44.4156 50.1932L35.5274 44.5143Z" fill="#EA9388" stroke="#EA9388" stroke-width="2"/>
<path d="M13.6971 23.7077L31.6836 1.77625L36.5474 3.46253L21.8972 21.2564L32.6098 24.4565L19.0059 39.5291L26.9972 41.6829L9.53946 57.938L19.8684 44.4541L11.6183 40.8229L24.4097 26.9077L13.6971 23.7077Z" fill="#EA9388" stroke="#EA9388" stroke-width="2"/>
<path d="M38.5274 45.5143L59.6971 32.235L64.0303 35.6223L46.6418 44.8764L54.9141 51.3431L39.0653 58.6277L45.368 63.5547L25.702 71.6631L38.4854 62.6169L32.9705 58.3057L47.4156 51.1932L38.5274 45.5143Z" fill="#3C78E4" stroke="#3C78E4" stroke-width="2"/>
<path d="M16.6971 24.7077L34.6836 2.77625L39.5474 4.46253L24.8972 22.2564L35.6098 25.4565L22.0059 40.5291L29.9972 42.6829L12.5395 58.938L22.8684 45.4541L14.6183 41.8229L27.4097 27.9077L16.6971 24.7077Z" fill="#3C78E4" stroke="#3C78E4" stroke-width="2"/>
</svg>
