<svg width="121" height="28" viewBox="0 0 121 28" fill="none" xmlns="http://www.w3.org/2000/svg">
<path d="M7.588 21.836V18.112H8.652V21.836H7.588ZM10.612 18.28C10.976 18.196 11.284 18.028 11.396 17.888L9.408 16.376L8.456 17.328H7.7L5.684 16.46V24.16H5.964C6.776 24.16 7.588 23.712 7.588 23.544V22.62H8.652V23.712H8.96C9.632 23.712 10.584 23.18 10.612 22.956V18.28ZM6.468 11.532V8.2H9.94V11.532H6.468ZM15.26 16.376C15.848 16.292 16.212 16.012 16.38 15.788L12.992 13.24C13.356 13.128 13.552 12.988 13.552 12.932V8.424C14.168 8.312 14.42 8.144 14.588 7.892L11.508 5.596H15.288C15.708 5.596 15.988 5.456 16.072 5.148C14.896 4.028 12.908 2.376 12.908 2.376L11.144 4.812H8.932C10.612 4.056 10.92 1.172 5.628 0.92L5.432 1.06C6.048 1.844 6.552 3.188 6.524 4.392C6.748 4.588 6.972 4.728 7.196 4.812H0.728L0.952 5.596H11.452L9.828 7.416H6.72L2.996 6.016V13.856H3.612C5.404 13.856 6.468 13.324 6.468 13.1V12.316H9.94V13.604H10.584C11.592 13.604 12.348 13.464 12.852 13.296L11.34 15.004H4.872L1.372 13.604V27.716H1.876C3.276 27.716 4.704 26.96 4.704 26.624V15.788H11.62V23.292C11.62 23.572 11.536 23.74 11.228 23.74C10.808 23.74 9.8 23.684 9.8 23.684V24.048C10.612 24.216 10.892 24.608 11.088 25.084C11.312 25.588 11.34 26.372 11.368 27.464C14.812 27.184 15.26 25.924 15.26 23.656V16.376ZM22.092 12.456C21.728 14.64 21.112 16.852 20.272 18.952C18.9 17.272 17.836 15.144 17.22 12.456H22.092ZM23.884 9.6L21.868 11.672H21.616V7.164H26.572C26.964 7.164 27.272 7.024 27.356 6.716C26.236 5.596 24.276 3.944 24.276 3.944L22.54 6.38H21.616V2.208C22.288 2.096 22.484 1.844 22.54 1.48L17.808 1.088V11.672H14.448L14.7 12.456H16.772C17.192 16.32 17.92 19.26 19.012 21.584C17.78 23.824 16.184 25.868 14.168 27.464L14.392 27.744C16.772 26.708 18.732 25.392 20.328 23.88C21.308 25.336 22.512 26.54 23.968 27.66C24.64 25.812 25.928 24.664 27.552 24.412L27.608 24.104C25.816 23.348 24.136 22.452 22.624 21.248C24.416 18.784 25.536 15.984 26.264 13.1C26.908 13.016 27.188 12.904 27.356 12.596L23.884 9.6ZM38.388 21.836V18.112H39.452V21.836H38.388ZM41.412 18.28C41.776 18.196 42.084 18.028 42.196 17.888L40.208 16.376L39.256 17.328H38.5L36.484 16.46V24.16H36.764C37.576 24.16 38.388 23.712 38.388 23.544V22.62H39.452V23.712H39.76C40.432 23.712 41.384 23.18 41.412 22.956V18.28ZM37.268 11.532V8.2H40.74V11.532H37.268ZM46.06 16.376C46.648 16.292 47.012 16.012 47.18 15.788L43.792 13.24C44.156 13.128 44.352 12.988 44.352 12.932V8.424C44.968 8.312 45.22 8.144 45.388 7.892L42.308 5.596H46.088C46.508 5.596 46.788 5.456 46.872 5.148C45.696 4.028 43.708 2.376 43.708 2.376L41.944 4.812H39.732C41.412 4.056 41.72 1.172 36.428 0.92L36.232 1.06C36.848 1.844 37.352 3.188 37.324 4.392C37.548 4.588 37.772 4.728 37.996 4.812H31.528L31.752 5.596H42.252L40.628 7.416H37.52L33.796 6.016V13.856H34.412C36.204 13.856 37.268 13.324 37.268 13.1V12.316H40.74V13.604H41.384C42.392 13.604 43.148 13.464 43.652 13.296L42.14 15.004H35.672L32.172 13.604V27.716H32.676C34.076 27.716 35.504 26.96 35.504 26.624V15.788H42.42V23.292C42.42 23.572 42.336 23.74 42.028 23.74C41.608 23.74 40.6 23.684 40.6 23.684V24.048C41.412 24.216 41.692 24.608 41.888 25.084C42.112 25.588 42.14 26.372 42.168 27.464C45.612 27.184 46.06 25.924 46.06 23.656V16.376ZM52.892 12.456C52.528 14.64 51.912 16.852 51.072 18.952C49.7 17.272 48.636 15.144 48.02 12.456H52.892ZM54.684 9.6L52.668 11.672H52.416V7.164H57.372C57.764 7.164 58.072 7.024 58.156 6.716C57.036 5.596 55.076 3.944 55.076 3.944L53.34 6.38H52.416V2.208C53.088 2.096 53.284 1.844 53.34 1.48L48.608 1.088V11.672H45.248L45.5 12.456H47.572C47.992 16.32 48.72 19.26 49.812 21.584C48.58 23.824 46.984 25.868 44.968 27.464L45.192 27.744C47.572 26.708 49.532 25.392 51.128 23.88C52.108 25.336 53.312 26.54 54.768 27.66C55.44 25.812 56.728 24.664 58.352 24.412L58.408 24.104C56.616 23.348 54.936 22.452 53.424 21.248C55.216 18.784 56.336 15.984 57.064 13.1C57.708 13.016 57.988 12.904 58.156 12.596L54.684 9.6ZM70.56 25.084V22.648H80.584V25.084H70.56ZM80.584 19.624V21.864H70.56V19.624H80.584ZM80.304 18.84H70.812L66.584 17.244V27.576H67.144C68.768 27.576 70.56 26.736 70.56 26.372V25.868H80.584V27.436H81.284C82.572 27.436 84.616 26.792 84.644 26.596V20.268C85.232 20.156 85.568 19.876 85.736 19.652L82.068 16.908L80.304 18.84ZM77.336 10.804H80.696V11.896H81.368C81.9 11.896 82.516 11.756 83.076 11.588L81.872 13.016H77.336V10.804ZM77.336 7.64H80.696V10.02H77.336V7.64ZM77.336 4.532H80.696V6.856H77.336V4.532ZM83.692 16.04H77.336V13.8H86.072C86.492 13.8 86.772 13.66 86.856 13.352C85.988 12.624 84.7 11.7 84.056 11.224C84.336 11.084 84.532 10.972 84.532 10.888V7.64H88.228C88.62 7.64 88.9 7.5 88.956 7.192C87.948 6.212 86.212 4.756 86.212 4.756L84.672 6.856H84.532V5.064C85.064 4.952 85.372 4.728 85.54 4.532L82.096 1.956L80.416 3.748H77.336V2.264C78.12 2.124 78.316 1.872 78.372 1.452L73.36 1.032V3.748H65.632L65.884 4.532H73.36V6.856H62.356L62.58 7.64H73.36V10.02H65.464L65.716 10.804H73.36V13.016H64.512L64.736 13.8H73.36V16.04H62.3L62.524 16.824H88.06C88.452 16.824 88.76 16.684 88.844 16.376C87.584 15.312 85.512 13.828 85.512 13.828L83.692 16.04ZM100.548 8.2H113.68V9.292H114.352C114.576 9.292 114.828 9.264 115.108 9.236L113.68 11H100.66L100.884 11.784H105.14C104.244 13.016 102.62 14.668 101.332 15.2C101.024 15.312 100.464 15.396 100.324 15.424C100.52 13.744 100.548 12.12 100.548 10.608V8.2ZM113.68 3.832V7.416H100.548V3.832H113.68ZM114.548 25.7H110.712V21.836H117.208C117.6 21.836 117.908 21.696 117.992 21.388C116.704 20.296 114.632 18.784 114.632 18.784L112.812 21.052H110.712V18.924C111.412 18.784 111.58 18.532 111.636 18.196L107.296 17.832C110.012 17.188 112.28 16.572 114.016 16.04C114.548 16.74 114.996 17.468 115.332 18.168C119.224 19.904 120.988 12.428 110.936 12.596L110.74 12.792C111.608 13.436 112.532 14.304 113.344 15.256C109.62 15.368 106.176 15.452 103.6 15.508C105.896 14.584 108.612 13.156 110.376 11.784H118.244C118.664 11.784 118.972 11.644 119.056 11.336C118.16 10.58 116.844 9.6 116.116 9.04C116.928 8.872 117.572 8.62 117.6 8.536V4.476C118.188 4.336 118.552 4.084 118.72 3.86L115.108 1.172L113.4 3.048H101.136L96.432 1.48V10.636C96.432 16.236 96.18 22.48 92.96 27.436L93.184 27.604C98.196 24.44 99.792 19.848 100.324 15.48L102.004 19.68C102.312 19.54 102.62 19.288 102.844 18.896C104.244 18.56 105.56 18.28 106.792 17.972V21.052H100.184L100.408 21.836H106.792V25.7H98.112L98.336 26.484H118.944C119.364 26.484 119.672 26.344 119.728 26.036C118.524 24.86 116.396 23.124 116.396 23.124L114.548 25.7Z" fill="#404040"/>
</svg>
